natsume-w4.ufo
<glyph name="exclam" format="2">
  <advance width="246"/>
  <unicode hex="0021"/>
  <outline>
    <contour>
      <point x="123.249" y="674.409" type="curve" smooth="yes"/>
      <point x="161.997" y="674.409"/>
      <point x="192.63" y="641.437"/>
      <point x="192.63" y="602.688" type="curve" smooth="yes"/>
      <point x="192.63" y="583.037"/>
      <point x="189.891" y="566.118"/>
      <point x="185.415" y="538.733" type="curve" smooth="yes"/>
      <point x="176.382" y="483.479"/>
      <point x="150.091" y="293.855"/>
      <point x="143.249" y="244.505" type="curve" smooth="yes"/>
      <point x="139.38" y="216.602"/>
      <point x="138.13" y="207.583"/>
      <point x="123.249" y="207.583" type="curve" smooth="yes"/>
      <point x="108.366" y="207.583"/>
      <point x="107.094" y="216.766"/>
      <point x="103.316" y="244.041" type="curve" smooth="yes"/>
      <point x="96.5949" y="292.557"/>
      <point x="70.259" y="482.667"/>
      <point x="60.6707" y="541.26" type="curve" smooth="yes"/>
      <point x="56.8691" y="564.491"/>
      <point x="53.8682" y="582.83"/>
      <point x="53.8682" y="602.688" type="curve" smooth="yes"/>
      <point x="53.8682" y="641.437"/>
      <point x="84.502" y="674.409"/>
    </contour>
    <contour>
      <point x="53.6611" y="68.168" type="curve" smooth="yes"/>
      <point x="53.6611" y="106.597"/>
      <point x="84.8135" y="137.749"/>
      <point x="123.243" y="137.749" type="curve" smooth="yes"/>
      <point x="161.672" y="137.749"/>
      <point x="192.824" y="106.597"/>
      <point x="192.824" y="68.168" type="curve" smooth="yes"/>
      <point x="192.824" y="29.7393"/>
      <point x="161.672" y="-1.41309"/>
      <point x="123.243" y="-1.41309" type="curve" smooth="yes"/>
      <point x="84.8135" y="-1.41309"/>
      <point x="53.6611" y="29.7393"/>
    </contour>
  </outline>
</glyph>
<glyph name="quotedbl" format="2">
  <advance width="268"/>
  <unicode hex="0022"/>
  <outline>
    <contour>
      <point x="157.431" y="508.163" type="line"/>
      <point x="145.674" y="585.574"/>
      <point x="141.271" y="598.714"/>
      <point x="140.365" y="601.421" type="curve" smooth="yes"/>
      <point x="140.237" y="601.802"/>
      <point x="140.179" y="601.977"/>
      <point x="140.179" y="602.094" type="curve" smooth="yes"/>
      <point x="140.179" y="605.094"/>
      <point x="148.521" y="607.615"/>
      <point x="159.479" y="607.615" type="curve" smooth="yes"/>
      <point x="170.553" y="607.615"/>
      <point x="187.496" y="601.863"/>
      <point x="187.496" y="590.45" type="curve" smooth="yes"/>
      <point x="187.496" y="589.471"/>
      <point x="187.371" y="588.449"/>
      <point x="187.107" y="587.387" type="curve" smooth="yes"/>
      <point x="167.421" y="508.163" type="line"/>
    </contour>
    <contour>
      <point x="98.2891" y="508.163" type="line"/>
      <point x="86.5303" y="585.594"/>
      <point x="82.1299" y="598.72"/>
      <point x="81.2236" y="601.422" type="curve" smooth="yes"/>
      <point x="81.0957" y="601.803"/>
      <point x="81.0381" y="601.977"/>
      <point x="81.0381" y="602.094" type="curve" smooth="yes"/>
      <point x="81.0381" y="605.094"/>
      <point x="89.3809" y="607.615"/>
      <point x="100.338" y="607.615" type="curve" smooth="yes"/>
      <point x="111.412" y="607.615"/>
      <point x="128.355" y="601.863"/>
      <point x="128.355" y="590.45" type="curve" smooth="yes"/>
      <point x="128.355" y="589.471"/>
      <point x="128.23" y="588.449"/>
      <point x="127.967" y="587.387" type="curve" smooth="yes"/>
      <point x="108.28" y="508.163" type="line"/>
    </contour>
  </outline>
</glyph>
<glyph name="numbersign" format="2">
  <advance width="590"/>
  <unicode hex="0023"/>
  <outline>
    <contour>
      <point x="389.324" y="441.538" type="line"/>
      <point x="407.058" y="441.538" type="line"/>
      <point x="395.656" y="387.711" type="line"/>
      <point x="451.798" y="387.711" type="line"/>
      <point x="444.536" y="353.405" type="line"/>
      <point x="388.39" y="353.405" type="line"/>
      <point x="365.025" y="243.099" type="line"/>
      <point x="425.291" y="243.099" type="line"/>
      <point x="418.019" y="208.793" type="line"/>
      <point x="357.76" y="208.793" type="line"/>
      <point x="344.709" y="147.18" type="line"/>
      <point x="326.976" y="147.18" type="line"/>
      <point x="340.026" y="208.793" type="line"/>
      <point x="256.119" y="208.793" type="line"/>
      <point x="243.068" y="147.18" type="line"/>
      <point x="225.335" y="147.18" type="line"/>
      <point x="238.386" y="208.793" type="line"/>
      <point x="182.449" y="208.793" type="line"/>
      <point x="189.722" y="243.099" type="line"/>
      <point x="245.651" y="243.099" type="line"/>
      <point x="269.016" y="353.405" type="line"/>
      <point x="208.966" y="353.405" type="line"/>
      <point x="216.228" y="387.711" type="line"/>
      <point x="276.282" y="387.711" type="line"/>
      <point x="287.683" y="441.538" type="line"/>
      <point x="305.417" y="441.538" type="line"/>
      <point x="294.016" y="387.711" type="line"/>
      <point x="377.923" y="387.711" type="line"/>
    </contour>
    <contour>
      <point x="370.656" y="353.405" type="line"/>
      <point x="286.749" y="353.405" type="line"/>
      <point x="263.385" y="243.099" type="line"/>
      <point x="347.292" y="243.099" type="line"/>
    </contour>
  </outline>
</glyph>
<glyph name="dollar" format="2">
  <advance width="413"/>
  <unicode hex="0024"/>
  <outline>
    <contour>
      <point x="197.545" y="484.072" type="line"/>
      <point x="221.808" y="484.072" type="line"/>
      <point x="221.808" y="447.687" type="line"/>
      <point x="222.197" y="447.69"/>
      <point x="222.589" y="447.691"/>
      <point x="222.981" y="447.691" type="curve" smooth="yes"/>
      <point x="253.662" y="447.691"/>
      <point x="276.634" y="438.531"/>
      <point x="292.466" y="426.207" type="curve"/>
      <point x="289.787" y="422.219"/>
      <point x="288.14" y="410.534"/>
      <point x="287.529" y="401.75" type="curve" smooth="yes"/>
      <point x="285.977" y="379.504" type="line"/>
      <point x="276.344" y="379.504" type="line"/>
      <point x="275.497" y="386.437" type="line" smooth="yes"/>
      <point x="272.179" y="413.622"/>
      <point x="245.726" y="428.826"/>
      <point x="221.808" y="431.607" type="curve"/>
      <point x="221.808" y="324.278" type="line"/>
      <point x="251.158" y="303.661" type="line" smooth="yes"/>
      <point x="276.744" y="285.691"/>
      <point x="300.305" y="268.719"/>
      <point x="300.305" y="226.726" type="curve" smooth="yes"/>
      <point x="300.305" y="188.754"/>
      <point x="275.422" y="145.797"/>
      <point x="221.808" y="138.512" type="curve"/>
      <point x="221.808" y="102.194" type="line"/>
      <point x="197.545" y="102.194" type="line"/>
      <point x="197.545" y="137.672" type="line"/>
      <point x="163.886" y="139.702"/>
      <point x="139.744" y="154.495"/>
      <point x="122.04" y="168.296" type="curve"/>
      <point x="125.479" y="179.259"/>
      <point x="127.454" y="191.428"/>
      <point x="130.985" y="221.396" type="curve"/>
      <point x="140.877" y="221.396" type="line"/>
      <point x="141.443" y="215.938" type="line" smooth="yes"/>
      <point x="143.921" y="191.997"/>
      <point x="158.497" y="160.798"/>
      <point x="197.545" y="155.332" type="curve"/>
      <point x="197.545" y="289.671" type="line"/>
      <point x="171.977" y="307.52" type="line" smooth="yes"/>
      <point x="150.859" y="322.26"/>
      <point x="131.982" y="341.522"/>
      <point x="131.982" y="370.33" type="curve" smooth="yes"/>
      <point x="131.982" y="401.373"/>
      <point x="155.36" y="435.075"/>
      <point x="197.545" y="444.875" type="curve"/>
    </contour>
    <contour>
      <point x="221.808" y="272.734" type="curve"/>
      <point x="221.808" y="155.582" type="line"/>
      <point x="248.872" y="160.657"/>
      <point x="267.42" y="182.83"/>
      <point x="267.42" y="207.093" type="curve" smooth="yes"/>
      <point x="267.42" y="240.712"/>
      <point x="247.04" y="255.121"/>
    </contour>
    <contour>
      <point x="197.545" y="341.362" type="curve"/>
      <point x="197.545" y="429.672" type="line"/>
      <point x="176.558" y="423.067"/>
      <point x="165.746" y="403.93"/>
      <point x="165.746" y="385.891" type="curve" smooth="yes"/>
      <point x="165.746" y="369.014"/>
      <point x="174.891" y="357.759"/>
    </contour>
  </outline>
</glyph>
<glyph name="percent" format="2">
  <advance width="615"/>
  <unicode hex="0025"/>
  <outline>
    <contour>
      <point x="398.208" y="441.538" type="line"/>
      <point x="422.353" y="441.538" type="line"/>
      <point x="216.427" y="147.18" type="line"/>
      <point x="192.281" y="147.18" type="line"/>
    </contour>
    <contour>
      <point x="230.394" y="447.267" type="curve" smooth="yes"/>
      <point x="269.74" y="447.267"/>
      <point x="295.67" y="418.04"/>
      <point x="295.67" y="381.991" type="curve" smooth="yes"/>
      <point x="295.658" y="345.931"/>
      <point x="269.937" y="316.715"/>
      <point x="230.381" y="316.714" type="curve" smooth="yes"/>
      <point x="190.828" y="316.714"/>
      <point x="165.113" y="345.941"/>
      <point x="165.113" y="381.989" type="curve" smooth="yes"/>
      <point x="165.124" y="418.042"/>
      <point x="191.053" y="447.267"/>
    </contour>
    <contour>
      <point x="230.394" y="436.953" type="curve" smooth="yes"/>
      <point x="209.36" y="436.953"/>
      <point x="192.789" y="416.071"/>
      <point x="192.789" y="381.988" type="curve" smooth="yes"/>
      <point x="192.8" y="347.912"/>
      <point x="209.576" y="327.027"/>
      <point x="230.38" y="327.027" type="curve" smooth="yes"/>
      <point x="251.173" y="327.027"/>
      <point x="267.979" y="347.474"/>
      <point x="267.979" y="381.992" type="curve" smooth="yes"/>
      <point x="267.979" y="416.511"/>
      <point x="251.415" y="436.953"/>
    </contour>
    <contour>
      <point x="384.241" y="141.453" type="curve" smooth="yes"/>
      <point x="344.894" y="141.453"/>
      <point x="318.965" y="170.68"/>
      <point x="318.965" y="206.726" type="curve" smooth="yes"/>
      <point x="318.976" y="242.78"/>
      <point x="344.694" y="272.001"/>
      <point x="384.252" y="272.003" type="curve" smooth="yes"/>
      <point x="423.802" y="272.003"/>
      <point x="449.521" y="242.776"/>
      <point x="449.521" y="206.73" type="curve" smooth="yes"/>
      <point x="449.51" y="170.676"/>
      <point x="423.581" y="141.453"/>
    </contour>
    <contour>
      <point x="384.241" y="151.766" type="curve" smooth="yes"/>
      <point x="405.273" y="151.766"/>
      <point x="421.841" y="172.648"/>
      <point x="421.841" y="206.73" type="curve" smooth="yes"/>
      <point x="421.83" y="240.806"/>
      <point x="405.059" y="261.691"/>
      <point x="384.259" y="261.691" type="curve" smooth="yes"/>
      <point x="363.51" y="261.69"/>
      <point x="346.659" y="241.33"/>
      <point x="346.659" y="206.702" type="curve" smooth="yes"/>
      <point x="346.659" y="172.199"/>
      <point x="363.224" y="151.766"/>
    </contour>
  </outline>
</glyph>
<glyph name="ampersand" format="2">
  <advance width="829"/>
  <unicode hex="0026"/>
  <outline>
    <contour>
      <point x="234.366" y="425.077" type="curve"/>
      <point x="193.998" y="408.887"/>
      <point x="180.029" y="396.503"/>
      <point x="171.312" y="388.775" type="curve" smooth="yes"/>
      <point x="164.557" y="382.787"/>
      <point x="160.957" y="379.595"/>
      <point x="150.669" y="379.595" type="curve" smooth="yes"/>
      <point x="133.443" y="379.595"/>
      <point x="91.6172" y="430.551"/>
      <point x="91.6172" y="483.381" type="curve" smooth="yes"/>
      <point x="91.6172" y="496.972"/>
      <point x="102.016" y="512.351"/>
      <point x="108.217" y="515.738" type="curve"/>
      <point x="108.904" y="504.89"/>
      <point x="112.187" y="474.032"/>
      <point x="146.434" y="474.032" type="curve" smooth="yes"/>
      <point x="171.552" y="474.032"/>
      <point x="214.526" y="479.318"/>
      <point x="247.491" y="487.26" type="curve"/>
      <point x="259.357" y="535.075"/>
      <point x="271.424" y="569.222"/>
      <point x="280.256" y="594.217" type="curve" smooth="yes"/>
      <point x="288.364" y="617.163"/>
      <point x="293.747" y="632.395"/>
      <point x="293.747" y="643.408" type="curve" smooth="yes"/>
      <point x="293.747" y="675.282"/>
      <point x="269.863" y="694.127"/>
      <point x="250.144" y="709.685" type="curve"/>
      <point x="253.108" y="713.084"/>
      <point x="262.911" y="715.603"/>
      <point x="273.946" y="715.603" type="curve" smooth="yes"/>
      <point x="328.149" y="715.603"/>
      <point x="384.775" y="614.428"/>
      <point x="384.775" y="582.325" type="curve" smooth="yes"/>
      <point x="384.775" y="567.464"/>
      <point x="379.08" y="564.821"/>
      <point x="368.968" y="560.128" type="curve" smooth="yes"/>
      <point x="356.258" y="554.229"/>
      <point x="336.572" y="545.092"/>
      <point x="312.45" y="504.388" type="curve"/>
      <point x="329.804" y="492.079"/>
      <point x="352.616" y="466.487"/>
      <point x="352.616" y="452.216" type="curve" smooth="yes"/>
      <point x="352.616" y="438.845"/>
      <point x="348.675" y="436.986"/>
      <point x="336.888" y="431.424" type="curve" smooth="yes"/>
      <point x="324.384" y="425.524"/>
      <point x="303.05" y="415.458"/>
      <point x="268.224" y="383.065" type="curve"/>
      <point x="270.231" y="379.782" type="line"/>
      <point x="347.113" y="435.807"/>
      <point x="436.358" y="466.168"/>
      <point x="521.562" y="466.168" type="curve" smooth="yes"/>
      <point x="678.143" y="466.168"/>
      <point x="785.483" y="369.635"/>
      <point x="785.483" y="250.125" type="curve" smooth="yes"/>
      <point x="785.483" y="30.1554"/>
      <point x="456.448" y="-11.4314"/>
      <point x="452.211" y="-11.4314" type="curve" smooth="yes"/>
      <point x="445.776" y="-11.4314"/>
      <point x="442.684" y="-8.56955"/>
      <point x="442.684" y="-5.0825" type="curve" smooth="yes"/>
      <point x="442.684" y="-1.67766"/>
      <point x="445.632" y="2.32321"/>
      <point x="451.296" y="4.83789" type="curve" smooth="yes"/>
      <point x="579.449" y="61.7344"/>
      <point x="671.98" y="149.702"/>
      <point x="671.98" y="272.408" type="curve" smooth="yes"/>
      <point x="671.98" y="368.189"/>
      <point x="608.073" y="426.479"/>
      <point x="523.694" y="426.479" type="curve" smooth="yes"/>
      <point x="439.974" y="426.479"/>
      <point x="342.936" y="392.877"/>
      <point x="260.636" y="308.032" type="curve"/>
      <point x="261.007" y="234.594"/>
      <point x="275.74" y="184.281"/>
      <point x="287.812" y="143.055" type="curve" smooth="yes"/>
      <point x="296.264" y="114.191"/>
      <point x="303.412" y="89.7815"/>
      <point x="303.412" y="65.0098" type="curve" smooth="yes"/>
      <point x="303.412" y="8.41113"/>
      <point x="278.151" y="-36.8262"/>
      <point x="257.211" y="-36.8262" type="curve" smooth="yes"/>
      <point x="240.999" y="-36.8262"/>
      <point x="234.29" y="-11.6768"/>
      <point x="226.923" y="15.9368" type="curve" smooth="yes"/>
      <point x="210.238" y="78.4788"/>
      <point x="202.966" y="93.0688"/>
      <point x="145.521" y="125.216" type="curve"/>
      <point x="137.872" y="106.298"/>
      <point x="130.731" y="86.3423"/>
      <point x="124.161" y="65.3105" type="curve" smooth="yes"/>
      <point x="117.844" y="45.0859"/>
      <point x="109.113" y="31.4307"/>
      <point x="86.0771" y="31.4307" type="curve" smooth="yes"/>
      <point x="60.2295" y="31.4307"/>
      <point x="44.6943" y="105.666"/>
      <point x="44.6943" y="133.891" type="curve" smooth="yes"/>
      <point x="44.6943" y="148.48"/>
      <point x="48.5303" y="170.546"/>
      <point x="74.4678" y="200.348" type="curve" smooth="yes"/>
      <point x="84.515" y="211.892"/>
      <point x="101.206" y="234.457"/>
      <point x="121.739" y="262.217" type="curve" smooth="yes"/>
      <point x="152.572" y="303.9"/>
      <point x="192.068" y="357.297"/>
      <point x="230.743" y="402.679" type="curve"/>
      <point x="231.882" y="410.307"/>
      <point x="233.091" y="417.768"/>
    </contour>
    <contour>
      <point x="224.054" y="132.779" type="curve"/>
      <point x="219.621" y="188.855"/>
      <point x="218.841" y="198.721"/>
      <point x="218.841" y="226.567" type="curve" smooth="yes"/>
      <point x="218.841" y="237.684"/>
      <point x="218.956" y="248.495"/>
      <point x="219.181" y="259.022" type="curve"/>
      <point x="194.838" y="226.106"/>
      <point x="172.49" y="187.666"/>
      <point x="153.048" y="143.129" type="curve"/>
      <point x="163.43" y="141.483"/>
      <point x="176.726" y="139.611"/>
      <point x="189.773" y="137.773" type="curve" smooth="yes"/>
      <point x="202.388" y="135.997"/>
      <point x="214.769" y="134.253"/>
    </contour>
  </outline>
</glyph>
<glyph name="quotesingle" format="2">
  <advance width="149"/>
  <unicode hex="0027"/>
  <outline>
    <contour>
      <point x="68.7627" y="508.163" type="line"/>
      <point x="57.0039" y="585.594"/>
      <point x="52.6035" y="598.72"/>
      <point x="51.6973" y="601.422" type="curve" smooth="yes"/>
      <point x="51.5693" y="601.803"/>
      <point x="51.5117" y="601.977"/>
      <point x="51.5117" y="602.094" type="curve" smooth="yes"/>
      <point x="51.5117" y="605.094"/>
      <point x="59.8545" y="607.615"/>
      <point x="70.8115" y="607.615" type="curve" smooth="yes"/>
      <point x="81.8857" y="607.615"/>
      <point x="98.8291" y="601.863"/>
      <point x="98.8291" y="590.45" type="curve" smooth="yes"/>
      <point x="98.8291" y="589.471"/>
      <point x="98.7041" y="588.449"/>
      <point x="98.4404" y="587.387" type="curve" smooth="yes"/>
      <point x="78.7539" y="508.163" type="line"/>
    </contour>
  </outline>
</glyph>
<glyph name="parenleft" format="2">
  <advance width="353"/>
  <unicode hex="0028"/>
  <outline>
    <contour>
      <point x="162.885" y="187.456" type="curve" smooth="yes"/>
      <point x="162.885" y="59.0156"/>
      <point x="201.035" y="21.29"/>
      <point x="257.404" y="0.65625" type="curve"/>
      <point x="257.404" y="-13.1748" type="line"/>
      <point x="200.055" y="-5.11035"/>
      <point x="152.302" y="27.6309"/>
      <point x="132.645" y="86.9033" type="curve" smooth="yes"/>
      <point x="123.739" y="113.752"/>
      <point x="119.789" y="146.009"/>
      <point x="119.789" y="187.456" type="curve" smooth="yes"/>
      <point x="119.789" y="228.904"/>
      <point x="123.739" y="261.161"/>
      <point x="132.645" y="288.01" type="curve" smooth="yes"/>
      <point x="152.302" y="347.282"/>
      <point x="200.055" y="380.022"/>
      <point x="257.404" y="388.087" type="curve"/>
      <point x="257.404" y="374.257" type="line"/>
      <point x="201.019" y="353.616"/>
      <point x="162.885" y="315.874"/>
    </contour>
  </outline>
</glyph>
<glyph name="parenright" format="2">
  <advance width="353"/>
  <unicode hex="0029"/>
  <outline>
    <contour>
      <point x="190.437" y="187.456" type="curve" smooth="yes"/>
      <point x="190.437" y="315.896"/>
      <point x="152.286" y="353.622"/>
      <point x="95.918" y="374.257" type="curve"/>
      <point x="95.918" y="388.087" type="line"/>
      <point x="153.267" y="380.022"/>
      <point x="201.02" y="347.282"/>
      <point x="220.677" y="288.01" type="curve" smooth="yes"/>
      <point x="229.582" y="261.161"/>
      <point x="233.532" y="228.904"/>
      <point x="233.532" y="187.456" type="curve" smooth="yes"/>
      <point x="233.532" y="146.009"/>
      <point x="229.582" y="113.752"/>
      <point x="220.677" y="86.9033" type="curve" smooth="yes"/>
      <point x="201.02" y="27.6309"/>
      <point x="153.267" y="-5.11035"/>
      <point x="95.918" y="-13.1748" type="curve"/>
      <point x="95.918" y="0.65625" type="line"/>
      <point x="152.303" y="21.2959"/>
      <point x="190.437" y="59.0381"/>
    </contour>
  </outline>
</glyph>
<glyph name="asterisk" format="2">
  <advance width="351"/>
  <unicode hex="002A"/>
  <outline>
    <contour>
      <point x="102.288" y="504.347" type="curve" smooth="yes"/>
      <point x="102.288" y="509.06"/>
      <point x="102.288" y="511.988"/>
      <point x="108.705" y="511.988" type="curve" smooth="yes"/>
      <point x="116.466" y="511.988"/>
      <point x="133.612" y="507.705"/>
      <point x="171.492" y="497.117" type="curve"/>
      <point x="171.309" y="489.6" type="line"/>
      <point x="112.064" y="472.375" type="line"/>
      <point x="108.516" y="478.87"/>
      <point x="102.288" y="494.679"/>
    </contour>
    <contour>
      <point x="138.513" y="426.394" type="curve" smooth="yes"/>
      <point x="137.708" y="427.167"/>
      <point x="137.011" y="427.837"/>
      <point x="137.011" y="429.297" type="curve" smooth="yes"/>
      <point x="137.011" y="433.662"/>
      <point x="143.239" y="445.092"/>
      <point x="171.43" y="487.477" type="curve"/>
      <point x="178.522" y="484.979" type="line"/>
      <point x="176.591" y="423.311" type="line"/>
      <point x="172.767" y="422.59"/>
      <point x="166.264" y="421.96"/>
      <point x="159.62" y="421.96" type="curve" smooth="yes"/>
      <point x="150.933" y="421.96"/>
      <point x="142.006" y="423.037"/>
    </contour>
    <contour>
      <point x="219.507" y="437.601" type="curve" smooth="yes"/>
      <point x="211.922" y="445.894"/>
      <point x="196.914" y="463.809"/>
      <point x="180.578" y="484.432" type="curve"/>
      <point x="185.144" y="490.404" type="line"/>
      <point x="243.199" y="469.516" type="line" smooth="yes"/>
      <point x="243.156" y="469.181"/>
      <point x="237.465" y="433.896"/>
      <point x="226.084" y="433.896" type="curve" smooth="yes"/>
      <point x="224.069" y="433.896"/>
      <point x="221.877" y="435.001"/>
    </contour>
    <contour>
      <point x="242.868" y="514.748" type="curve" smooth="yes"/>
      <point x="232.627" y="510.1"/>
      <point x="210.954" y="501.354"/>
      <point x="186.298" y="492.189" type="curve"/>
      <point x="182.021" y="498.38" type="line"/>
      <point x="219.826" y="547.135" type="line"/>
      <point x="227.948" y="543.292"/>
      <point x="247.322" y="530.674"/>
      <point x="248.827" y="522.258" type="curve" smooth="yes"/>
      <point x="249.4" y="519.166"/>
      <point x="248.569" y="517.339"/>
    </contour>
    <contour>
      <point x="170.4" y="568.861" type="curve" smooth="yes"/>
      <point x="175.116" y="568.861"/>
      <point x="176.141" y="565.86"/>
      <point x="176.709" y="560.802" type="curve" smooth="yes"/>
      <point x="177.955" y="549.635"/>
      <point x="179.593" y="526.316"/>
      <point x="180.682" y="500.029" type="curve"/>
      <point x="173.479" y="497.883" type="line"/>
      <point x="138.784" y="548.901" type="line"/>
      <point x="144.728" y="555.189"/>
      <point x="161.577" y="568.861"/>
    </contour>
  </outline>
</glyph>
<glyph name="plus" format="2">
  <advance width="471"/>
  <unicode hex="002B"/>
  <outline>
    <contour>
      <point x="220.922" y="208.797" type="line"/>
      <point x="220.922" y="290.866" type="line"/>
      <point x="249.791" y="290.866" type="line"/>
      <point x="249.791" y="208.797" type="line"/>
      <point x="333.568" y="208.797" type="line"/>
      <point x="333.568" y="181.882" type="line"/>
      <point x="249.791" y="181.882" type="line"/>
      <point x="249.791" y="90.5488" type="line"/>
      <point x="220.922" y="90.5488" type="line"/>
      <point x="220.922" y="181.882" type="line"/>
      <point x="137.145" y="181.882" type="line"/>
      <point x="137.145" y="208.797" type="line"/>
    </contour>
  </outline>
</glyph>
<glyph name="comma" format="2">
  <advance width="269"/>
  <unicode hex="002C"/>
  <outline>
    <contour>
      <point x="110.108" y="-28.5381" type="curve" smooth="yes"/>
      <point x="110.108" y="8.19056"/>
      <point x="86.7738" y="22.6437"/>
      <point x="69.2087" y="33.5233" type="curve" smooth="yes"/>
      <point x="58.6078" y="40.0894"/>
      <point x="50.1084" y="45.3538"/>
      <point x="50.1084" y="53.4277" type="curve" smooth="yes"/>
      <point x="50.1084" y="63.9268"/>
      <point x="62.7363" y="80.9707"/>
      <point x="146.116" y="130.526" type="curve"/>
      <point x="181.443" y="117.7"/>
      <point x="215.954" y="85.7559"/>
      <point x="215.954" y="26.4531" type="curve" smooth="yes"/>
      <point x="215.954" y="-106.262"/>
      <point x="41.409" y="-157.123"/>
      <point x="30.0467" y="-157.123" type="curve" smooth="yes"/>
      <point x="18.9425" y="-157.123"/>
      <point x="13.0149" y="-149.47"/>
      <point x="13.0149" y="-141.258" type="curve" smooth="yes"/>
      <point x="13.0149" y="-134.393"/>
      <point x="17.1564" y="-127.138"/>
      <point x="25.8779" y="-123.633" type="curve" smooth="yes"/>
      <point x="86.5283" y="-99.2568"/>
      <point x="110.108" y="-59.9844"/>
    </contour>
  </outline>
</glyph>
<glyph name="hyphen" format="2">
  <advance width="493"/>
  <unicode hex="002D"/>
  <outline>
    <contour>
      <point x="170.75" y="192.5" type="line"/>
      <point x="324.25" y="192.5" type="line"/>
      <point x="324.25" y="161.5" type="line"/>
      <point x="170.75" y="161.5" type="line"/>
    </contour>
  </outline>
</glyph>
<glyph name="period" format="2">
  <advance width="178"/>
  <unicode hex="002E"/>
  <outline>
    <contour>
      <point x="120" y="40.75" type="curve" smooth="yes"/>
      <point x="120" y="24.25"/>
      <point x="106.5" y="10.75"/>
      <point x="90" y="10.75" type="curve" smooth="yes"/>
      <point x="73.5" y="10.75"/>
      <point x="60" y="24.25"/>
      <point x="60" y="40.75" type="curve" smooth="yes"/>
      <point x="60" y="57.25"/>
      <point x="73.5" y="70.25"/>
      <point x="90" y="70.25" type="curve" smooth="yes"/>
      <point x="106.5" y="70.25"/>
      <point x="120" y="57.25"/>
    </contour>
  </outline>
</glyph>
<glyph name="slash" format="2">
  <advance width="217"/>
  <unicode hex="002F"/>
  <outline>
    <contour>
      <point x="134.757" y="441.538" type="line"/>
      <point x="162.481" y="441.538" type="line"/>
      <point x="81.8848" y="147.18" type="line"/>
      <point x="54.1602" y="147.18" type="line"/>
    </contour>
  </outline>
</glyph>
<glyph name="zero" format="2">
  <advance width="473"/>
  <unicode hex="0030"/>
  <outline>
    <contour>
      <point x="236.635" y="292.895" type="curve" smooth="yes"/>
      <point x="201.051" y="292.895"/>
      <point x="167.887" y="259.924"/>
      <point x="167.887" y="201.02" type="curve" smooth="yes"/>
      <point x="167.887" y="142.115"/>
      <point x="201.349" y="109.145"/>
      <point x="236.635" y="109.145" type="curve" smooth="yes"/>
      <point x="271.922" y="109.145"/>
      <point x="305.38" y="142.115"/>
      <point x="305.38" y="201.02" type="curve" smooth="yes"/>
      <point x="305.38" y="259.924"/>
      <point x="272.22" y="292.895"/>
    </contour>
    <contour>
      <point x="236.635" y="308.12" type="curve" smooth="yes"/>
      <point x="290.28" y="308.12"/>
      <point x="340.203" y="268.095"/>
      <point x="340.203" y="201.02" type="curve" smooth="yes"/>
      <point x="340.203" y="133.945"/>
      <point x="287.846" y="93.9199"/>
      <point x="236.635" y="93.9199" type="curve" smooth="yes"/>
      <point x="185.425" y="93.9199"/>
      <point x="133.063" y="133.945"/>
      <point x="133.063" y="201.02" type="curve" smooth="yes"/>
      <point x="133.063" y="268.095"/>
      <point x="182.989" y="308.12"/>
    </contour>
  </outline>
</glyph>
<glyph name="one" format="2">
  <advance width="270"/>
  <unicode hex="0031"/>
  <outline>
    <contour>
      <point x="79.75" y="100.5" type="line"/>
      <point x="79.75" y="112.5" type="line"/>
      <point x="99.25" y="112.5" type="line" smooth="yes"/>
      <point x="111.25" y="112.5"/>
      <point x="115.25" y="114.5"/>
      <point x="115.25" y="123" type="curve" smooth="yes"/>
      <point x="115.25" y="279.5" type="line" smooth="yes"/>
      <point x="115.25" y="288"/>
      <point x="111.25" y="289.5"/>
      <point x="99.25" y="289.5" type="curve" smooth="yes"/>
      <point x="79.75" y="289.5" type="line"/>
      <point x="79.75" y="301.5" type="line"/>
      <point x="191.25" y="301.5" type="line"/>
      <point x="191.25" y="289.5" type="line"/>
      <point x="172.25" y="289.5" type="line" smooth="yes"/>
      <point x="160.25" y="289.5"/>
      <point x="155.75" y="288"/>
      <point x="155.75" y="279.5" type="curve" smooth="yes"/>
      <point x="155.75" y="123" type="line" smooth="yes"/>
      <point x="155.75" y="114.5"/>
      <point x="160.25" y="112.5"/>
      <point x="172.25" y="112.5" type="curve" smooth="yes"/>
      <point x="191.25" y="112.5" type="line"/>
      <point x="191.25" y="100.5" type="line"/>
    </contour>
  </outline>
</glyph>
<glyph name="two" format="2">
  <advance width="554"/>
  <unicode hex="0032"/>
  <outline>
    <contour>
      <point x="51.1171" y="378.376" type="curve" smooth="yes"/>
      <point x="51.1171" y="409.719"/>
      <point x="121.798" y="505.646"/>
      <point x="234.184" y="505.646" type="curve" smooth="yes"/>
      <point x="338.02" y="505.646"/>
      <point x="390.476" y="425.877"/>
      <point x="390.476" y="352.885" type="curve" smooth="yes"/>
      <point x="390.476" y="271.789"/>
      <point x="286.326" y="192.972"/>
      <point x="216.322" y="139.995" type="curve" smooth="yes"/>
      <point x="180.886" y="113.179"/>
      <point x="154.2" y="92.984"/>
      <point x="154.2" y="82.4658" type="curve" smooth="yes"/>
      <point x="154.2" y="77.6538"/>
      <point x="160.7" y="75.8496"/>
      <point x="173.066" y="75.8496" type="curve" smooth="yes"/>
      <point x="189.493" y="75.8496"/>
      <point x="221.441" y="79.1364"/>
      <point x="263.514" y="83.4649" type="curve" smooth="yes"/>
      <point x="296.35" y="86.843"/>
      <point x="335.353" y="90.8556"/>
      <point x="377.958" y="94.4355" type="curve" smooth="yes"/>
      <point x="438.872" y="99.5523"/>
      <point x="456.713" y="129.066"/>
      <point x="468.917" y="149.254" type="curve" smooth="yes"/>
      <point x="475.571" y="160.26"/>
      <point x="480.548" y="168.495"/>
      <point x="489.916" y="168.495" type="curve" smooth="yes"/>
      <point x="495.521" y="168.495"/>
      <point x="500" y="164.695"/>
      <point x="500" y="157.866" type="curve" smooth="yes"/>
      <point x="500" y="146.719"/>
      <point x="449.317" y="-19.3096"/>
      <point x="427.713" y="-19.3096" type="curve" smooth="yes"/>
      <point x="422.743" y="-19.3096"/>
      <point x="417.971" y="-17.6056"/>
      <point x="411.26" y="-15.2093" type="curve" smooth="yes"/>
      <point x="397.661" y="-10.3531"/>
      <point x="376.099" y="-2.65348"/>
      <point x="328.785" y="-0.530273" type="curve" smooth="yes"/>
      <point x="306.006" y="0.491758"/>
      <point x="280.022" y="0.841541"/>
      <point x="252.78" y="0.841541" type="curve" smooth="yes"/>
      <point x="222.151" y="0.841541"/>
      <point x="189.932" y="0.399405"/>
      <point x="158.888" y="-0.0265994" type="curve" smooth="yes"/>
      <point x="130.029" y="-0.422613"/>
      <point x="102.187" y="-0.804688"/>
      <point x="77.582" y="-0.804688" type="curve" smooth="yes"/>
      <point x="60.1904" y="-0.804688"/>
      <point x="58.7783" y="0.612305"/>
      <point x="58.7783" y="16.2129" type="curve" smooth="yes"/>
      <point x="58.7783" y="53.9416"/>
      <point x="108.156" y="97.4217"/>
      <point x="161.587" y="144.472" type="curve" smooth="yes"/>
      <point x="224.576" y="199.938"/>
      <point x="293.199" y="260.366"/>
      <point x="293.199" y="322.18" type="curve" smooth="yes"/>
      <point x="293.199" y="371.832"/>
      <point x="257.587" y="435.01"/>
      <point x="192.188" y="435.01" type="curve" smooth="yes"/>
      <point x="135.187" y="435.01"/>
      <point x="112.273" y="403.216"/>
      <point x="95.8712" y="380.459" type="curve" smooth="yes"/>
      <point x="86.7296" y="367.775"/>
      <point x="79.6112" y="357.898"/>
      <point x="69.7418" y="357.898" type="curve" smooth="yes"/>
      <point x="59.5142" y="357.898"/>
      <point x="51.1171" y="367.471"/>
    </contour>
  </outline>
</glyph>
<glyph name="three" format="2">
  <advance width="325"/>
  <unicode hex="0033"/>
  <outline>
    <contour>
      <point x="80.5" y="214.25" type="line"/>
      <point x="96" y="234.25"/>
      <point x="120" y="249.75"/>
      <point x="148" y="249.75" type="curve" smooth="yes"/>
      <point x="182" y="249.75"/>
      <point x="206" y="227.75"/>
      <point x="206" y="197.25" type="curve" smooth="yes"/>
      <point x="206" y="171.25"/>
      <point x="188" y="151.25"/>
      <point x="164.5" y="137.75" type="curve"/>
      <point x="195" y="128.75"/>
      <point x="218" y="103.25"/>
      <point x="218" y="59.25" type="curve" smooth="yes"/>
      <point x="218" y="-9.75"/>
      <point x="162" y="-61.75"/>
      <point x="79" y="-78.75" type="curve"/>
      <point x="74" y="-69.25" type="line"/>
      <point x="141" y="-48.25"/>
      <point x="177" y="-5.75"/>
      <point x="177" y="44.75" type="curve" smooth="yes"/>
      <point x="177" y="89.75"/>
      <point x="148" y="117.75"/>
      <point x="109" y="123.25" type="curve"/>
      <point x="109" y="131.75" type="line"/>
      <point x="136.5" y="139.25"/>
      <point x="165.5" y="158.25"/>
      <point x="165.5" y="187.75" type="curve" smooth="yes"/>
      <point x="165.5" y="212.25"/>
      <point x="146" y="225.25"/>
      <point x="127.5" y="225.25" type="curve" smooth="yes"/>
      <point x="112.5" y="225.25"/>
      <point x="98.5" y="216.25"/>
      <point x="90" y="207.75" type="curve"/>
    </contour>
  </outline>
</glyph>
<glyph name="four" format="2">
  <advance width="478"/>
  <unicode hex="0034"/>
  <outline>
    <contour>
      <point x="291" y="-35.75" type="line" smooth="yes"/>
      <point x="291" y="-42.9951"/>
      <point x="293.925" y="-52.0996"/>
      <point x="294" y="-52.25" type="curve" smooth="yes"/>
      <point x="254.5" y="-74.75" type="line"/>
      <point x="249.5" y="-71.75" type="line"/>
      <point x="250.5" y="-64.75"/>
      <point x="250.5" y="-57.75"/>
      <point x="250.5" y="-50.25" type="curve" smooth="yes"/>
      <point x="250.5" y="53.75" type="line"/>
      <point x="143" y="53.75" type="line" smooth="yes"/>
      <point x="130" y="53.75"/>
      <point x="128.5" y="53.25"/>
      <point x="121" y="48.25" type="curve"/>
      <point x="115" y="52.75" type="line"/>
      <point x="280" y="251.75" type="line"/>
      <point x="291" y="251.75" type="line"/>
      <point x="291" y="80.75" type="line"/>
      <point x="327.5" y="80.75" type="line" smooth="yes"/>
      <point x="338.5" y="80.75"/>
      <point x="352" y="80.75"/>
      <point x="361" y="81.75" type="curve"/>
      <point x="365" y="78.25" type="line"/>
      <point x="351.5" y="52.25" type="line"/>
      <point x="344" y="53.25"/>
      <point x="336" y="53.75"/>
      <point x="323" y="53.75" type="curve" smooth="yes"/>
      <point x="291" y="53.75" type="line"/>
    </contour>
    <contour>
      <point x="250.5" y="80.75" type="line"/>
      <point x="250.5" y="186.75" type="line"/>
      <point x="162" y="80.75" type="line"/>
    </contour>
  </outline>
</glyph>
<glyph name="five" format="2">
  <advance width="424"/>
  <unicode hex="0035"/>
  <outline>
    <contour>
      <point x="299.549" y="377.058" type="curve" smooth="yes"/>
      <point x="279.267" y="377.058"/>
      <point x="247.568" y="384.609"/>
      <point x="222.05" y="390.688" type="curve" smooth="yes"/>
      <point x="204.859" y="394.783"/>
      <point x="190.473" y="398.21"/>
      <point x="184.271" y="398.21" type="curve" smooth="yes"/>
      <point x="160.642" y="398.21"/>
      <point x="126.032" y="350.252"/>
      <point x="120.665" y="321.762" type="curve"/>
      <point x="124.565" y="317.855"/>
      <point x="130.757" y="314.292"/>
      <point x="137.307" y="312.039" type="curve" smooth="yes"/>
      <point x="326.245" y="247.058"/>
      <point x="361.886" y="169.458"/>
      <point x="361.886" y="86.0391" type="curve" smooth="yes"/>
      <point x="361.886" y="-76.8125"/>
      <point x="183.896" y="-183.573"/>
      <point x="58.167" y="-183.573" type="curve" smooth="yes"/>
      <point x="46.3703" y="-183.573"/>
      <point x="41.552" y="-178.655"/>
      <point x="41.552" y="-172.747" type="curve" smooth="yes"/>
      <point x="41.552" y="-165.114"/>
      <point x="49.596" y="-155.827"/>
      <point x="61.0244" y="-153.362" type="curve" smooth="yes"/>
      <point x="192.487" y="-125.003"/>
      <point x="272.296" y="-44.9287"/>
      <point x="272.296" y="44.4971" type="curve" smooth="yes"/>
      <point x="272.296" y="106.915"/>
      <point x="231.659" y="157.895"/>
      <point x="87.0195" y="223.706" type="curve" smooth="yes"/>
      <point x="67.5557" y="232.563"/>
      <point x="56.1562" y="244.009"/>
      <point x="56.1562" y="262.321" type="curve" smooth="yes"/>
      <point x="56.1562" y="289.923"/>
      <point x="131.86" y="449.601"/>
      <point x="174.059" y="481.864" type="curve"/>
      <point x="207.513" y="476.891"/>
      <point x="270.438" y="474.86"/>
      <point x="299.19" y="474.86" type="curve" smooth="yes"/>
      <point x="326.427" y="474.86"/>
      <point x="336.714" y="476.033"/>
      <point x="351.863" y="504.283" type="curve" smooth="yes"/>
      <point x="353.434" y="507.218"/>
      <point x="357.114" y="508.685"/>
      <point x="360.889" y="508.685" type="curve" smooth="yes"/>
      <point x="366.241" y="508.685"/>
      <point x="371.786" y="505.736"/>
      <point x="371.786" y="499.836" type="curve" smooth="yes"/>
      <point x="371.786" y="497.925"/>
      <point x="349.007" y="404.14"/>
      <point x="316.479" y="380.613" type="curve" smooth="yes"/>
      <point x="312.991" y="378.091"/>
      <point x="307.051" y="377.058"/>
    </contour>
  </outline>
</glyph>
<glyph name="six" format="2">
  <advance width="569"/>
  <unicode hex="0036"/>
  <outline>
    <contour>
      <point x="156.744" y="247.492" type="curve"/>
      <point x="156.995" y="134.507"/>
      <point x="210.947" y="21.0811"/>
      <point x="290.577" y="21.0811" type="curve" smooth="yes"/>
      <point x="344.261" y="21.0811"/>
      <point x="399.321" y="64.2734"/>
      <point x="399.321" y="156.413" type="curve" smooth="yes"/>
      <point x="399.321" y="233.618"/>
      <point x="338.672" y="293.14"/>
      <point x="270.308" y="293.14" type="curve" smooth="yes"/>
      <point x="229.719" y="293.14"/>
      <point x="183.362" y="267.435"/>
    </contour>
    <contour>
      <point x="160.899" y="296.894" type="curve"/>
      <point x="254.627" y="349.174"/>
      <point x="275.958" y="361.072"/>
      <point x="318.941" y="361.072" type="curve" smooth="yes"/>
      <point x="415.741" y="361.072"/>
      <point x="490.437" y="290.68"/>
      <point x="490.437" y="192.71" type="curve" smooth="yes"/>
      <point x="490.437" y="76.4492"/>
      <point x="388.666" y="-22.418"/>
      <point x="275.172" y="-22.418" type="curve" smooth="yes"/>
      <point x="158.897" y="-22.418"/>
      <point x="54.2666" y="71.668"/>
      <point x="54.2666" y="218.563" type="curve" smooth="yes"/>
      <point x="54.2666" y="488.847"/>
      <point x="396.364" y="648.101"/>
      <point x="490.878" y="648.101" type="curve" smooth="yes"/>
      <point x="504.252" y="648.101"/>
      <point x="511.017" y="642.721"/>
      <point x="511.017" y="636.327" type="curve" smooth="yes"/>
      <point x="511.017" y="630.169"/>
      <point x="504.742" y="623.069"/>
      <point x="492.052" y="618.927" type="curve" smooth="yes"/>
      <point x="391.264" y="586.017"/>
      <point x="192.105" y="477.142"/>
    </contour>
  </outline>
</glyph>
<glyph name="seven" format="2">
  <advance width="398"/>
  <unicode hex="0037"/>
  <outline>
    <contour>
      <point x="131.25" y="248.5" type="curve"/>
      <point x="301.25" y="248.5" type="line"/>
      <point x="301.25" y="241" type="line"/>
      <point x="248.25" y="130" type="line" smooth="yes"/>
      <point x="216.75" y="63"/>
      <point x="191.25" y="-17"/>
      <point x="184.75" y="-58.5" type="curve"/>
      <point x="153.75" y="-58.5" type="line"/>
      <point x="162.75" y="-17.5"/>
      <point x="190.75" y="47.5"/>
      <point x="228.25" y="126.5" type="curve" smooth="yes"/>
      <point x="270.75" y="216.5" type="line"/>
      <point x="155.75" y="216.5" type="line" smooth="yes"/>
      <point x="142.75" y="216.5"/>
      <point x="136.25" y="215"/>
      <point x="131.75" y="207" type="curve" smooth="yes"/>
      <point x="127.75" y="200.5" type="line"/>
      <point x="119.75" y="200.5" type="line"/>
      <point x="128.25" y="234" type="line"/>
      <point x="128.25" y="234.5" type="line"/>
      <point x="128.634" y="236.421"/>
      <point x="129.092" y="238.269"/>
      <point x="129.539" y="240.07" type="curve" smooth="yes"/>
      <point x="130.255" y="242.958"/>
      <point x="130.942" y="245.729"/>
    </contour>
  </outline>
</glyph>
<glyph name="eight" format="2">
  <advance width="519"/>
  <unicode hex="0038"/>
  <outline>
    <contour>
      <point x="199.408" y="328.282" type="curve"/>
      <point x="146.065" y="361.972"/>
      <point x="86.5684" y="399.549"/>
      <point x="86.5684" y="479.917" type="curve" smooth="yes"/>
      <point x="86.5684" y="523.451"/>
      <point x="117.811" y="576.802"/>
      <point x="155.586" y="599.395" type="curve" smooth="yes"/>
      <point x="175.256" y="611.157"/>
      <point x="265.426" y="643.296"/>
      <point x="292.527" y="643.296" type="curve" smooth="yes"/>
      <point x="376.244" y="643.296"/>
      <point x="453.129" y="588.84"/>
      <point x="453.129" y="502.037" type="curve" smooth="yes"/>
      <point x="453.129" y="467.883"/>
      <point x="435.967" y="428.024"/>
      <point x="412.581" y="410.337" type="curve" smooth="yes"/>
      <point x="406.796" y="405.962"/>
      <point x="399.622" y="400.536"/>
      <point x="391.318" y="394.257" type="curve" smooth="yes"/>
      <point x="377.22" y="383.596"/>
      <point x="359.867" y="370.474"/>
      <point x="340.53" y="355.849" type="curve"/>
      <point x="408.433" y="316.716"/>
      <point x="476.911" y="277.251"/>
      <point x="476.911" y="184.937" type="curve" smooth="yes"/>
      <point x="476.911" y="126.626"/>
      <point x="442.138" y="66.2861"/>
      <point x="405.457" y="39.4785" type="curve" smooth="yes"/>
      <point x="373.19" y="15.8955"/>
      <point x="303.916" y="-22.418"/>
      <point x="239.047" y="-22.418" type="curve" smooth="yes"/>
      <point x="152.567" y="-22.418"/>
      <point x="60.3838" y="54.6074"/>
      <point x="60.3838" y="152.635" type="curve" smooth="yes"/>
      <point x="60.3838" y="206.365"/>
      <point x="94.6191" y="254.259"/>
      <point x="110.748" y="266.856" type="curve" smooth="yes"/>
      <point x="120.177" y="274.219"/>
      <point x="133.353" y="283.178"/>
      <point x="154.202" y="297.354" type="curve" smooth="yes"/>
      <point x="166.388" y="305.64"/>
      <point x="181.195" y="315.708"/>
    </contour>
    <contour>
      <point x="232.922" y="307.368" type="curve"/>
      <point x="186.862" y="275.074"/>
      <point x="150.475" y="243.066"/>
      <point x="150.475" y="177.35" type="curve" smooth="yes"/>
      <point x="150.475" y="92.5713"/>
      <point x="222.273" y="33.1797"/>
      <point x="286.657" y="33.1797" type="curve" smooth="yes"/>
      <point x="336.147" y="33.1797"/>
      <point x="387.889" y="65.1113"/>
      <point x="387.889" y="148.323" type="curve" smooth="yes"/>
      <point x="387.889" y="183.253"/>
      <point x="370.621" y="218.785"/>
      <point x="325.519" y="249.539" type="curve" smooth="yes"/>
      <point x="313.818" y="257.518"/>
      <point x="288.649" y="273.019"/>
      <point x="260.732" y="290.214" type="curve" smooth="yes"/>
      <point x="251.63" y="295.819"/>
      <point x="242.237" y="301.605"/>
    </contour>
    <contour>
      <point x="306.754" y="375.343" type="curve"/>
      <point x="349.108" y="411.73"/>
      <point x="366.154" y="442.195"/>
      <point x="366.154" y="477.162" type="curve" smooth="yes"/>
      <point x="366.154" y="555.839"/>
      <point x="303.112" y="601.307"/>
      <point x="260.861" y="601.307" type="curve" smooth="yes"/>
      <point x="229.866" y="601.307"/>
      <point x="175.529" y="566.865"/>
      <point x="175.529" y="502.188" type="curve" smooth="yes"/>
      <point x="175.529" y="453.057"/>
      <point x="213.903" y="429.222"/>
    </contour>
  </outline>
</glyph>
<glyph name="nine" format="2">
  <advance width="569"/>
  <unicode hex="0039"/>
  <outline>
    <contour>
      <point x="408.553" y="237.914" type="curve" smooth="yes"/>
      <point x="408.655" y="241.053"/>
      <point x="408.706" y="244.208"/>
      <point x="408.706" y="247.38" type="curve" smooth="yes"/>
      <point x="408.706" y="360.626"/>
      <point x="356.461" y="462.147"/>
      <point x="276.646" y="462.147" type="curve" smooth="yes"/>
      <point x="222.963" y="462.147"/>
      <point x="165.324" y="428.363"/>
      <point x="165.324" y="336.224" type="curve" smooth="yes"/>
      <point x="165.324" y="259.019"/>
      <point x="226.644" y="190.109"/>
      <point x="295.009" y="190.109" type="curve" smooth="yes"/>
      <point x="350.675" y="190.109"/>
      <point x="386.329" y="212.29"/>
    </contour>
    <contour>
      <point x="401.19" y="181.628" type="curve"/>
      <point x="308.893" y="132.868"/>
      <point x="300.413" y="128.388"/>
      <point x="257.542" y="128.388" type="curve" smooth="yes"/>
      <point x="160.742" y="128.388"/>
      <point x="74.209" y="201.957"/>
      <point x="74.209" y="299.927" type="curve" smooth="yes"/>
      <point x="74.209" y="416.188"/>
      <point x="178.558" y="505.646"/>
      <point x="292.052" y="505.646" type="curve" smooth="yes"/>
      <point x="408.326" y="505.646"/>
      <point x="512.957" y="411.56"/>
      <point x="512.957" y="264.665" type="curve" smooth="yes"/>
      <point x="512.957" y="-5.61914"/>
      <point x="170.859" y="-164.872"/>
      <point x="76.3457" y="-164.872" type="curve" smooth="yes"/>
      <point x="62.9716" y="-164.872"/>
      <point x="56.2065" y="-159.493"/>
      <point x="56.2065" y="-153.099" type="curve" smooth="yes"/>
      <point x="56.2065" y="-146.941"/>
      <point x="62.4818" y="-139.841"/>
      <point x="75.1719" y="-135.698" type="curve" smooth="yes"/>
      <point x="172.803" y="-103.821"/>
      <point x="361.327" y="9.21425"/>
    </contour>
  </outline>
</glyph>
<glyph name="colon" format="2">
  <advance width="246"/>
  <unicode hex="003A"/>
  <outline>
    <contour>
      <point x="53.6689" y="68.168" type="curve" smooth="yes"/>
      <point x="53.6689" y="106.597"/>
      <point x="84.8213" y="137.75"/>
      <point x="123.25" y="137.75" type="curve" smooth="yes"/>
      <point x="161.679" y="137.75"/>
      <point x="192.832" y="106.597"/>
      <point x="192.832" y="68.168" type="curve" smooth="yes"/>
      <point x="192.832" y="29.7393"/>
      <point x="161.679" y="-1.41309"/>
      <point x="123.25" y="-1.41309" type="curve" smooth="yes"/>
      <point x="84.8213" y="-1.41309"/>
      <point x="53.6689" y="29.7393"/>
    </contour>
    <contour>
      <point x="53.6689" y="358.019" type="curve" smooth="yes"/>
      <point x="53.6689" y="396.447"/>
      <point x="84.8213" y="427.6"/>
      <point x="123.25" y="427.6" type="curve" smooth="yes"/>
      <point x="161.679" y="427.6"/>
      <point x="192.832" y="396.447"/>
      <point x="192.832" y="358.019" type="curve" smooth="yes"/>
      <point x="192.832" y="319.59"/>
      <point x="161.679" y="288.437"/>
      <point x="123.25" y="288.437" type="curve" smooth="yes"/>
      <point x="84.8213" y="288.437"/>
      <point x="53.6689" y="319.59"/>
    </contour>
  </outline>
</glyph>
<glyph name="semicolon" format="2">
  <advance width="178"/>
  <unicode hex="003B"/>
  <outline>
    <contour>
      <point x="121.75" y="223.75" type="curve" smooth="yes"/>
      <point x="121.75" y="207.25"/>
      <point x="108.25" y="194.25"/>
      <point x="91.75" y="194.25" type="curve" smooth="yes"/>
      <point x="75.25" y="194.25"/>
      <point x="61.75" y="207.25"/>
      <point x="61.75" y="223.75" type="curve" smooth="yes"/>
      <point x="61.75" y="240.25"/>
      <point x="75.25" y="253.75"/>
      <point x="91.75" y="253.75" type="curve" smooth="yes"/>
      <point x="108.25" y="253.75"/>
      <point x="121.75" y="240.25"/>
    </contour>
    <contour>
      <point x="88.75" y="112.25" type="curve" smooth="yes"/>
      <point x="113.75" y="112.25"/>
      <point x="126.25" y="95.75"/>
      <point x="126.25" y="68.75" type="curve" smooth="yes"/>
      <point x="126.25" y="39.75"/>
      <point x="106.25" y="12.75"/>
      <point x="71.75" y="-4.75" type="curve"/>
      <point x="60.75" y="7.25" type="line"/>
      <point x="87.25" y="22.75"/>
      <point x="97.75" y="39.25"/>
      <point x="97.75" y="52.25" type="curve" smooth="yes"/>
      <point x="97.75" y="57.75"/>
      <point x="94.75" y="60.25"/>
      <point x="89.75" y="61.25" type="curve" smooth="yes"/>
      <point x="70.25" y="64.75"/>
      <point x="61.75" y="73.75"/>
      <point x="61.75" y="88.25" type="curve" smooth="yes"/>
      <point x="61.75" y="99.75"/>
      <point x="72.75" y="112.25"/>
    </contour>
  </outline>
</glyph>
<glyph name="less" format="2">
  <advance width="424"/>
  <unicode hex="003C"/>
  <outline>
    <contour>
      <point x="111.98" y="203.983" type="line"/>
      <point x="293.479" y="310.915" type="line"/>
      <point x="293.479" y="278.405" type="line"/>
      <point x="156.919" y="199.02" type="line"/>
      <point x="293.479" y="119.633" type="line"/>
      <point x="293.479" y="87.123" type="line"/>
      <point x="111.98" y="194.048" type="line"/>
    </contour>
  </outline>
</glyph>
<glyph name="equal" format="2">
  <advance width="471"/>
  <unicode hex="003D"/>
  <outline>
    <contour>
      <point x="137.145" y="247.846" type="line"/>
      <point x="333.569" y="247.846" type="line"/>
      <point x="333.569" y="220.931" type="line"/>
      <point x="137.145" y="220.931" type="line"/>
    </contour>
    <contour>
      <point x="137.145" y="164.142" type="line"/>
      <point x="333.569" y="164.142" type="line"/>
      <point x="333.569" y="137.227" type="line"/>
      <point x="137.145" y="137.227" type="line"/>
    </contour>
  </outline>
</glyph>
<glyph name="greater" format="2">
  <advance width="424"/>
  <unicode hex="003E"/>
  <outline>
    <contour>
      <point x="312.43" y="203.983" type="line"/>
      <point x="312.43" y="194.048" type="line"/>
      <point x="130.932" y="87.123" type="line"/>
      <point x="130.932" y="119.633" type="line"/>
      <point x="267.491" y="199.02" type="line"/>
      <point x="130.932" y="278.405" type="line"/>
      <point x="130.932" y="310.915" type="line"/>
    </contour>
  </outline>
</glyph>
<glyph name="question" format="2">
  <advance width="379"/>
  <unicode hex="003F"/>
  <outline>
    <contour>
      <point x="185.458" y="253.757" type="curve" smooth="yes"/>
      <point x="185.458" y="251.77"/>
      <point x="185.558" y="248.125"/>
      <point x="185.905" y="237.536" type="curve" smooth="yes"/>
      <point x="186.251" y="226.947"/>
      <point x="186.352" y="223.301"/>
      <point x="186.352" y="221.314" type="curve" smooth="yes"/>
      <point x="186.352" y="208.535"/>
      <point x="177.148" y="193.624"/>
      <point x="166.055" y="193.624" type="curve" smooth="yes"/>
      <point x="157.343" y="193.624"/>
      <point x="148.729" y="199.223"/>
      <point x="146.307" y="213.225" type="curve" smooth="yes"/>
      <point x="142.187" y="237.067"/>
      <point x="122.59" y="327.793"/>
      <point x="113.935" y="358.985" type="curve"/>
      <point x="222.399" y="386.27"/>
      <point x="284.687" y="461.325"/>
      <point x="284.687" y="494.731" type="curve" smooth="yes"/>
      <point x="284.687" y="526.407"/>
      <point x="256.17" y="547.04"/>
      <point x="127.525" y="571.054" type="curve" smooth="yes"/>
      <point x="92.5957" y="577.574"/>
      <point x="63.5879" y="596.165"/>
      <point x="63.5879" y="635.07" type="curve" smooth="yes"/>
      <point x="63.5879" y="650.706"/>
      <point x="77.3076" y="666.388"/>
      <point x="98.0908" y="674.408" type="curve"/>
      <point x="188.093" y="674.408"/>
      <point x="284.891" y="591.927"/>
      <point x="307.768" y="537.904" type="curve" smooth="yes"/>
      <point x="317.5" y="514.928"/>
      <point x="323.593" y="470.896"/>
      <point x="323.593" y="443.613" type="curve" smooth="yes"/>
      <point x="323.593" y="382.219"/>
      <point x="303.682" y="338.633"/>
      <point x="198.672" y="293.998" type="curve" smooth="yes"/>
      <point x="187.852" y="289.4"/>
      <point x="185.458" y="274.903"/>
    </contour>
    <contour>
      <point x="95.7578" y="68.166" type="curve" smooth="yes"/>
      <point x="95.7578" y="106.595"/>
      <point x="126.91" y="137.747"/>
      <point x="165.339" y="137.747" type="curve" smooth="yes"/>
      <point x="203.768" y="137.747"/>
      <point x="234.92" y="106.595"/>
      <point x="234.92" y="68.166" type="curve" smooth="yes"/>
      <point x="234.92" y="29.7373"/>
      <point x="203.768" y="-1.41504"/>
      <point x="165.339" y="-1.41504" type="curve" smooth="yes"/>
      <point x="126.91" y="-1.41504"/>
      <point x="95.7578" y="29.7373"/>
    </contour>
  </outline>
</glyph>
<glyph name="at" format="2">
  <advance width="784"/>
  <unicode hex="0040"/>
  <outline>
    <contour>
      <point x="392.874" y="371.396" type="curve" smooth="yes"/>
      <point x="432.372" y="371.396"/>
      <point x="469.777" y="360.426"/>
      <point x="507.183" y="329.792" type="curve"/>
      <point x="493.33" y="317.897" type="line"/>
      <point x="460.283" y="345.897"/>
      <point x="426.409" y="356.669"/>
      <point x="392.26" y="356.669" type="curve" smooth="yes"/>
      <point x="315.032" y="356.669"/>
      <point x="235.05" y="295.896"/>
      <point x="235.05" y="196.41" type="curve" smooth="yes"/>
      <point x="235.05" y="96.9248"/>
      <point x="315.382" y="37.5996"/>
      <point x="391.881" y="37.5996" type="curve" smooth="yes"/>
      <point x="468.384" y="37.5996"/>
      <point x="548.712" y="96.1768"/>
      <point x="548.712" y="196.41" type="curve" smooth="yes"/>
      <point x="548.712" y="251.421"/>
      <point x="517.11" y="281.921"/>
      <point x="465.282" y="281.921" type="curve" smooth="yes"/>
      <point x="372.33" y="281.921" type="line"/>
      <point x="389.743" y="279.24"/>
      <point x="406.804" y="274.746"/>
      <point x="429.974" y="268.538" type="curve" smooth="yes"/>
      <point x="474.596" y="256.583"/>
      <point x="496.1" y="227.53"/>
      <point x="496.1" y="191.852" type="curve" smooth="yes"/>
      <point x="496.1" y="142.023"/>
      <point x="457.635" y="97.4014"/>
      <point x="393.193" y="97.4014" type="curve" smooth="yes"/>
      <point x="334.094" y="97.4014"/>
      <point x="295.184" y="137.123"/>
      <point x="295.184" y="180.316" type="curve" smooth="yes"/>
      <point x="295.184" y="225.465"/>
      <point x="329.188" y="247.894"/>
      <point x="361.856" y="247.894" type="curve" smooth="yes"/>
      <point x="384.292" y="247.894"/>
      <point x="406.096" y="237.315"/>
      <point x="415.823" y="216.254" type="curve"/>
      <point x="403.854" y="208.883" type="line"/>
      <point x="397.448" y="218.799"/>
      <point x="384.989" y="224.646"/>
      <point x="372.59" y="224.646" type="curve" smooth="yes"/>
      <point x="355.056" y="224.646"/>
      <point x="337.644" y="212.952"/>
      <point x="337.644" y="184.528" type="curve" smooth="yes"/>
      <point x="337.644" y="138.291"/>
      <point x="376.667" y="117.152"/>
      <point x="401.059" y="117.152" type="curve" smooth="yes"/>
      <point x="435.881" y="117.152"/>
      <point x="454.479" y="141.349"/>
      <point x="454.479" y="176.58" type="curve" smooth="yes"/>
      <point x="454.479" y="233.195"/>
      <point x="414.744" y="243.645"/>
      <point x="355.404" y="259.25" type="curve" smooth="yes"/>
      <point x="331.204" y="265.613"/>
      <point x="304.901" y="272.53"/>
      <point x="276.726" y="281.921" type="curve"/>
      <point x="276.726" y="287.761" type="line"/>
      <point x="313.719" y="301.673" type="line"/>
      <point x="321.227" y="300.706"/>
      <point x="334.178" y="299.867"/>
      <point x="345.258" y="299.867" type="curve" smooth="yes"/>
      <point x="460.456" y="299.867" type="line" smooth="yes"/>
      <point x="526.196" y="299.867"/>
      <point x="567.725" y="266.27"/>
      <point x="567.725" y="196.748" type="curve" smooth="yes"/>
      <point x="567.725" y="99.0625"/>
      <point x="492.249" y="22.9688"/>
      <point x="392.208" y="22.9688" type="curve" smooth="yes"/>
      <point x="292.167" y="22.9688"/>
      <point x="216.04" y="98.3438"/>
      <point x="216.04" y="196.748" type="curve" smooth="yes"/>
      <point x="216.04" y="295.152"/>
      <point x="292.09" y="371.396"/>
    </contour>
  </outline>
</glyph>
<glyph name="bracketleft" format="2">
  <advance width="310"/>
  <unicode hex="005B"/>
  <outline>
    <contour>
      <point x="130.161" y="390.535" type="line"/>
      <point x="144.393" y="389.562"/>
      <point x="171.098" y="388.589"/>
      <point x="203.104" y="388.589" type="curve" smooth="yes"/>
      <point x="232.283" y="388.589" type="line"/>
      <point x="232.283" y="372.589" type="line"/>
      <point x="170.792" y="370.764" type="line"/>
      <point x="170.792" y="6.15527" type="line"/>
      <point x="232.283" y="4.33008" type="line"/>
      <point x="232.283" y="-11.6689" type="line"/>
      <point x="203.104" y="-11.6689" type="line" smooth="yes"/>
      <point x="171.098" y="-11.6689"/>
      <point x="144.396" y="-12.6426"/>
      <point x="130.161" y="-13.6162" type="curve"/>
    </contour>
  </outline>
</glyph>
<glyph name="backslash" format="2">
  <advance width="217"/>
  <unicode hex="005C"/>
  <outline>
    <contour>
      <point x="81.8848" y="441.538" type="line"/>
      <point x="162.481" y="147.18" type="line"/>
      <point x="134.758" y="147.18" type="line"/>
      <point x="54.1602" y="441.538" type="line"/>
    </contour>
  </outline>
</glyph>
<glyph name="bracketright" format="2">
  <advance width="310"/>
  <unicode hex="005D"/>
  <outline>
    <contour>
      <point x="180.286" y="390.535" type="curve"/>
      <point x="180.286" y="-13.6162" type="line"/>
      <point x="166.051" y="-12.6426"/>
      <point x="139.35" y="-11.6689"/>
      <point x="107.344" y="-11.6689" type="curve" smooth="yes"/>
      <point x="78.1641" y="-11.6689" type="line"/>
      <point x="78.1641" y="4.33008" type="line"/>
      <point x="139.655" y="6.15527" type="line"/>
      <point x="139.655" y="370.764" type="line"/>
      <point x="78.1641" y="372.589" type="line"/>
      <point x="78.1641" y="388.589" type="line"/>
      <point x="107.344" y="388.589" type="line" smooth="yes"/>
      <point x="139.35" y="388.589"/>
      <point x="166.055" y="389.562"/>
    </contour>
  </outline>
</glyph>
<glyph name="asciicircum" format="2">
  <advance width="395"/>
  <unicode hex="005E"/>
  <outline>
    <contour>
      <point x="182.739" y="528.885" type="line"/>
      <point x="212.147" y="528.885" type="line"/>
      <point x="281.698" y="409.219" type="line"/>
      <point x="250.344" y="409.219" type="line"/>
      <point x="197.441" y="502.858" type="line"/>
      <point x="144.539" y="409.219" type="line"/>
      <point x="113.188" y="409.219" type="line"/>
    </contour>
  </outline>
</glyph>
<glyph name="underscore" format="2">
  <advance width="781"/>
  <unicode hex="005F"/>
  <outline>
    <contour>
      <point x="195.21" y="-157.824" type="line"/>
      <point x="585.613" y="-157.824" type="line"/>
      <point x="585.613" y="-188.631" type="line"/>
      <point x="195.21" y="-188.631" type="line"/>
    </contour>
  </outline>
</glyph>
<glyph name="grave" format="2">
  <advance width="309"/>
  <unicode hex="0060"/>
  <outline>
    <contour>
      <point x="186.27" y="505.947" type="line"/>
      <point x="110.407" y="583.121" type="line" smooth="yes"/>
      <point x="110.132" y="583.828"/>
      <point x="110" y="584.498"/>
      <point x="110" y="585.134" type="curve" smooth="yes"/>
      <point x="110" y="591.313"/>
      <point x="122.443" y="594.139"/>
      <point x="135.623" y="594.139" type="curve" smooth="yes"/>
      <point x="149.146" y="594.139"/>
      <point x="163.442" y="591.164"/>
      <point x="165.866" y="585.787" type="curve" smooth="yes"/>
      <point x="201.841" y="505.947" type="line"/>
    </contour>
  </outline>
</glyph>
<glyph name="a" format="2">
  <advance width="887"/>
  <unicode hex="0061"/>
  <outline>
    <contour>
      <point x="377.305" y="677.423" type="curve" smooth="yes"/>
      <point x="355.527" y="677.423"/>
      <point x="358.058" y="674.893"/>
      <point x="351.131" y="674.893" type="curve" smooth="yes"/>
      <point x="347.503" y="674.893"/>
      <point x="343.304" y="676.186"/>
      <point x="343.304" y="682.202" type="curve" smooth="yes"/>
      <point x="343.304" y="690.379"/>
      <point x="343.304" y="696.002"/>
      <point x="437.151" y="728.913" type="curve"/>
      <point x="494.318" y="728.913"/>
      <point x="561.386" y="699.972"/>
      <point x="561.386" y="620.271" type="curve" smooth="yes"/>
      <point x="561.386" y="552.476"/>
      <point x="505.042" y="506.811"/>
      <point x="448.018" y="487.052" type="curve"/>
      <point x="448.018" y="483.096" type="line"/>
      <point x="717.092" y="483.096" type="line" smooth="yes"/>
      <point x="756.152" y="483.096"/>
      <point x="807.855" y="490.891"/>
      <point x="868.82" y="499.894" type="curve"/>
      <point x="858.609" y="462.148"/>
      <point x="834.901" y="418.543"/>
      <point x="812.225" y="418.543" type="curve" smooth="yes"/>
      <point x="794.445" y="418.543"/>
      <point x="746.832" y="440.025"/>
      <point x="645.403" y="440.025" type="curve" smooth="yes"/>
      <point x="630.406" y="440.025" type="line"/>
      <point x="690.486" y="399.691"/>
      <point x="725.473" y="332.755"/>
      <point x="725.473" y="246.604" type="curve" smooth="yes"/>
      <point x="725.473" y="107.287"/>
      <point x="625.721" y="-22.3877"/>
      <point x="445.413" y="-22.3877" type="curve" smooth="yes"/>
      <point x="296.591" y="-22.3877"/>
      <point x="177.068" y="78.0615"/>
      <point x="177.068" y="230.495" type="curve" smooth="yes"/>
      <point x="177.068" y="343.847"/>
      <point x="241.308" y="414.418"/>
      <point x="313.938" y="440.025" type="curve"/>
      <point x="70.3848" y="440.025" type="line" smooth="yes"/>
      <point x="34.2783" y="440.025"/>
      <point x="26.3701" y="442.705"/>
      <point x="26.3701" y="449.533" type="curve" smooth="yes"/>
      <point x="26.3701" y="463.736"/>
      <point x="82.4131" y="520.692"/>
      <point x="137.068" y="563.429" type="curve"/>
      <point x="208.885" y="483.096" type="line"/>
      <point x="311.325" y="483.096" type="line" smooth="yes"/>
      <point x="398.142" y="483.096"/>
      <point x="460.691" y="520.597"/>
      <point x="460.691" y="600.161" type="curve" smooth="yes"/>
      <point x="460.691" y="645.008"/>
      <point x="422.611" y="677.423"/>
    </contour>
    <contour>
      <point x="435.691" y="440.025" type="curve" smooth="yes"/>
      <point x="351.13" y="440.025"/>
      <point x="279.045" y="379.259"/>
      <point x="279.045" y="254.154" type="curve" smooth="yes"/>
      <point x="279.045" y="108.898"/>
      <point x="368.74" y="24.1631"/>
      <point x="463.232" y="24.1631" type="curve" smooth="yes"/>
      <point x="551.813" y="24.1631"/>
      <point x="622.558" y="106.452"/>
      <point x="622.558" y="219.971" type="curve" smooth="yes"/>
      <point x="622.558" y="351.599"/>
      <point x="545.132" y="440.025"/>
    </contour>
  </outline>
</glyph>
<glyph name="b" format="2">
  <advance width="533"/>
  <unicode hex="0062"/>
  <outline>
    <contour>
      <point x="340.102" y="51.7568" type="curve" smooth="yes"/>
      <point x="401.72" y="51.7568"/>
      <point x="443.981" y="84.9443"/>
      <point x="469.708" y="105.147" type="curve" smooth="yes"/>
      <point x="480.965" y="113.987"/>
      <point x="489.056" y="120.341"/>
      <point x="494.217" y="120.341" type="curve" smooth="yes"/>
      <point x="502.965" y="120.341"/>
      <point x="511.566" y="113.823"/>
      <point x="511.566" y="105.026" type="curve" smooth="yes"/>
      <point x="511.566" y="85.1693"/>
      <point x="407.213" y="9.52253"/>
      <point x="406.05" y="8.69238" type="curve" smooth="yes"/>
      <point x="405.527" y="8.31928"/>
      <point x="404.988" y="7.93192"/>
      <point x="404.432" y="7.53183" type="curve" smooth="yes"/>
      <point x="389.769" y="-3.01126"/>
      <point x="362.818" y="-22.3887"/>
      <point x="294.873" y="-22.3887" type="curve" smooth="yes"/>
      <point x="169.043" y="-22.3887"/>
      <point x="45.4043" y="73.4453"/>
      <point x="45.4043" y="245.484" type="curve" smooth="yes"/>
      <point x="45.4043" y="386.142"/>
      <point x="145.215" y="435.943"/>
      <point x="166.612" y="445.916" type="curve" smooth="yes"/>
      <point x="184.144" y="454.088"/>
      <point x="237.408" y="475.406"/>
      <point x="272.837" y="488.532" type="curve" smooth="yes"/>
      <point x="300.759" y="498.877"/>
      <point x="326.23" y="505.837"/>
      <point x="354.843" y="505.837" type="curve" smooth="yes"/>
      <point x="420.128" y="505.837"/>
      <point x="472.296" y="477.377"/>
      <point x="472.296" y="455.844" type="curve" smooth="yes"/>
      <point x="472.296" y="439.308"/>
      <point x="448.104" y="423.631"/>
      <point x="399.882" y="402.798" type="curve"/>
      <point x="366.357" y="437.692"/>
      <point x="333.716" y="448.224"/>
      <point x="292.875" y="448.224" type="curve" smooth="yes"/>
      <point x="230.017" y="448.224"/>
      <point x="140.845" y="402.115"/>
      <point x="140.845" y="269.05" type="curve" smooth="yes"/>
      <point x="140.845" y="124.415"/>
      <point x="242.18" y="51.7568"/>
    </contour>
    <contour>
      <point x="402.937" y="236.939" type="curve" smooth="yes"/>
      <point x="402.775" y="236.939"/>
      <point x="401.453" y="237.219"/>
      <point x="399.159" y="237.705" type="curve" smooth="yes"/>
      <point x="384.083" y="240.901"/>
      <point x="327.001" y="253"/>
      <point x="281" y="253" type="curve" smooth="yes"/>
      <point x="212" y="253" type="line" smooth="yes"/>
      <point x="189" y="253"/>
      <point x="169.725" y="257.978"/>
      <point x="169.725" y="267.676" type="curve" smooth="yes"/>
      <point x="169.725" y="272.897"/>
      <point x="173.055" y="276.559"/>
      <point x="192.348" y="285.027" type="curve" smooth="yes"/>
      <point x="211.827" y="293.579"/>
      <point x="233.212" y="296.497"/>
      <point x="286.027" y="296.497" type="curve" smooth="yes"/>
      <point x="366.882" y="296.497"/>
      <point x="445.04" y="307.161"/>
      <point x="450.918" y="308.09" type="curve"/>
      <point x="437.092" y="266.677"/>
      <point x="419.773" y="236.939"/>
    </contour>
  </outline>
</glyph>
<glyph name="c" format="2">
  <advance width="572"/>
  <unicode hex="0063"/>
  <outline>
    <contour>
      <point x="20.7285" y="363.027" type="curve" smooth="yes"/>
      <point x="20.7285" y="425.88"/>
      <point x="185.632" y="505.59"/>
      <point x="289.228" y="505.59" type="curve" smooth="yes"/>
      <point x="405.213" y="505.59"/>
      <point x="534.562" y="416.802"/>
      <point x="534.562" y="264.45" type="curve" smooth="yes"/>
      <point x="534.562" y="114.372"/>
      <point x="430.914" y="13.5264"/>
      <point x="291.51" y="-17.9922" type="curve"/>
      <point x="289.273" y="-42.248"/>
      <point x="287.496" y="-69.7393"/>
      <point x="287.496" y="-105.729" type="curve" smooth="yes"/>
      <point x="287.496" y="-145.662"/>
      <point x="290.39" y="-193.362"/>
      <point x="292.106" y="-221.66" type="curve" smooth="yes"/>
      <point x="292.83" y="-233.593"/>
      <point x="293.345" y="-242.076"/>
      <point x="293.345" y="-245.071" type="curve" smooth="yes"/>
      <point x="293.345" y="-263.033"/>
      <point x="245.566" y="-268.899"/>
      <point x="219.713" y="-268.899" type="curve" smooth="yes"/>
      <point x="193.381" y="-268.899"/>
      <point x="186.469" y="-263.433"/>
      <point x="186.469" y="-255.834" type="curve" smooth="yes"/>
      <point x="186.469" y="-253.935"/>
      <point x="186.634" y="-250.099"/>
      <point x="186.895" y="-244.018" type="curve" smooth="yes"/>
      <point x="187.895" y="-220.764"/>
      <point x="190.306" y="-164.674"/>
      <point x="190.306" y="-58.4883" type="curve"/>
      <point x="156.949" y="-45.8779"/>
      <point x="138.275" y="-31.1807"/>
      <point x="138.275" y="-19.0723" type="curve" smooth="yes"/>
      <point x="138.275" y="-9.43555"/>
      <point x="148.423" y="-3.07422"/>
      <point x="190.823" y="0.743164" type="curve" smooth="yes"/>
      <point x="325.196" y="12.8389"/>
      <point x="431.918" y="108.087"/>
      <point x="431.918" y="242.169" type="curve" smooth="yes"/>
      <point x="431.918" y="378.652"/>
      <point x="332.989" y="455.24"/>
      <point x="230.972" y="455.24" type="curve" smooth="yes"/>
      <point x="187.082" y="455.24"/>
      <point x="144.127" y="439.743"/>
      <point x="119.241" y="369.967" type="curve"/>
      <point x="63.6309" y="350.751"/>
      <point x="47.0391" y="346.2"/>
      <point x="38.082" y="346.2" type="curve" smooth="yes"/>
      <point x="26.4541" y="346.2"/>
      <point x="20.7285" y="351.629"/>
    </contour>
  </outline>
</glyph>
<glyph name="d" format="2">
  <advance width="632"/>
  <unicode hex="0064"/>
  <outline>
    <contour>
      <point x="304.931" y="452.046" type="curve" smooth="yes"/>
      <point x="230.574" y="452.046"/>
      <point x="140.282" y="393.435"/>
      <point x="140.282" y="265.56" type="curve" smooth="yes"/>
      <point x="140.282" y="106.144"/>
      <point x="239.701" y="31.2256"/>
      <point x="323.243" y="31.2256" type="curve" smooth="yes"/>
      <point x="407.755" y="31.2256"/>
      <point x="491.742" y="103.088"/>
      <point x="491.742" y="230.688" type="curve" smooth="yes"/>
      <point x="491.742" y="379.625"/>
      <point x="402.361" y="452.046"/>
    </contour>
    <contour>
      <point x="399" y="483.792" type="line"/>
      <point x="351.621" y="513.624"/>
      <point x="237.671" y="530.17"/>
      <point x="156.131" y="542.01" type="curve" smooth="yes"/>
      <point x="104.155" y="549.557"/>
      <point x="65.3477" y="555.192"/>
      <point x="65.3477" y="561.137" type="curve" smooth="yes"/>
      <point x="65.3477" y="571.089"/>
      <point x="79.6481" y="574.694"/>
      <point x="102.601" y="580.479" type="curve" smooth="yes"/>
      <point x="127.768" y="586.823"/>
      <point x="163.337" y="595.788"/>
      <point x="201.862" y="618.618" type="curve"/>
      <point x="257.745" y="593.805"/>
      <point x="279.476" y="586.142"/>
      <point x="308.023" y="576.077" type="curve" smooth="yes"/>
      <point x="320.945" y="571.521"/>
      <point x="335.264" y="566.472"/>
      <point x="354.779" y="559.117" type="curve" smooth="yes"/>
      <point x="503.914" y="502.911"/>
      <point x="593.892" y="412.106"/>
      <point x="593.892" y="264.343" type="curve" smooth="yes"/>
      <point x="593.892" y="86.0205"/>
      <point x="458.998" y="-22.5752"/>
      <point x="312.938" y="-22.5752" type="curve" smooth="yes"/>
      <point x="166.086" y="-22.5752"/>
      <point x="38.0889" y="71.5586"/>
      <point x="38.0889" y="231.919" type="curve" smooth="yes"/>
      <point x="38.0889" y="398.479"/>
      <point x="153.462" y="496.94"/>
      <point x="311.561" y="496.94" type="curve" smooth="yes"/>
      <point x="328.825" y="496.94"/>
      <point x="362.473" y="493.441"/>
      <point x="397" y="480.275" type="curve"/>
    </contour>
  </outline>
</glyph>
<glyph name="e" format="2">
  <advance width="529"/>
  <unicode hex="0065"/>
  <outline>
    <contour>
      <point x="473.256" y="287.855" type="curve" smooth="yes"/>
      <point x="465.55" y="287.855"/>
      <point x="443.743" y="303.687"/>
      <point x="405.854" y="303.687" type="curve" smooth="yes"/>
      <point x="351.626" y="303.687"/>
      <point x="246.389" y="227.875"/>
      <point x="160.372" y="27.8184" type="curve" smooth="yes"/>
      <point x="146.329" y="-4.84375"/>
      <point x="120.352" y="-17.5273"/>
      <point x="96.0938" y="-17.5273" type="curve" smooth="yes"/>
      <point x="74.5137" y="-17.5273"/>
      <point x="49.4355" y="-1.88477"/>
      <point x="49.4355" y="37.7324" type="curve" smooth="yes"/>
      <point x="49.4355" y="152.749"/>
      <point x="223.66" y="274.786"/>
      <point x="337.255" y="317.668" type="curve"/>
      <point x="256.387" y="342.838"/>
      <point x="168.768" y="378.971"/>
      <point x="96.3838" y="442.967" type="curve"/>
      <point x="39.5654" y="443.357"/>
      <point x="31.3105" y="453.931"/>
      <point x="31.3105" y="463.115" type="curve" smooth="yes"/>
      <point x="31.3105" y="476.771"/>
      <point x="94.0225" y="499.152"/>
      <point x="186.566" y="531.223" type="curve"/>
      <point x="227.01" y="413.293"/>
      <point x="337.156" y="351.779"/>
      <point x="394.653" y="333.53" type="curve"/>
      <point x="416.522" y="333.53"/>
      <point x="466.7" y="339.189"/>
      <point x="519.164" y="354.7" type="curve"/>
      <point x="511.927" y="330.324"/>
      <point x="491.379" y="287.855"/>
    </contour>
  </outline>
</glyph>
<glyph name="f" format="2">
  <advance width="853"/>
  <unicode hex="0066"/>
  <outline>
    <contour>
      <point x="168.144" y="326.67" type="curve" smooth="yes"/>
      <point x="167.624" y="268.254"/>
      <point x="167.369" y="193.693"/>
      <point x="167.369" y="98.9688" type="curve" smooth="yes"/>
      <point x="167.369" y="-92.793"/>
      <point x="172.374" y="-206.663"/>
      <point x="172.374" y="-243.242" type="curve" smooth="yes"/>
      <point x="172.374" y="-259.458"/>
      <point x="127.92" y="-271"/>
      <point x="103.082" y="-271" type="curve" smooth="yes"/>
      <point x="78.8789" y="-271"/>
      <point x="66.1914" y="-268.979"/>
      <point x="66.1914" y="-259.918" type="curve" smooth="yes"/>
      <point x="66.1914" y="-246.979"/>
      <point x="69.8594" y="-143.712"/>
      <point x="69.8594" y="257.937" type="curve" smooth="yes"/>
      <point x="69.8594" y="427.384" type="line"/>
      <point x="27.5" y="443.079"/>
      <point x="8.46973" y="449.171"/>
      <point x="8.46973" y="465.091" type="curve" smooth="yes"/>
      <point x="8.46973" y="479.067"/>
      <point x="8.46973" y="499.078"/>
      <point x="173.381" y="506.559" type="curve"/>
      <point x="171.024" y="483.997"/>
      <point x="169.386" y="438.528"/>
      <point x="168.422" y="354.126" type="curve"/>
      <point x="193.814" y="359.603"/>
      <point x="215.929" y="362.096"/>
      <point x="235.555" y="362.096" type="curve" smooth="yes"/>
      <point x="257.793" y="362.096"/>
      <point x="276.836" y="358.895"/>
      <point x="293.827" y="353.204" type="curve"/>
      <point x="340.262" y="445.726"/>
      <point x="436.371" y="505.649"/>
      <point x="542.787" y="505.649" type="curve" smooth="yes"/>
      <point x="694.857" y="505.649"/>
      <point x="814.794" y="408.332"/>
      <point x="814.794" y="251.949" type="curve" smooth="yes"/>
      <point x="814.794" y="73.6279"/>
      <point x="679.9" y="-22.5762"/>
      <point x="533.841" y="-22.5762" type="curve" smooth="yes"/>
      <point x="432.235" y="-22.5762"/>
      <point x="317.192" y="43.4971"/>
      <point x="267.951" y="204.03" type="curve" smooth="yes"/>
      <point x="239.752" y="295.962"/>
      <point x="221.742" y="326.703"/>
      <point x="171.263" y="326.703" type="curve" smooth="yes"/>
      <point x="170.201" y="326.703"/>
      <point x="169.159" y="326.67"/>
    </contour>
    <contour>
      <point x="525.835" y="452.045" type="curve" smooth="yes"/>
      <point x="451.478" y="452.045"/>
      <point x="361.186" y="397.996"/>
      <point x="361.186" y="270.12" type="curve" smooth="yes"/>
      <point x="361.186" y="110.704"/>
      <point x="460.609" y="31.2246"/>
      <point x="544.151" y="31.2246" type="curve" smooth="yes"/>
      <point x="628.662" y="31.2246"/>
      <point x="712.645" y="90.6953"/>
      <point x="712.645" y="218.295" type="curve" smooth="yes"/>
      <point x="712.645" y="367.232"/>
      <point x="623.265" y="452.045"/>
    </contour>
  </outline>
</glyph>
<glyph name="g" format="2">
  <advance width="572"/>
  <unicode hex="0067"/>
  <outline>
    <contour>
      <point x="314.219" y="663.018" type="curve" smooth="yes"/>
      <point x="314.219" y="626.62"/>
      <point x="284.668" y="597.069"/>
      <point x="248.271" y="597.069" type="curve" smooth="yes"/>
      <point x="211.873" y="597.07"/>
      <point x="182.323" y="626.62"/>
      <point x="182.322" y="663.018" type="curve" smooth="yes"/>
      <point x="182.322" y="699.415"/>
      <point x="211.873" y="728.966"/>
      <point x="248.271" y="728.966" type="curve" smooth="yes"/>
      <point x="284.668" y="728.966"/>
      <point x="314.219" y="699.415"/>
    </contour>
    <contour>
      <point x="20.7285" y="363.027" type="curve" smooth="yes"/>
      <point x="20.7285" y="425.88"/>
      <point x="185.632" y="505.59"/>
      <point x="289.228" y="505.59" type="curve" smooth="yes"/>
      <point x="405.213" y="505.59"/>
      <point x="534.562" y="416.802"/>
      <point x="534.562" y="264.45" type="curve" smooth="yes"/>
      <point x="534.562" y="114.372"/>
      <point x="430.915" y="13.5264"/>
      <point x="291.511" y="-17.9922" type="curve"/>
      <point x="289.274" y="-42.248"/>
      <point x="287.496" y="-69.7393"/>
      <point x="287.496" y="-105.729" type="curve" smooth="yes"/>
      <point x="287.496" y="-153.8"/>
      <point x="293.345" y="-243.677"/>
      <point x="293.345" y="-245.071" type="curve" smooth="yes"/>
      <point x="293.345" y="-263.033"/>
      <point x="245.567" y="-268.899"/>
      <point x="219.713" y="-268.899" type="curve" smooth="yes"/>
      <point x="193.382" y="-268.899"/>
      <point x="186.469" y="-263.433"/>
      <point x="186.469" y="-255.834" type="curve" smooth="yes"/>
      <point x="186.469" y="-253.86"/>
      <point x="190.306" y="-185.255"/>
      <point x="190.306" y="-58.4883" type="curve"/>
      <point x="156.95" y="-45.8779"/>
      <point x="138.275" y="-31.1807"/>
      <point x="138.275" y="-19.0723" type="curve" smooth="yes"/>
      <point x="138.275" y="-9.43555"/>
      <point x="148.423" y="-3.07422"/>
      <point x="190.823" y="0.743164" type="curve" smooth="yes"/>
      <point x="325.196" y="12.8379"/>
      <point x="431.918" y="108.087"/>
      <point x="431.918" y="242.169" type="curve" smooth="yes"/>
      <point x="431.918" y="378.652"/>
      <point x="332.99" y="455.24"/>
      <point x="230.973" y="455.24" type="curve" smooth="yes"/>
      <point x="187.082" y="455.24"/>
      <point x="144.128" y="439.743"/>
      <point x="119.241" y="369.967" type="curve"/>
      <point x="63.6309" y="350.751"/>
      <point x="47.0391" y="346.2"/>
      <point x="38.083" y="346.2" type="curve" smooth="yes"/>
      <point x="26.4541" y="346.2"/>
      <point x="20.7285" y="351.629"/>
    </contour>
  </outline>
</glyph>
<glyph name="h" format="2">
  <advance width="853"/>
  <unicode hex="0068"/>
  <outline>
    <contour>
      <point x="599.004" y="-157.315" type="curve" smooth="yes"/>
      <point x="599.004" y="-193.713"/>
      <point x="569.454" y="-223.263"/>
      <point x="533.057" y="-223.263" type="curve" smooth="yes"/>
      <point x="496.659" y="-223.263"/>
      <point x="467.108" y="-193.713"/>
      <point x="467.108" y="-157.315" type="curve" smooth="yes"/>
      <point x="467.108" y="-120.918"/>
      <point x="496.659" y="-91.3672"/>
      <point x="533.057" y="-91.3672" type="curve" smooth="yes"/>
      <point x="569.454" y="-91.3672"/>
      <point x="599.004" y="-120.918"/>
    </contour>
    <contour>
      <point x="525.834" y="452.045" type="curve" smooth="yes"/>
      <point x="451.478" y="452.045"/>
      <point x="361.186" y="397.996"/>
      <point x="361.186" y="270.12" type="curve" smooth="yes"/>
      <point x="361.186" y="110.704"/>
      <point x="460.609" y="31.2236"/>
      <point x="544.151" y="31.2236" type="curve" smooth="yes"/>
      <point x="628.662" y="31.2236"/>
      <point x="712.645" y="90.6953"/>
      <point x="712.645" y="218.295" type="curve" smooth="yes"/>
      <point x="712.645" y="367.231"/>
      <point x="623.265" y="452.045"/>
    </contour>
    <contour>
      <point x="168.144" y="326.67" type="curve" smooth="yes"/>
      <point x="167.624" y="268.254"/>
      <point x="167.369" y="193.693"/>
      <point x="167.369" y="98.9688" type="curve" smooth="yes"/>
      <point x="167.369" y="-34.5001"/>
      <point x="169.793" y="-130.235"/>
      <point x="171.267" y="-188.44" type="curve" smooth="yes"/>
      <point x="171.911" y="-213.861"/>
      <point x="172.373" y="-232.123"/>
      <point x="172.373" y="-243.242" type="curve" smooth="yes"/>
      <point x="172.373" y="-259.458"/>
      <point x="127.92" y="-271"/>
      <point x="103.082" y="-271" type="curve" smooth="yes"/>
      <point x="78.8779" y="-271"/>
      <point x="66.1904" y="-268.979"/>
      <point x="66.1904" y="-259.918" type="curve" smooth="yes"/>
      <point x="66.1904" y="-257.949"/>
      <point x="66.2754" y="-253.889"/>
      <point x="66.4194" y="-247.003" type="curve" smooth="yes"/>
      <point x="67.2221" y="-208.642"/>
      <point x="69.8594" y="-82.5933"/>
      <point x="69.8594" y="257.937" type="curve" smooth="yes"/>
      <point x="69.8594" y="427.384" type="line"/>
      <point x="67.5101" y="428.254"/>
      <point x="65.2325" y="429.095"/>
      <point x="63.026" y="429.91" type="curve" smooth="yes"/>
      <point x="25.4476" y="443.785"/>
      <point x="8.46973" y="450.054"/>
      <point x="8.46973" y="465.091" type="curve" smooth="yes"/>
      <point x="8.46973" y="479.067"/>
      <point x="8.46973" y="499.078"/>
      <point x="173.381" y="506.559" type="curve"/>
      <point x="171.024" y="483.997"/>
      <point x="169.386" y="438.528"/>
      <point x="168.422" y="354.127" type="curve"/>
      <point x="193.813" y="359.603"/>
      <point x="215.928" y="362.096"/>
      <point x="235.555" y="362.096" type="curve" smooth="yes"/>
      <point x="257.793" y="362.096"/>
      <point x="276.836" y="358.895"/>
      <point x="293.827" y="353.204" type="curve"/>
      <point x="340.262" y="445.726"/>
      <point x="436.37" y="505.649"/>
      <point x="542.787" y="505.649" type="curve" smooth="yes"/>
      <point x="694.857" y="505.649"/>
      <point x="814.794" y="408.332"/>
      <point x="814.794" y="251.949" type="curve" smooth="yes"/>
      <point x="814.794" y="73.6279"/>
      <point x="679.9" y="-22.5762"/>
      <point x="533.841" y="-22.5762" type="curve" smooth="yes"/>
      <point x="432.234" y="-22.5762"/>
      <point x="317.191" y="43.4971"/>
      <point x="267.951" y="204.03" type="curve" smooth="yes"/>
      <point x="239.752" y="295.962"/>
      <point x="221.741" y="326.703"/>
      <point x="171.263" y="326.703" type="curve" smooth="yes"/>
      <point x="170.2" y="326.703"/>
      <point x="169.159" y="326.691"/>
    </contour>
  </outline>
</glyph>
<glyph name="i" format="2">
  <advance width="527"/>
  <unicode hex="0069"/>
  <outline>
    <contour>
      <point x="320.316" y="505.647" type="curve" smooth="yes"/>
      <point x="462.281" y="505.647"/>
      <point x="462.281" y="408.889"/>
      <point x="462.281" y="331.78" type="curve" smooth="yes"/>
      <point x="462.281" y="318.886"/>
      <point x="462.097" y="303.996"/>
      <point x="461.865" y="285.218" type="curve" smooth="yes"/>
      <point x="461.469" y="253.168"/>
      <point x="460.933" y="209.792"/>
      <point x="460.933" y="145.686" type="curve" smooth="yes"/>
      <point x="460.933" y="12.2167"/>
      <point x="463.357" y="-106.65"/>
      <point x="464.83" y="-178.917" type="curve" smooth="yes"/>
      <point x="465.474" y="-210.48"/>
      <point x="465.937" y="-233.154"/>
      <point x="465.937" y="-244.273" type="curve" smooth="yes"/>
      <point x="465.937" y="-264.691"/>
      <point x="421.731" y="-270.998"/>
      <point x="396.648" y="-270.998" type="curve" smooth="yes"/>
      <point x="365.737" y="-270.998"/>
      <point x="359.755" y="-267.896"/>
      <point x="359.755" y="-260.952" type="curve" smooth="yes"/>
      <point x="359.755" y="-258.983"/>
      <point x="359.84" y="-254.899"/>
      <point x="359.984" y="-247.973" type="curve" smooth="yes"/>
      <point x="360.601" y="-218.308"/>
      <point x="362.302" y="-136.515"/>
      <point x="363.055" y="54.4341" type="curve"/>
      <point x="361.426" y="53.4854"/>
      <point x="359.808" y="52.5435"/>
      <point x="358.202" y="51.6083" type="curve" smooth="yes"/>
      <point x="281.308" y="6.83075"/>
      <point x="231.113" y="-22.3994"/>
      <point x="198.011" y="-22.3994" type="curve" smooth="yes"/>
      <point x="90.3994" y="-22.3994"/>
      <point x="40.2119" y="38.1807"/>
      <point x="40.2119" y="106.085" type="curve" smooth="yes"/>
      <point x="40.2119" y="147.916"/>
      <point x="46.4894" y="195.087"/>
      <point x="238.179" y="264.539" type="curve" smooth="yes"/>
      <point x="271.97" y="276.782"/>
      <point x="323.459" y="293.245"/>
      <point x="363.268" y="301.862" type="curve"/>
      <point x="363.026" y="327.723"/>
      <point x="362.433" y="347.064"/>
      <point x="361.066" y="365.686" type="curve" smooth="yes"/>
      <point x="355.747" y="438.152"/>
      <point x="299.318" y="451.584"/>
      <point x="256.078" y="451.584" type="curve" smooth="yes"/>
      <point x="238.163" y="451.584"/>
      <point x="214.174" y="445.304"/>
      <point x="201.646" y="435.955" type="curve" smooth="yes"/>
      <point x="182.709" y="421.823"/>
      <point x="181.914" y="411.939"/>
      <point x="179.571" y="382.792" type="curve" smooth="yes"/>
      <point x="179.417" y="380.888"/>
      <point x="179.258" y="378.902"/>
      <point x="179.086" y="376.827" type="curve"/>
      <point x="164.931" y="371.09"/>
      <point x="120.187" y="354.396"/>
      <point x="93.208" y="354.396" type="curve" smooth="yes"/>
      <point x="78.6338" y="354.396"/>
      <point x="72.6631" y="356.828"/>
      <point x="72.6631" y="368.528" type="curve" smooth="yes"/>
      <point x="72.6631" y="422.529"/>
      <point x="204.813" y="505.647"/>
    </contour>
    <contour>
      <point x="363.422" y="249.452" type="curve"/>
      <point x="206.976" y="228.212"/>
      <point x="137.15" y="196.045"/>
      <point x="137.15" y="134.981" type="curve" smooth="yes"/>
      <point x="137.15" y="82.5518"/>
      <point x="176.654" y="47.7422"/>
      <point x="234.428" y="47.7422" type="curve" smooth="yes"/>
      <point x="272.953" y="47.7422"/>
      <point x="317.173" y="65.7464"/>
      <point x="363.239" y="110.446" type="curve"/>
      <point x="363.349" y="152.186"/>
      <point x="363.416" y="198.376"/>
    </contour>
  </outline>
</glyph>
<glyph name="j" format="2">
  <advance width="620"/>
  <unicode hex="006A"/>
  <outline>
    <contour>
      <point x="137.068" y="563.429" type="curve"/>
      <point x="208.884" y="483.096" type="line"/>
      <point x="450.567" y="483.096" type="line" smooth="yes"/>
      <point x="489.627" y="483.096"/>
      <point x="541.331" y="490.891"/>
      <point x="602.296" y="499.894" type="curve"/>
      <point x="592.084" y="462.147"/>
      <point x="568.376" y="418.543"/>
      <point x="545.7" y="418.543" type="curve" smooth="yes"/>
      <point x="527.921" y="418.543"/>
      <point x="480.308" y="440.025"/>
      <point x="378.879" y="440.025" type="curve" smooth="yes"/>
      <point x="374.588" y="440.025" type="line"/>
      <point x="372.259" y="389.74"/>
      <point x="371.147" y="296.992"/>
      <point x="371.147" y="98.9961" type="curve" smooth="yes"/>
      <point x="371.147" y="-92.7656"/>
      <point x="376.151" y="-206.636"/>
      <point x="376.151" y="-243.216" type="curve" smooth="yes"/>
      <point x="376.151" y="-259.431"/>
      <point x="331.698" y="-270.974"/>
      <point x="306.86" y="-270.974" type="curve" smooth="yes"/>
      <point x="282.656" y="-270.974"/>
      <point x="269.969" y="-268.952"/>
      <point x="269.969" y="-259.891" type="curve" smooth="yes"/>
      <point x="269.969" y="-246.952"/>
      <point x="273.638" y="-143.685"/>
      <point x="273.638" y="257.964" type="curve" smooth="yes"/>
      <point x="273.638" y="411.897" type="line"/>
      <point x="251.117" y="421.456"/>
      <point x="232.984" y="429.757"/>
      <point x="227.321" y="440.025" type="curve"/>
      <point x="70.3848" y="440.025" type="line" smooth="yes"/>
      <point x="34.2783" y="440.025"/>
      <point x="26.3701" y="442.705"/>
      <point x="26.3701" y="449.532" type="curve" smooth="yes"/>
      <point x="26.3701" y="463.736"/>
      <point x="82.4131" y="520.692"/>
    </contour>
  </outline>
</glyph>
<glyph name="k" format="2">
  <advance width="530"/>
  <unicode hex="006B"/>
  <outline>
    <contour>
      <point x="421.094" y="610.411" type="curve" smooth="yes"/>
      <point x="418.972" y="610.411"/>
      <point x="412.364" y="611.66"/>
      <point x="402.785" y="613.47" type="curve" smooth="yes"/>
      <point x="377.567" y="618.236"/>
      <point x="331.759" y="626.893"/>
      <point x="293.022" y="626.896" type="curve" smooth="yes"/>
      <point x="112.903" y="626.904" type="line" smooth="yes"/>
      <point x="90.1934" y="626.904"/>
      <point x="84.4365" y="631.567"/>
      <point x="84.4365" y="635.525" type="curve" smooth="yes"/>
      <point x="84.4365" y="651.71"/>
      <point x="180.688" y="738.219"/>
      <point x="195.791" y="749.012" type="curve"/>
      <point x="272.114" y="669.966" type="line"/>
      <point x="353.544" y="669.966"/>
      <point x="424.191" y="677.55"/>
      <point x="451.195" y="680.449" type="curve" smooth="yes"/>
      <point x="457.576" y="681.134"/>
      <point x="461.52" y="681.558"/>
      <point x="462.594" y="681.558" type="curve"/>
      <point x="448.768" y="640.145"/>
      <point x="431.448" y="610.411"/>
    </contour>
    <contour>
      <point x="130.057" y="557.805" type="curve"/>
      <point x="208.113" y="483.107" type="line"/>
      <point x="369.957" y="483.097" type="line"/>
      <point x="372.249" y="494.471"/>
      <point x="417.799" y="514.274"/>
      <point x="504.902" y="541.207" type="curve"/>
      <point x="502.882" y="531.906"/>
      <point x="499.659" y="522.175"/>
      <point x="495.85" y="510.673" type="curve" smooth="yes"/>
      <point x="486.945" y="483.79"/>
      <point x="474.839" y="447.24"/>
      <point x="467.416" y="383.928" type="curve" smooth="yes"/>
      <point x="447.198" y="211.492"/>
      <point x="371.795" y="63.1797"/>
      <point x="261.098" y="-22.4141" type="curve"/>
      <point x="228.484" y="18.1807"/>
      <point x="204.354" y="29.2979"/>
      <point x="146.779" y="31.7522" type="curve" smooth="yes"/>
      <point x="107.945" y="33.4077"/>
      <point x="103.43" y="38.1899"/>
      <point x="103.43" y="43.6125" type="curve" smooth="yes"/>
      <point x="103.43" y="49.8102"/>
      <point x="109.328" y="56.8446"/>
      <point x="139.43" y="63.0371" type="curve" smooth="yes"/>
      <point x="310.108" y="98.1493"/>
      <point x="415.33" y="306.929"/>
      <point x="424.21" y="440.02" type="curve"/>
      <point x="46.0664" y="440.02" type="line" smooth="yes"/>
      <point x="31.29" y="440.02"/>
      <point x="26.0391" y="443.5"/>
      <point x="26.0391" y="448.605" type="curve" smooth="yes"/>
      <point x="26.0391" y="463.733"/>
      <point x="72.1592" y="509.313"/>
    </contour>
  </outline>
</glyph>
<glyph name="l" format="2">
  <advance width="511"/>
  <unicode hex="006C"/>
  <outline>
    <contour>
      <point x="329.971" y="662.931" type="curve" smooth="yes"/>
      <point x="329.971" y="626.508"/>
      <point x="300" y="597"/>
      <point x="264" y="597" type="curve" smooth="yes"/>
      <point x="228" y="597"/>
      <point x="198.074" y="626.508"/>
      <point x="198.074" y="662.931" type="curve" smooth="yes"/>
      <point x="198.074" y="699.353"/>
      <point x="228" y="729"/>
      <point x="264" y="729" type="curve" smooth="yes"/>
      <point x="300" y="729"/>
      <point x="329.971" y="699.353"/>
    </contour>
    <contour>
      <point x="130.772" y="542.71" type="curve"/>
      <point x="186.48" y="483.091" type="line"/>
      <point x="350.903" y="483.091" type="line"/>
      <point x="353.18" y="494.465"/>
      <point x="398.731" y="514.27"/>
      <point x="485.85" y="541.207" type="curve"/>
      <point x="483.772" y="531.642"/>
      <point x="480.422" y="521.621"/>
      <point x="476.49" y="509.863" type="curve" smooth="yes"/>
      <point x="467.665" y="483.465"/>
      <point x="455.912" y="448.313"/>
      <point x="449.063" y="389.908" type="curve" smooth="yes"/>
      <point x="428.145" y="211.493"/>
      <point x="352.741" y="63.1807"/>
      <point x="242.045" y="-22.4141" type="curve"/>
      <point x="209.431" y="18.1807"/>
      <point x="185.301" y="29.2988"/>
      <point x="98.3662" y="33.0039" type="curve" smooth="yes"/>
      <point x="88.8917" y="33.4077"/>
      <point x="84.3766" y="38.1896"/>
      <point x="84.3766" y="43.6122" type="curve" smooth="yes"/>
      <point x="84.3766" y="49.8101"/>
      <point x="90.2753" y="56.845"/>
      <point x="101.409" y="59.1357" type="curve" smooth="yes"/>
      <point x="291.055" y="98.1494"/>
      <point x="396.276" y="306.93"/>
      <point x="405.156" y="440.021" type="curve"/>
      <point x="61.7393" y="440.021" type="line" smooth="yes"/>
      <point x="46.9629" y="440.021"/>
      <point x="41.7129" y="443.501"/>
      <point x="41.7129" y="448.456" type="curve" smooth="yes"/>
      <point x="41.7129" y="463.734"/>
      <point x="86.6914" y="505.79"/>
    </contour>
  </outline>
</glyph>
<glyph name="m" format="2">
  <advance width="511"/>
  <unicode hex="006D"/>
  <outline>
    <contour>
      <point x="343.08" y="-157.405" type="curve" smooth="yes"/>
      <point x="343.08" y="-193.803"/>
      <point x="313.53" y="-223.353"/>
      <point x="277.133" y="-223.353" type="curve" smooth="yes"/>
      <point x="240.735" y="-223.353"/>
      <point x="211.185" y="-193.803"/>
      <point x="211.185" y="-157.405" type="curve" smooth="yes"/>
      <point x="211.185" y="-121.008"/>
      <point x="240.735" y="-91.457"/>
      <point x="277.133" y="-91.457" type="curve" smooth="yes"/>
      <point x="313.53" y="-91.457"/>
      <point x="343.08" y="-121.008"/>
    </contour>
    <contour>
      <point x="130.772" y="542.71" type="curve"/>
      <point x="186.48" y="483.091" type="line"/>
      <point x="350.903" y="483.091" type="line"/>
      <point x="353.18" y="494.465"/>
      <point x="398.731" y="514.27"/>
      <point x="485.85" y="541.207" type="curve"/>
      <point x="479.107" y="510.167"/>
      <point x="458.962" y="474.326"/>
      <point x="449.063" y="389.908" type="curve" smooth="yes"/>
      <point x="428.145" y="211.492"/>
      <point x="352.741" y="63.1807"/>
      <point x="242.045" y="-22.4141" type="curve"/>
      <point x="209.431" y="18.1807"/>
      <point x="185.301" y="29.2988"/>
      <point x="98.3662" y="33.0039" type="curve" smooth="yes"/>
      <point x="78.0625" y="33.8691"/>
      <point x="80.5342" y="54.8408"/>
      <point x="101.409" y="59.1357" type="curve" smooth="yes"/>
      <point x="291.055" y="98.1494"/>
      <point x="396.276" y="306.93"/>
      <point x="405.156" y="440.021" type="curve"/>
      <point x="61.7393" y="440.021" type="line" smooth="yes"/>
      <point x="46.9629" y="440.021"/>
      <point x="41.7129" y="443.501"/>
      <point x="41.7129" y="448.456" type="curve" smooth="yes"/>
      <point x="41.7129" y="463.734"/>
      <point x="86.6914" y="505.79"/>
    </contour>
  </outline>
</glyph>
<glyph name="n" format="2">
  <advance width="233"/>
  <unicode hex="006E"/>
  <outline>
    <contour>
      <point x="173.381" y="506.559" type="curve"/>
      <point x="169.293" y="467.435"/>
      <point x="167.369" y="359.424"/>
      <point x="167.369" y="98.9688" type="curve" smooth="yes"/>
      <point x="167.369" y="-34.5001"/>
      <point x="169.793" y="-130.235"/>
      <point x="171.267" y="-188.44" type="curve" smooth="yes"/>
      <point x="171.911" y="-213.861"/>
      <point x="172.373" y="-232.123"/>
      <point x="172.373" y="-243.242" type="curve" smooth="yes"/>
      <point x="172.373" y="-259.458"/>
      <point x="127.92" y="-271"/>
      <point x="103.081" y="-271" type="curve" smooth="yes"/>
      <point x="78.8779" y="-271"/>
      <point x="66.1904" y="-268.979"/>
      <point x="66.1904" y="-259.918" type="curve" smooth="yes"/>
      <point x="66.1904" y="-257.949"/>
      <point x="66.2754" y="-253.889"/>
      <point x="66.4194" y="-247.003" type="curve" smooth="yes"/>
      <point x="67.2218" y="-208.642"/>
      <point x="69.8584" y="-82.5933"/>
      <point x="69.8584" y="257.937" type="curve" smooth="yes"/>
      <point x="69.8584" y="427.384" type="line"/>
      <point x="67.5081" y="428.255"/>
      <point x="65.2296" y="429.096"/>
      <point x="63.0222" y="429.911" type="curve" smooth="yes"/>
      <point x="25.4467" y="443.785"/>
      <point x="8.46875" y="450.054"/>
      <point x="8.46875" y="465.092" type="curve" smooth="yes"/>
      <point x="8.46875" y="479.066"/>
      <point x="8.46875" y="499.078"/>
    </contour>
  </outline>
</glyph>
<glyph name="o" format="2">
  <advance width="511"/>
  <unicode hex="006F"/>
  <outline>
    <contour>
      <point x="149.202" y="384.038" type="curve"/>
      <point x="204.91" y="324.419" type="line"/>
      <point x="378.619" y="324.419" type="line"/>
      <point x="393.916" y="365.203"/>
      <point x="402.833" y="405.202"/>
      <point x="405.156" y="440.021" type="curve"/>
      <point x="61.7383" y="440.021" type="line" smooth="yes"/>
      <point x="46.9629" y="440.021"/>
      <point x="41.7119" y="443.501"/>
      <point x="41.7119" y="448.456" type="curve" smooth="yes"/>
      <point x="41.7119" y="463.734"/>
      <point x="94.9033" y="512.633"/>
      <point x="138.984" y="549.553" type="curve"/>
      <point x="204.272" y="483.091" type="line"/>
      <point x="350.902" y="483.091" type="line"/>
      <point x="353.18" y="494.464"/>
      <point x="398.73" y="514.27"/>
      <point x="485.849" y="541.207" type="curve"/>
      <point x="483.771" y="531.641"/>
      <point x="480.42" y="521.619"/>
      <point x="476.489" y="509.86" type="curve" smooth="yes"/>
      <point x="467.663" y="483.462"/>
      <point x="455.91" y="448.31"/>
      <point x="449.062" y="389.908" type="curve" smooth="yes"/>
      <point x="428.144" y="211.492"/>
      <point x="352.74" y="63.1797"/>
      <point x="242.044" y="-22.4141" type="curve"/>
      <point x="209.431" y="18.1807"/>
      <point x="185.301" y="29.2979"/>
      <point x="98.3662" y="33.0039" type="curve" smooth="yes"/>
      <point x="88.8911" y="33.4077"/>
      <point x="84.3758" y="38.1897"/>
      <point x="84.3758" y="43.6123" type="curve" smooth="yes"/>
      <point x="84.3758" y="49.8101"/>
      <point x="90.2744" y="56.8446"/>
      <point x="101.408" y="59.1348" type="curve" smooth="yes"/>
      <point x="224.015" y="84.358"/>
      <point x="311.336" y="180.538"/>
      <point x="360.15" y="281.349" type="curve"/>
      <point x="80.168" y="281.349" type="line" smooth="yes"/>
      <point x="65.3926" y="281.349"/>
      <point x="60.1426" y="284.829"/>
      <point x="60.1426" y="289.784" type="curve" smooth="yes"/>
      <point x="60.1426" y="305.062"/>
      <point x="105.121" y="347.118"/>
    </contour>
  </outline>
</glyph>
<glyph name="p" format="2">
  <advance width="553"/>
  <unicode hex="0070"/>
  <outline>
    <contour>
      <point x="518.364" y="519.635" type="curve"/>
      <point x="502.314" y="456.817"/>
      <point x="491.222" y="405.134"/>
      <point x="491.222" y="351.415" type="curve" smooth="yes"/>
      <point x="491.222" y="-125.256"/>
      <point x="333.206" y="-271.823"/>
      <point x="113.741" y="-271.823" type="curve"/>
      <point x="98.2471" y="-238.118"/>
      <point x="62.4248" y="-205.345"/>
      <point x="21.0273" y="-187.513" type="curve" smooth="yes"/>
      <point x="8.46387" y="-182.101"/>
      <point x="13.8467" y="-166.207"/>
      <point x="25.1045" y="-167.18" type="curve" smooth="yes"/>
      <point x="61.9902" y="-170.364"/>
      <point x="81.6533" y="-170.938"/>
      <point x="107.016" y="-170.938" type="curve" smooth="yes"/>
      <point x="226.202" y="-170.938"/>
      <point x="327.668" y="-125.127"/>
      <point x="386.518" y="9.68239" type="curve"/>
      <point x="188.973" y="21.0244"/>
      <point x="91.7766" y="129.754"/>
      <point x="66.9678" y="328.124" type="curve" smooth="yes"/>
      <point x="62.5889" y="363.134"/>
      <point x="61.123" y="405.763"/>
      <point x="59.4697" y="431.459" type="curve"/>
      <point x="30.4629" y="451.137"/>
      <point x="18.4795" y="462.079"/>
      <point x="18.4795" y="474.609" type="curve" smooth="yes"/>
      <point x="18.4795" y="492.807"/>
      <point x="27.4912" y="501.111"/>
      <point x="176.564" y="515.658" type="curve"/>
      <point x="162.526" y="453.309"/>
      <point x="158.506" y="414.664"/>
      <point x="158.506" y="358.831" type="curve" smooth="yes"/>
      <point x="158.506" y="150.237"/>
      <point x="220.474" y="52.6705"/>
      <point x="397.324" y="36.774" type="curve"/>
      <point x="425.283" y="113.622"/>
      <point x="441.062" y="215.749"/>
      <point x="441.062" y="349.399" type="curve" smooth="yes"/>
      <point x="441.062" y="377.435"/>
      <point x="439.863" y="402.127"/>
      <point x="437.487" y="417.62" type="curve"/>
      <point x="398.012" y="427.765"/>
      <point x="373.591" y="443.084"/>
      <point x="373.591" y="455.79" type="curve" smooth="yes"/>
      <point x="373.591" y="472.631"/>
      <point x="406.618" y="487.524"/>
    </contour>
  </outline>
</glyph>
<glyph name="q" format="2">
  <advance width="887"/>
  <unicode hex="0071"/>
  <outline>
    <contour>
      <point x="435.691" y="440.024" type="curve" smooth="yes"/>
      <point x="351.13" y="440.024"/>
      <point x="279.045" y="379.258"/>
      <point x="279.045" y="254.153" type="curve" smooth="yes"/>
      <point x="279.045" y="108.897"/>
      <point x="368.74" y="24.1631"/>
      <point x="463.232" y="24.1631" type="curve" smooth="yes"/>
      <point x="551.813" y="24.1631"/>
      <point x="622.558" y="106.451"/>
      <point x="622.558" y="219.97" type="curve" smooth="yes"/>
      <point x="622.558" y="351.599"/>
      <point x="545.133" y="440.024"/>
    </contour>
    <contour>
      <point x="599.07" y="610.481" type="curve" smooth="yes"/>
      <point x="597.838" y="610.481"/>
      <point x="530.751" y="627"/>
      <point x="477" y="627" type="curve" smooth="yes"/>
      <point x="264" y="627" type="line" smooth="yes"/>
      <point x="241" y="627"/>
      <point x="235.271" y="631.62"/>
      <point x="235.271" y="637.322" type="curve" smooth="yes"/>
      <point x="235.271" y="651.763"/>
      <point x="331.521" y="738.271"/>
      <point x="346.625" y="749.064" type="curve"/>
      <point x="423" y="670" type="line"/>
      <point x="457" y="670" type="line" smooth="yes"/>
      <point x="558" y="670"/>
      <point x="641.433" y="681.628"/>
      <point x="647.053" y="681.628" type="curve"/>
      <point x="633.227" y="640.215"/>
      <point x="615.907" y="610.481"/>
    </contour>
    <contour>
      <point x="137.069" y="563.428" type="curve"/>
      <point x="208.885" y="483.095" type="line"/>
      <point x="717.093" y="483.095" type="line" smooth="yes"/>
      <point x="756.152" y="483.095"/>
      <point x="807.855" y="490.891"/>
      <point x="868.821" y="499.893" type="curve"/>
      <point x="858.609" y="462.147"/>
      <point x="834.901" y="418.542"/>
      <point x="812.225" y="418.542" type="curve" smooth="yes"/>
      <point x="794.446" y="418.542"/>
      <point x="746.832" y="440.024"/>
      <point x="645.404" y="440.024" type="curve" smooth="yes"/>
      <point x="630.407" y="440.024" type="line"/>
      <point x="690.486" y="399.69"/>
      <point x="725.473" y="332.754"/>
      <point x="725.473" y="246.604" type="curve" smooth="yes"/>
      <point x="725.473" y="107.287"/>
      <point x="625.721" y="-22.3887"/>
      <point x="445.413" y="-22.3887" type="curve" smooth="yes"/>
      <point x="296.591" y="-22.3887"/>
      <point x="177.069" y="78.0615"/>
      <point x="177.069" y="230.495" type="curve" smooth="yes"/>
      <point x="177.069" y="343.845"/>
      <point x="241.307" y="414.416"/>
      <point x="313.935" y="440.024" type="curve"/>
      <point x="70.3848" y="440.024" type="line" smooth="yes"/>
      <point x="34.2793" y="440.024"/>
      <point x="26.3711" y="442.704"/>
      <point x="26.3711" y="449.532" type="curve" smooth="yes"/>
      <point x="26.3711" y="463.736"/>
      <point x="82.4131" y="520.692"/>
    </contour>
  </outline>
</glyph>
<glyph name="r" format="2">
  <advance width="533"/>
  <unicode hex="0072"/>
  <outline>
    <contour>
      <point x="340.102" y="51.7568" type="curve" smooth="yes"/>
      <point x="428.682" y="51.7568"/>
      <point x="477.259" y="120.341"/>
      <point x="494.217" y="120.341" type="curve" smooth="yes"/>
      <point x="502.965" y="120.341"/>
      <point x="511.566" y="113.823"/>
      <point x="511.566" y="105.026" type="curve" smooth="yes"/>
      <point x="511.566" y="85.17"/>
      <point x="407.213" y="9.52253"/>
      <point x="406.05" y="8.69238" type="curve" smooth="yes"/>
      <point x="391.755" y="-1.5127"/>
      <point x="365.396" y="-22.3887"/>
      <point x="294.873" y="-22.3887" type="curve" smooth="yes"/>
      <point x="169.043" y="-22.3887"/>
      <point x="45.4043" y="73.4453"/>
      <point x="45.4043" y="245.484" type="curve" smooth="yes"/>
      <point x="45.4043" y="386.142"/>
      <point x="145.215" y="435.943"/>
      <point x="166.612" y="445.916" type="curve" smooth="yes"/>
      <point x="184.144" y="454.088"/>
      <point x="237.408" y="475.406"/>
      <point x="272.837" y="488.532" type="curve" smooth="yes"/>
      <point x="300.759" y="498.877"/>
      <point x="326.229" y="505.837"/>
      <point x="354.843" y="505.837" type="curve" smooth="yes"/>
      <point x="420.128" y="505.837"/>
      <point x="472.296" y="477.377"/>
      <point x="472.296" y="455.844" type="curve" smooth="yes"/>
      <point x="472.296" y="439.308"/>
      <point x="448.104" y="423.631"/>
      <point x="399.882" y="402.798" type="curve"/>
      <point x="366.357" y="437.692"/>
      <point x="333.716" y="448.224"/>
      <point x="292.875" y="448.224" type="curve" smooth="yes"/>
      <point x="230.017" y="448.224"/>
      <point x="140.845" y="402.115"/>
      <point x="140.845" y="269.05" type="curve" smooth="yes"/>
      <point x="140.845" y="124.415"/>
      <point x="242.18" y="51.7568"/>
    </contour>
  </outline>
</glyph>
<glyph name="s" format="2">
  <advance width="511"/>
  <unicode hex="0073"/>
  <outline>
    <contour>
      <point x="143.09" y="565.063" type="curve"/>
      <point x="214.765" y="483.091" type="line"/>
      <point x="350.902" y="483.091" type="line"/>
      <point x="353.18" y="494.464"/>
      <point x="398.73" y="514.269"/>
      <point x="485.849" y="541.207" type="curve"/>
      <point x="483.771" y="531.64"/>
      <point x="480.42" y="521.618"/>
      <point x="476.488" y="509.858" type="curve" smooth="yes"/>
      <point x="467.663" y="483.461"/>
      <point x="455.91" y="448.309"/>
      <point x="449.062" y="389.907" type="curve" smooth="yes"/>
      <point x="428.144" y="211.492"/>
      <point x="352.74" y="63.1797"/>
      <point x="242.044" y="-22.4141" type="curve"/>
      <point x="209.431" y="18.1797"/>
      <point x="185.301" y="29.2979"/>
      <point x="98.3662" y="33.0039" type="curve" smooth="yes"/>
      <point x="88.8917" y="33.4077"/>
      <point x="84.3766" y="38.1896"/>
      <point x="84.3766" y="43.6121" type="curve" smooth="yes"/>
      <point x="84.3766" y="49.8099"/>
      <point x="90.2753" y="56.8445"/>
      <point x="101.409" y="59.1348" type="curve" smooth="yes"/>
      <point x="291.054" y="98.1494"/>
      <point x="396.276" y="306.93"/>
      <point x="405.156" y="440.021" type="curve"/>
      <point x="61.7383" y="440.021" type="line" smooth="yes"/>
      <point x="46.9629" y="440.021"/>
      <point x="41.7129" y="443.501"/>
      <point x="41.7129" y="448.456" type="curve" smooth="yes"/>
      <point x="41.7129" y="463.734"/>
      <point x="99.0088" y="528.144"/>
    </contour>
  </outline>
</glyph>
<glyph name="t" format="2">
  <advance width="632"/>
  <unicode hex="0074"/>
  <outline>
    <contour>
      <point x="393" y="487.33" type="line"/>
      <point x="343.67" y="514.629"/>
      <point x="235.289" y="530.449"/>
      <point x="156.653" y="541.928" type="curve" smooth="yes"/>
      <point x="104.445" y="549.548"/>
      <point x="65.3486" y="555.255"/>
      <point x="65.3486" y="561.137" type="curve" smooth="yes"/>
      <point x="65.3486" y="571.089"/>
      <point x="79.649" y="574.694"/>
      <point x="102.602" y="580.479" type="curve" smooth="yes"/>
      <point x="127.768" y="586.823"/>
      <point x="163.337" y="595.788"/>
      <point x="201.862" y="618.618" type="curve"/>
      <point x="257.745" y="593.805"/>
      <point x="279.476" y="586.142"/>
      <point x="308.023" y="576.077" type="curve" smooth="yes"/>
      <point x="320.945" y="571.521"/>
      <point x="335.264" y="566.472"/>
      <point x="354.779" y="559.117" type="curve" smooth="yes"/>
      <point x="503.915" y="502.911"/>
      <point x="593.892" y="412.106"/>
      <point x="593.892" y="264.343" type="curve" smooth="yes"/>
      <point x="593.892" y="86.0205"/>
      <point x="458.998" y="-22.5752"/>
      <point x="312.938" y="-22.5752" type="curve" smooth="yes"/>
      <point x="166.087" y="-22.5752"/>
      <point x="38.0889" y="71.5586"/>
      <point x="38.0889" y="231.919" type="curve" smooth="yes"/>
      <point x="38.0889" y="398.479"/>
      <point x="153.462" y="496.94"/>
      <point x="311.562" y="496.94" type="curve" smooth="yes"/>
      <point x="327.823" y="496.94"/>
      <point x="358.622" y="493.835"/>
      <point x="391" y="482.471" type="curve"/>
    </contour>
    <contour>
      <point x="304.932" y="452.046" type="curve" smooth="yes"/>
      <point x="230.575" y="452.046"/>
      <point x="140.283" y="393.435"/>
      <point x="140.283" y="265.56" type="curve" smooth="yes"/>
      <point x="140.283" y="106.144"/>
      <point x="239.701" y="31.2256"/>
      <point x="323.243" y="31.2256" type="curve" smooth="yes"/>
      <point x="407.755" y="31.2256"/>
      <point x="491.742" y="103.088"/>
      <point x="491.742" y="230.688" type="curve" smooth="yes"/>
      <point x="491.742" y="379.625"/>
      <point x="402.361" y="452.046"/>
    </contour>
    <contour>
      <point x="382.308" y="248.069" type="curve" smooth="yes"/>
      <point x="382.308" y="211.672"/>
      <point x="352.758" y="182.122"/>
      <point x="316.36" y="182.122" type="curve" smooth="yes"/>
      <point x="279.963" y="182.122"/>
      <point x="250.412" y="211.672"/>
      <point x="250.411" y="248.069" type="curve" smooth="yes"/>
      <point x="250.411" y="284.467"/>
      <point x="279.962" y="314.018"/>
      <point x="316.36" y="314.018" type="curve" smooth="yes"/>
      <point x="352.758" y="314.018"/>
      <point x="382.308" y="284.467"/>
    </contour>
  </outline>
</glyph>
<glyph name="u" format="2">
  <advance width="233"/>
  <unicode hex="0075"/>
  <outline>
    <contour>
      <point x="173.381" y="506.559" type="curve"/>
      <point x="169.293" y="467.435"/>
      <point x="167.369" y="359.424"/>
      <point x="167.369" y="98.9697" type="curve" smooth="yes"/>
      <point x="167.369" y="-34.4999"/>
      <point x="169.793" y="-130.236"/>
      <point x="171.267" y="-188.44" type="curve" smooth="yes"/>
      <point x="171.911" y="-213.861"/>
      <point x="172.373" y="-232.123"/>
      <point x="172.373" y="-243.242" type="curve" smooth="yes"/>
      <point x="172.373" y="-259.457"/>
      <point x="127.92" y="-271"/>
      <point x="103.081" y="-271" type="curve" smooth="yes"/>
      <point x="78.8779" y="-271"/>
      <point x="66.1904" y="-268.979"/>
      <point x="66.1904" y="-259.917" type="curve" smooth="yes"/>
      <point x="66.1904" y="-257.948"/>
      <point x="66.2754" y="-253.888"/>
      <point x="66.4194" y="-247.003" type="curve" smooth="yes"/>
      <point x="67.2218" y="-208.641"/>
      <point x="69.8584" y="-82.5924"/>
      <point x="69.8584" y="257.937" type="curve" smooth="yes"/>
      <point x="69.8584" y="427.384" type="line"/>
      <point x="67.5049" y="428.256"/>
      <point x="65.2234" y="429.098"/>
      <point x="63.0132" y="429.914" type="curve" smooth="yes"/>
      <point x="25.4439" y="443.787"/>
      <point x="8.46875" y="450.055"/>
      <point x="8.46875" y="465.092" type="curve" smooth="yes"/>
      <point x="8.46875" y="479.058"/>
      <point x="8.46875" y="499.083"/>
    </contour>
    <contour>
      <point x="180.935" y="662.945" type="curve" smooth="yes"/>
      <point x="180.935" y="626.548"/>
      <point x="151" y="597"/>
      <point x="115" y="597" type="curve" smooth="yes"/>
      <point x="79" y="597"/>
      <point x="49.0391" y="626.548"/>
      <point x="49.0381" y="662.945" type="curve" smooth="yes"/>
      <point x="49.0381" y="699.343"/>
      <point x="79" y="729"/>
      <point x="115" y="729" type="curve" smooth="yes"/>
      <point x="151" y="729"/>
      <point x="180.935" y="699.343"/>
    </contour>
  </outline>
</glyph>
<glyph name="v" format="2">
  <advance width="853"/>
  <unicode hex="0076"/>
  <outline>
    <contour>
      <point x="541.333" y="632.782" type="curve" smooth="yes"/>
      <point x="516.186" y="632.782"/>
      <point x="485.976" y="620.874"/>
      <point x="455.655" y="580.896" type="curve" smooth="yes"/>
      <point x="449.379" y="572.622"/>
      <point x="448.35" y="568.257"/>
      <point x="442.822" y="568.257" type="curve" smooth="yes"/>
      <point x="437.771" y="568.257"/>
      <point x="434.582" y="575.142"/>
      <point x="434.582" y="581.879" type="curve" smooth="yes"/>
      <point x="434.582" y="599.364"/>
      <point x="452.267" y="633.022"/>
      <point x="541.333" y="747.31" type="curve"/>
      <point x="630.399" y="633.022"/>
      <point x="648.084" y="599.364"/>
      <point x="648.084" y="581.879" type="curve" smooth="yes"/>
      <point x="648.084" y="575.142"/>
      <point x="644.896" y="568.257"/>
      <point x="639.844" y="568.257" type="curve" smooth="yes"/>
      <point x="634.316" y="568.257"/>
      <point x="633.287" y="572.622"/>
      <point x="627.012" y="580.896" type="curve" smooth="yes"/>
      <point x="596.69" y="620.874"/>
      <point x="566.48" y="632.782"/>
    </contour>
    <contour>
      <point x="525.834" y="452.045" type="curve" smooth="yes"/>
      <point x="451.478" y="452.045"/>
      <point x="361.185" y="397.996"/>
      <point x="361.185" y="270.12" type="curve" smooth="yes"/>
      <point x="361.185" y="110.704"/>
      <point x="460.609" y="31.2236"/>
      <point x="544.15" y="31.2236" type="curve" smooth="yes"/>
      <point x="628.661" y="31.2236"/>
      <point x="712.644" y="90.6953"/>
      <point x="712.644" y="218.295" type="curve" smooth="yes"/>
      <point x="712.644" y="367.231"/>
      <point x="623.264" y="452.045"/>
    </contour>
    <contour>
      <point x="168.421" y="354.127" type="curve"/>
      <point x="193.813" y="359.603"/>
      <point x="215.928" y="362.096"/>
      <point x="235.554" y="362.096" type="curve" smooth="yes"/>
      <point x="257.793" y="362.096"/>
      <point x="276.835" y="358.895"/>
      <point x="293.826" y="353.204" type="curve"/>
      <point x="340.262" y="445.726"/>
      <point x="436.37" y="505.649"/>
      <point x="542.786" y="505.649" type="curve" smooth="yes"/>
      <point x="694.856" y="505.649"/>
      <point x="814.793" y="408.332"/>
      <point x="814.793" y="251.949" type="curve" smooth="yes"/>
      <point x="814.793" y="73.6279"/>
      <point x="679.899" y="-22.5762"/>
      <point x="533.84" y="-22.5762" type="curve" smooth="yes"/>
      <point x="432.234" y="-22.5762"/>
      <point x="317.191" y="43.4971"/>
      <point x="267.95" y="204.03" type="curve" smooth="yes"/>
      <point x="239.752" y="295.962"/>
      <point x="221.741" y="326.703"/>
      <point x="171.263" y="326.703" type="curve" smooth="yes"/>
      <point x="170.325" y="326.703"/>
      <point x="169.268" y="326.681"/>
      <point x="168.143" y="326.642" type="curve" smooth="yes"/>
      <point x="167.623" y="268.23"/>
      <point x="167.368" y="193.678"/>
      <point x="167.368" y="98.9688" type="curve" smooth="yes"/>
      <point x="167.368" y="-92.793"/>
      <point x="172.372" y="-206.663"/>
      <point x="172.372" y="-243.242" type="curve" smooth="yes"/>
      <point x="172.372" y="-259.458"/>
      <point x="127.92" y="-271"/>
      <point x="103.081" y="-271" type="curve" smooth="yes"/>
      <point x="78.8779" y="-271"/>
      <point x="66.1904" y="-268.979"/>
      <point x="66.1904" y="-259.918" type="curve" smooth="yes"/>
      <point x="66.1904" y="-246.979"/>
      <point x="69.8584" y="-143.712"/>
      <point x="69.8584" y="257.937" type="curve" smooth="yes"/>
      <point x="69.8584" y="427.384" type="line"/>
      <point x="27.499" y="443.079"/>
      <point x="8.46875" y="449.171"/>
      <point x="8.46875" y="465.091" type="curve" smooth="yes"/>
      <point x="8.46875" y="479.067"/>
      <point x="8.46875" y="499.078"/>
      <point x="173.38" y="506.559" type="curve"/>
      <point x="171.023" y="483.997"/>
      <point x="169.385" y="438.528"/>
    </contour>
  </outline>
</glyph>
<glyph name="w" format="2">
  <advance width="631"/>
  <unicode hex="0077"/>
  <outline>
    <contour>
      <point x="304.228" y="452.048" type="curve" smooth="yes"/>
      <point x="229.87" y="452.048"/>
      <point x="139.578" y="393.435"/>
      <point x="139.578" y="265.559" type="curve" smooth="yes"/>
      <point x="139.578" y="106.143"/>
      <point x="239" y="31.2246"/>
      <point x="322.542" y="31.2246" type="curve" smooth="yes"/>
      <point x="407.053" y="31.2246"/>
      <point x="491.037" y="90.6982"/>
      <point x="491.037" y="218.299" type="curve" smooth="yes"/>
      <point x="491.037" y="367.235"/>
      <point x="401.658" y="452.048"/>
    </contour>
    <contour>
      <point x="37.3848" y="231.919" type="curve" smooth="yes"/>
      <point x="37.3848" y="398.479"/>
      <point x="163.079" y="505.65"/>
      <point x="321.179" y="505.65" type="curve" smooth="yes"/>
      <point x="473.25" y="505.65"/>
      <point x="593.187" y="408.336"/>
      <point x="593.187" y="251.953" type="curve" smooth="yes"/>
      <point x="593.187" y="108.464"/>
      <point x="505.846" y="18.1444"/>
      <point x="395.626" y="-11.6659" type="curve"/>
      <point x="318.31" y="-218.859"/>
      <point x="109.589" y="-277.739"/>
      <point x="105.603" y="-277.739" type="curve" smooth="yes"/>
      <point x="97.306" y="-277.739"/>
      <point x="92.4562" y="-272.865"/>
      <point x="92.4562" y="-267.575" type="curve" smooth="yes"/>
      <point x="92.4562" y="-263.91"/>
      <point x="94.7838" y="-260.046"/>
      <point x="99.9053" y="-257.464" type="curve" smooth="yes"/>
      <point x="211.888" y="-201.006"/>
      <point x="268.572" y="-114.316"/>
      <point x="286.578" y="-21.6049" type="curve"/>
      <point x="150.789" y="-11.2884"/>
      <point x="37.3848" y="80.9755"/>
    </contour>
  </outline>
</glyph>
<glyph name="x" format="2">
  <advance width="587"/>
  <unicode hex="0078"/>
  <outline>
    <contour>
      <point x="58.7109" y="366.278" type="curve" smooth="yes"/>
      <point x="58.7109" y="428.187"/>
      <point x="221.238" y="505.648"/>
      <point x="306.466" y="505.648" type="curve" smooth="yes"/>
      <point x="447.662" y="505.648"/>
      <point x="540.772" y="408.306"/>
      <point x="540.772" y="256.924" type="curve" smooth="yes"/>
      <point x="540.772" y="149.387"/>
      <point x="489.874" y="89.6152"/>
      <point x="458.567" y="70.4893" type="curve" smooth="yes"/>
      <point x="383.566" y="24.6699"/>
      <point x="304.883" y="-22.415"/>
      <point x="277.334" y="-22.415" type="curve" smooth="yes"/>
      <point x="268.007" y="-22.415"/>
      <point x="261.749" y="-12.7944"/>
      <point x="254.218" y="-1.21642" type="curve" smooth="yes"/>
      <point x="242.838" y="16.2764"/>
      <point x="228.552" y="38.2373"/>
      <point x="196.387" y="38.2373" type="curve" smooth="yes"/>
      <point x="149.907" y="38.2373"/>
      <point x="105.73" y="9.02101"/>
      <point x="77.6545" y="-9.54614" type="curve" smooth="yes"/>
      <point x="64.5787" y="-18.1937"/>
      <point x="54.9958" y="-24.5313"/>
      <point x="50.3" y="-24.5313" type="curve" smooth="yes"/>
      <point x="43.6501" y="-24.5313"/>
      <point x="39.3437" y="-19.8715"/>
      <point x="39.3437" y="-14.1338" type="curve" smooth="yes"/>
      <point x="39.3437" y="-11.1994"/>
      <point x="40.47" y="-7.98305"/>
      <point x="42.9854" y="-4.96387" type="curve" smooth="yes"/>
      <point x="98.0781" y="61.1562"/>
      <point x="211.684" y="104.25"/>
      <point x="266.814" y="104.25" type="curve" smooth="yes"/>
      <point x="310.301" y="104.25"/>
      <point x="336.156" y="92.3057"/>
      <point x="360.594" y="62.8867" type="curve"/>
      <point x="404.408" y="84.1562"/>
      <point x="442.268" y="134.625"/>
      <point x="442.268" y="224.6" type="curve" smooth="yes"/>
      <point x="442.268" y="357.578"/>
      <point x="364.916" y="454.474"/>
      <point x="264.351" y="454.474" type="curve" smooth="yes"/>
      <point x="227.749" y="454.474"/>
      <point x="184.116" y="445.093"/>
      <point x="155.291" y="386.424" type="curve"/>
      <point x="126.462" y="375.018"/>
      <point x="96.6172" y="364.805"/>
      <point x="68.5107" y="355.676" type="curve" smooth="yes"/>
      <point x="64.5215" y="354.381"/>
      <point x="58.7109" y="355.929"/>
    </contour>
    <contour>
      <point x="349.315" y="662.958" type="curve" smooth="yes"/>
      <point x="349.315" y="626.535"/>
      <point x="319.789" y="597.009"/>
      <point x="283.366" y="597.009" type="curve" smooth="yes"/>
      <point x="246.945" y="597.009"/>
      <point x="217.419" y="626.534"/>
      <point x="217.419" y="662.956" type="curve" smooth="yes"/>
      <point x="217.419" y="699.388"/>
      <point x="246.951" y="728.905"/>
      <point x="283.366" y="728.905" type="curve" smooth="yes"/>
      <point x="319.789" y="728.905"/>
      <point x="349.314" y="699.38"/>
    </contour>
  </outline>
</glyph>
<glyph name="y" format="2">
  <advance width="700"/>
  <unicode hex="0079"/>
  <outline>
    <contour>
      <point x="410.721" y="432.913" type="curve"/>
      <point x="486.718" y="502.627"/>
      <point x="549.077" y="505.692"/>
      <point x="579.316" y="505.692" type="curve" smooth="yes"/>
      <point x="649.39" y="505.692"/>
      <point x="704.439" y="463.165"/>
      <point x="704.439" y="440.975" type="curve" smooth="yes"/>
      <point x="704.439" y="425.805"/>
      <point x="691.404" y="415.677"/>
      <point x="617.916" y="395.286" type="curve"/>
      <point x="600.16" y="429.145"/>
      <point x="548.593" y="442.803"/>
      <point x="521.465" y="442.803" type="curve" smooth="yes"/>
      <point x="489.904" y="442.803"/>
      <point x="461.348" y="428.545"/>
      <point x="431.307" y="402.1" type="curve"/>
      <point x="461.4" y="349.16"/>
      <point x="479.546" y="276.327"/>
      <point x="479.546" y="187.945" type="curve" smooth="yes"/>
      <point x="479.546" y="63.5654"/>
      <point x="431.408" y="-22.374"/>
      <point x="391.869" y="-22.374" type="curve" smooth="yes"/>
      <point x="356.759" y="-22.374"/>
      <point x="309.177" y="50.6289"/>
      <point x="309.177" y="185.969" type="curve" smooth="yes"/>
      <point x="309.177" y="247.731"/>
      <point x="321.362" y="298.683"/>
      <point x="341.821" y="341.044" type="curve"/>
      <point x="317.84" y="407.868"/>
      <point x="261.024" y="443.74"/>
      <point x="216.493" y="443.74" type="curve" smooth="yes"/>
      <point x="198.382" y="443.74"/>
      <point x="184.419" y="441.773"/>
      <point x="169.909" y="437.882" type="curve"/>
      <point x="168.193" y="374.592"/>
      <point x="167.369" y="269.428"/>
      <point x="167.369" y="98.9688" type="curve" smooth="yes"/>
      <point x="167.369" y="-34.5001"/>
      <point x="169.794" y="-130.235"/>
      <point x="171.268" y="-188.44" type="curve" smooth="yes"/>
      <point x="171.912" y="-213.861"/>
      <point x="172.374" y="-232.123"/>
      <point x="172.374" y="-243.242" type="curve" smooth="yes"/>
      <point x="172.374" y="-259.458"/>
      <point x="127.92" y="-271.001"/>
      <point x="103.082" y="-271.001" type="curve" smooth="yes"/>
      <point x="78.8779" y="-271.001"/>
      <point x="66.1914" y="-268.979"/>
      <point x="66.1914" y="-259.918" type="curve" smooth="yes"/>
      <point x="66.1914" y="-257.949"/>
      <point x="66.2763" y="-253.889"/>
      <point x="66.4204" y="-247.003" type="curve" smooth="yes"/>
      <point x="67.2228" y="-208.642"/>
      <point x="69.8594" y="-82.5933"/>
      <point x="69.8594" y="257.937" type="curve" smooth="yes"/>
      <point x="69.8594" y="427.384" type="line"/>
      <point x="67.5101" y="428.254"/>
      <point x="65.2325" y="429.095"/>
      <point x="63.026" y="429.91" type="curve" smooth="yes"/>
      <point x="25.4476" y="443.785"/>
      <point x="8.46973" y="450.054"/>
      <point x="8.46973" y="465.091" type="curve" smooth="yes"/>
      <point x="8.46973" y="479.067"/>
      <point x="8.46973" y="499.078"/>
      <point x="173.381" y="506.559" type="curve"/>
      <point x="172.507" y="498.198"/>
      <point x="171.732" y="486.691"/>
      <point x="171.054" y="471.222" type="curve"/>
      <point x="217.132" y="485.991"/>
      <point x="263.394" y="499.267"/>
      <point x="285.231" y="499.267" type="curve" smooth="yes"/>
      <point x="333.281" y="499.267"/>
      <point x="376.984" y="475.836"/>
    </contour>
  </outline>
</glyph>
<glyph name="z" format="2">
  <advance width="587"/>
  <unicode hex="007A"/>
  <outline>
    <contour>
      <point x="58.7119" y="366.278" type="curve" smooth="yes"/>
      <point x="58.7119" y="428.189"/>
      <point x="221.238" y="505.648"/>
      <point x="306.466" y="505.648" type="curve" smooth="yes"/>
      <point x="447.662" y="505.648"/>
      <point x="540.773" y="408.306"/>
      <point x="540.773" y="256.924" type="curve" smooth="yes"/>
      <point x="540.773" y="149.387"/>
      <point x="489.875" y="89.6152"/>
      <point x="458.567" y="70.4893" type="curve" smooth="yes"/>
      <point x="383.566" y="24.6699"/>
      <point x="304.883" y="-22.415"/>
      <point x="277.334" y="-22.415" type="curve" smooth="yes"/>
      <point x="268.008" y="-22.415"/>
      <point x="261.749" y="-12.7945"/>
      <point x="254.218" y="-1.21646" type="curve" smooth="yes"/>
      <point x="242.839" y="16.2763"/>
      <point x="228.553" y="38.2373"/>
      <point x="196.388" y="38.2373" type="curve" smooth="yes"/>
      <point x="149.908" y="38.2373"/>
      <point x="105.73" y="9.021"/>
      <point x="77.6548" y="-9.54615" type="curve" smooth="yes"/>
      <point x="64.5788" y="-18.1937"/>
      <point x="54.9958" y="-24.5313"/>
      <point x="50.3" y="-24.5313" type="curve" smooth="yes"/>
      <point x="43.6504" y="-24.5313"/>
      <point x="39.3441" y="-19.8718"/>
      <point x="39.3441" y="-14.1343" type="curve" smooth="yes"/>
      <point x="39.3441" y="-11.1998"/>
      <point x="40.4706" y="-7.98323"/>
      <point x="42.9863" y="-4.96387" type="curve" smooth="yes"/>
      <point x="98.0791" y="61.1562"/>
      <point x="211.684" y="104.251"/>
      <point x="266.814" y="104.251" type="curve" smooth="yes"/>
      <point x="310.301" y="104.251"/>
      <point x="336.156" y="92.3057"/>
      <point x="360.595" y="62.8877" type="curve"/>
      <point x="404.409" y="84.1562"/>
      <point x="442.269" y="134.625"/>
      <point x="442.269" y="224.601" type="curve" smooth="yes"/>
      <point x="442.269" y="357.578"/>
      <point x="364.917" y="454.475"/>
      <point x="264.352" y="454.475" type="curve" smooth="yes"/>
      <point x="227.749" y="454.475"/>
      <point x="184.116" y="445.093"/>
      <point x="155.292" y="386.424" type="curve"/>
      <point x="126.462" y="375.018"/>
      <point x="96.6172" y="364.805"/>
      <point x="68.5107" y="355.676" type="curve" smooth="yes"/>
      <point x="64.5225" y="354.381"/>
      <point x="58.7119" y="355.929"/>
    </contour>
  </outline>
</glyph>
<glyph name="braceleft" format="2">
  <advance width="248"/>
  <unicode hex="007B"/>
  <outline>
    <contour>
      <point x="101.706" y="65.2217" type="curve" smooth="yes"/>
      <point x="101.706" y="81.3984"/>
      <point x="103.608" y="125.277"/>
      <point x="104.249" y="140.059" type="curve" smooth="yes"/>
      <point x="104.379" y="143.053"/>
      <point x="104.457" y="144.853"/>
      <point x="104.457" y="144.987" type="curve" smooth="yes"/>
      <point x="104.457" y="167.465"/>
      <point x="99.8965" y="177.854"/>
      <point x="78.6191" y="181.617" type="curve"/>
      <point x="78.6191" y="193.296" type="line"/>
      <point x="99.8965" y="197.059"/>
      <point x="104.457" y="207.447"/>
      <point x="104.457" y="229.925" type="curve" smooth="yes"/>
      <point x="104.457" y="236.135"/>
      <point x="104.012" y="244.738"/>
      <point x="103.479" y="255.024" type="curve" smooth="yes"/>
      <point x="102.689" y="270.31"/>
      <point x="101.706" y="289.311"/>
      <point x="101.706" y="309.69" type="curve" smooth="yes"/>
      <point x="101.706" y="373.255"/>
      <point x="115.066" y="388.087"/>
      <point x="173.576" y="388.087" type="curve"/>
      <point x="173.576" y="373.884" type="line"/>
      <point x="148.675" y="369.471"/>
      <point x="143.775" y="354.108"/>
      <point x="143.775" y="320.662" type="curve" smooth="yes"/>
      <point x="143.775" y="311.167"/>
      <point x="144.23" y="298.312"/>
      <point x="144.707" y="284.813" type="curve" smooth="yes"/>
      <point x="145.235" y="269.891"/>
      <point x="145.79" y="254.182"/>
      <point x="145.79" y="241.353" type="curve" smooth="yes"/>
      <point x="145.79" y="211.376"/>
      <point x="143.307" y="197.138"/>
      <point x="125.066" y="187.456" type="curve"/>
      <point x="143.308" y="177.774"/>
      <point x="145.79" y="163.535"/>
      <point x="145.79" y="133.56" type="curve" smooth="yes"/>
      <point x="145.79" y="129.793"/>
      <point x="144.747" y="90.7725"/>
      <point x="144.162" y="68.9023" type="curve" smooth="yes"/>
      <point x="143.934" y="60.3877"/>
      <point x="143.775" y="54.4717"/>
      <point x="143.775" y="54.25" type="curve" smooth="yes"/>
      <point x="143.775" y="20.8037"/>
      <point x="148.675" y="5.44141"/>
      <point x="173.576" y="1.02832" type="curve"/>
      <point x="173.576" y="-13.1748" type="line"/>
      <point x="115.062" y="-13.1748"/>
      <point x="101.706" y="1.66309"/>
    </contour>
  </outline>
</glyph>
<glyph name="bar" format="2">
  <advance width="213"/>
  <unicode hex="007C"/>
  <outline>
    <contour>
      <point x="92.7734" y="388.589" type="line"/>
      <point x="120.107" y="388.589" type="line"/>
      <point x="120.107" y="-11.6689" type="line"/>
      <point x="92.7734" y="-11.6689" type="line"/>
    </contour>
  </outline>
</glyph>
<glyph name="braceright" format="2">
  <advance width="248"/>
  <unicode hex="007D"/>
  <outline>
    <contour>
      <point x="104.381" y="54.251" type="curve" smooth="yes"/>
      <point x="104.381" y="63.8822"/>
      <point x="103.915" y="76.9758"/>
      <point x="103.431" y="90.6019" type="curve" smooth="yes"/>
      <point x="103.429" y="90.6471"/>
      <point x="103.427" y="90.6922"/>
      <point x="103.426" y="90.7373" type="curve" smooth="yes"/>
      <point x="102.897" y="105.554"/>
      <point x="102.348" y="120.988"/>
      <point x="102.348" y="133.278" type="curve" smooth="yes"/>
      <point x="102.348" y="166.909"/>
      <point x="106.419" y="178.6"/>
      <point x="123.09" y="187.456" type="curve"/>
      <point x="106.419" y="196.312"/>
      <point x="102.348" y="208.003"/>
      <point x="102.348" y="241.633" type="curve" smooth="yes"/>
      <point x="102.348" y="253.924"/>
      <point x="102.897" y="269.357"/>
      <point x="103.426" y="284.174" type="curve" smooth="yes"/>
      <point x="103.427" y="284.22"/>
      <point x="103.429" y="284.267"/>
      <point x="103.431" y="284.313" type="curve" smooth="yes"/>
      <point x="103.915" y="297.939"/>
      <point x="104.381" y="311.031"/>
      <point x="104.381" y="320.661" type="curve" smooth="yes"/>
      <point x="104.381" y="354.107"/>
      <point x="99.4814" y="369.471"/>
      <point x="74.5801" y="373.884" type="curve"/>
      <point x="74.5801" y="388.087" type="line"/>
      <point x="134.904" y="388.087"/>
      <point x="146.427" y="371.665"/>
      <point x="146.427" y="308.975" type="curve" smooth="yes"/>
      <point x="146.427" y="288.586"/>
      <point x="145.457" y="269.979"/>
      <point x="144.674" y="254.956" type="curve" smooth="yes"/>
      <point x="144.144" y="244.783"/>
      <point x="143.699" y="236.253"/>
      <point x="143.699" y="229.925" type="curve" smooth="yes"/>
      <point x="143.699" y="207.447"/>
      <point x="148.26" y="197.059"/>
      <point x="169.537" y="193.296" type="curve"/>
      <point x="169.537" y="181.617" type="line"/>
      <point x="148.26" y="177.854"/>
      <point x="143.699" y="167.465"/>
      <point x="143.699" y="144.987" type="curve" smooth="yes"/>
      <point x="143.699" y="138.658"/>
      <point x="144.144" y="130.129"/>
      <point x="144.674" y="119.957" type="curve" smooth="yes"/>
      <point x="145.457" y="104.934"/>
      <point x="146.427" y="86.3291"/>
      <point x="146.427" y="65.9414" type="curve" smooth="yes"/>
      <point x="146.427" y="3.24121"/>
      <point x="134.901" y="-13.1748"/>
      <point x="74.5801" y="-13.1748" type="curve"/>
      <point x="74.5801" y="1.02832" type="line"/>
      <point x="99.4814" y="5.44141"/>
      <point x="104.381" y="20.8047"/>
    </contour>
  </outline>
</glyph>
<glyph name="asciitilde" format="2">
  <advance width="685"/>
  <unicode hex="007E"/>
  <outline>
    <contour>
      <point x="399.385" y="248.669" type="curve" smooth="yes"/>
      <point x="371.436" y="248.669"/>
      <point x="349.159" y="259.278"/>
      <point x="327.571" y="269.561" type="curve" smooth="yes"/>
      <point x="307.276" y="279.227"/>
      <point x="287.591" y="288.603"/>
      <point x="264.373" y="288.603" type="curve" smooth="yes"/>
      <point x="242.881" y="288.603"/>
      <point x="221.966" y="276.895"/>
      <point x="206.329" y="255.845" type="curve"/>
      <point x="194.886" y="261.47" type="line"/>
      <point x="210.654" y="295.725"/>
      <point x="243.572" y="323.954"/>
      <point x="285.193" y="323.954" type="curve" smooth="yes"/>
      <point x="312.593" y="323.954"/>
      <point x="334.527" y="313.501"/>
      <point x="355.95" y="303.291" type="curve" smooth="yes"/>
      <point x="376.398" y="293.546"/>
      <point x="396.381" y="284.023"/>
      <point x="420.208" y="284.023" type="curve" smooth="yes"/>
      <point x="441.7" y="284.023"/>
      <point x="462.615" y="295.731"/>
      <point x="478.252" y="316.778" type="curve"/>
      <point x="489.695" y="311.154" type="line"/>
      <point x="473.927" y="276.897"/>
      <point x="441.005" y="248.669"/>
    </contour>
  </outline>
</glyph>
<glyph name="endash" format="2">
  <advance width="392"/>
  <unicode hex="2013"/>
  <outline>
    <contour>
      <point x="98.25" y="192.5" type="line"/>
      <point x="294.75" y="192.5" type="line"/>
      <point x="294.75" y="161.5" type="line"/>
      <point x="98.25" y="161.5" type="line"/>
    </contour>
  </outline>
</glyph>
<glyph name="emdash" format="2">
  <advance width="780"/>
  <unicode hex="2014"/>
  <outline>
    <contour>
      <point x="195.25" y="192.5" type="line"/>
      <point x="585.75" y="192.5" type="line"/>
      <point x="585.75" y="161.5" type="line"/>
      <point x="195.25" y="161.5" type="line"/>
    </contour>
  </outline>
</glyph>
<glyph name="quoteleft" format="2">
  <advance width="172"/>
  <unicode hex="2018"/>
  <outline>
    <contour>
      <point x="86.25" y="497" type="curve" smooth="yes"/>
      <point x="61.25" y="497"/>
      <point x="48.75" y="514"/>
      <point x="48.75" y="541" type="curve" smooth="yes"/>
      <point x="48.75" y="570"/>
      <point x="69.25" y="597.5"/>
      <point x="103.75" y="615" type="curve"/>
      <point x="114.25" y="602" type="line"/>
      <point x="87.75" y="586.5"/>
      <point x="77.75" y="570"/>
      <point x="77.75" y="557" type="curve" smooth="yes"/>
      <point x="77.75" y="551.5"/>
      <point x="80.25" y="550"/>
      <point x="85.25" y="549" type="curve" smooth="yes"/>
      <point x="104.75" y="545.5"/>
      <point x="113.25" y="535.5"/>
      <point x="113.25" y="521" type="curve" smooth="yes"/>
      <point x="113.25" y="509.5"/>
      <point x="102.25" y="497"/>
    </contour>
  </outline>
</glyph>
<glyph name="quoteright" format="2">
  <advance width="172"/>
  <unicode hex="2019"/>
  <outline>
    <contour>
      <point x="86.75" y="615" type="curve" smooth="yes"/>
      <point x="111.75" y="615"/>
      <point x="124.25" y="598"/>
      <point x="124.25" y="571" type="curve" smooth="yes"/>
      <point x="124.25" y="542"/>
      <point x="104.25" y="514.5"/>
      <point x="69.75" y="497" type="curve"/>
      <point x="58.75" y="510" type="line"/>
      <point x="85.25" y="525.5"/>
      <point x="95.25" y="541.5"/>
      <point x="95.25" y="554.5" type="curve" smooth="yes"/>
      <point x="95.25" y="560"/>
      <point x="93.25" y="562"/>
      <point x="88.25" y="563" type="curve" smooth="yes"/>
      <point x="68.75" y="566.5"/>
      <point x="59.75" y="576"/>
      <point x="59.75" y="590.5" type="curve" smooth="yes"/>
      <point x="59.75" y="602"/>
      <point x="70.75" y="615"/>
    </contour>
  </outline>
</glyph>
<glyph name="quotedblleft" format="2">
  <advance width="315"/>
  <unicode hex="201C"/>
  <outline>
    <contour>
      <point x="122" y="497" type="curve" smooth="yes"/>
      <point x="97" y="497"/>
      <point x="84.5" y="514"/>
      <point x="84.5" y="541" type="curve" smooth="yes"/>
      <point x="84.5" y="570"/>
      <point x="105" y="597.5"/>
      <point x="139.5" y="615" type="curve"/>
      <point x="150" y="602" type="line"/>
      <point x="123.5" y="586.5"/>
      <point x="113.5" y="570"/>
      <point x="113.5" y="557" type="curve" smooth="yes"/>
      <point x="113.5" y="551.5"/>
      <point x="116" y="550"/>
      <point x="121" y="549" type="curve" smooth="yes"/>
      <point x="140.5" y="545.5"/>
      <point x="149" y="535.5"/>
      <point x="149" y="521" type="curve" smooth="yes"/>
      <point x="149" y="509.5"/>
      <point x="138" y="497"/>
    </contour>
    <contour>
      <point x="193.5" y="497" type="curve" smooth="yes"/>
      <point x="168.5" y="497"/>
      <point x="155.5" y="514"/>
      <point x="155.5" y="541" type="curve" smooth="yes"/>
      <point x="155.5" y="570"/>
      <point x="176" y="597.5"/>
      <point x="210.5" y="615" type="curve"/>
      <point x="221.5" y="602" type="line"/>
      <point x="195" y="586.5"/>
      <point x="184.5" y="570"/>
      <point x="184.5" y="557" type="curve" smooth="yes"/>
      <point x="184.5" y="551.5"/>
      <point x="187" y="550"/>
      <point x="192" y="549" type="curve" smooth="yes"/>
      <point x="211.5" y="545.5"/>
      <point x="220.5" y="535.5"/>
      <point x="220.5" y="521" type="curve" smooth="yes"/>
      <point x="220.5" y="509.5"/>
      <point x="209.5" y="497"/>
    </contour>
  </outline>
</glyph>
<glyph name="quotedblright" format="2">
  <advance width="315"/>
  <unicode hex="201D"/>
  <outline>
    <contour>
      <point x="193.25" y="615" type="curve" smooth="yes"/>
      <point x="218.25" y="615"/>
      <point x="230.75" y="598"/>
      <point x="230.75" y="571" type="curve" smooth="yes"/>
      <point x="230.75" y="542"/>
      <point x="210.75" y="514.5"/>
      <point x="176.25" y="497" type="curve"/>
      <point x="165.75" y="510" type="line"/>
      <point x="192.25" y="525.5"/>
      <point x="202.25" y="541.5"/>
      <point x="202.25" y="554.5" type="curve" smooth="yes"/>
      <point x="202.25" y="560"/>
      <point x="199.75" y="562"/>
      <point x="194.75" y="563" type="curve" smooth="yes"/>
      <point x="175.25" y="566.5"/>
      <point x="166.25" y="576"/>
      <point x="166.25" y="590.5" type="curve" smooth="yes"/>
      <point x="166.25" y="602"/>
      <point x="177.25" y="615"/>
    </contour>
    <contour>
      <point x="122.25" y="615" type="curve" smooth="yes"/>
      <point x="147.25" y="615"/>
      <point x="159.75" y="598"/>
      <point x="159.75" y="571" type="curve" smooth="yes"/>
      <point x="159.75" y="542"/>
      <point x="139.75" y="514.5"/>
      <point x="105.25" y="497" type="curve"/>
      <point x="94.25" y="510" type="line"/>
      <point x="120.75" y="525.5"/>
      <point x="130.75" y="541.5"/>
      <point x="130.75" y="554.5" type="curve" smooth="yes"/>
      <point x="130.75" y="560"/>
      <point x="128.75" y="562"/>
      <point x="123.75" y="563" type="curve" smooth="yes"/>
      <point x="104.25" y="566.5"/>
      <point x="95.25" y="576"/>
      <point x="95.25" y="590.5" type="curve" smooth="yes"/>
      <point x="95.25" y="602"/>
      <point x="106.25" y="615"/>
    </contour>
  </outline>
</glyph>
<glyph name="ellipsis" format="2">
  <advance width="626"/>
  <unicode hex="2026"/>
  <outline>
    <contour>
      <point x="454.287" y="40.5742" type="curve" smooth="yes"/>
      <point x="454.287" y="24.0859"/>
      <point x="440.9" y="10.6982"/>
      <point x="424.412" y="10.6982" type="curve" smooth="yes"/>
      <point x="407.925" y="10.7002"/>
      <point x="394.54" y="24.0869"/>
      <point x="394.54" y="40.5742" type="curve" smooth="yes"/>
      <point x="394.54" y="57.0625"/>
      <point x="407.925" y="70.4482"/>
      <point x="424.412" y="70.4512" type="curve" smooth="yes"/>
      <point x="440.9" y="70.4502"/>
      <point x="454.287" y="57.0635"/>
    </contour>
    <contour>
      <point x="342.679" y="40.5742" type="curve" smooth="yes"/>
      <point x="342.679" y="24.0869"/>
      <point x="329.294" y="10.7002"/>
      <point x="312.807" y="10.6982" type="curve" smooth="yes"/>
      <point x="296.318" y="10.6982"/>
      <point x="282.931" y="24.0859"/>
      <point x="282.931" y="40.5742" type="curve" smooth="yes"/>
      <point x="282.931" y="57.0635"/>
      <point x="296.318" y="70.4502"/>
      <point x="312.807" y="70.4512" type="curve" smooth="yes"/>
      <point x="329.294" y="70.4482"/>
      <point x="342.679" y="57.0625"/>
    </contour>
    <contour>
      <point x="231.073" y="40.5742" type="curve" smooth="yes"/>
      <point x="231.073" y="24.0859"/>
      <point x="217.687" y="10.6982"/>
      <point x="201.197" y="10.6982" type="curve" smooth="yes"/>
      <point x="184.708" y="10.6982"/>
      <point x="171.321" y="24.0859"/>
      <point x="171.321" y="40.5742" type="curve" smooth="yes"/>
      <point x="171.321" y="57.0635"/>
      <point x="184.708" y="70.4502"/>
      <point x="201.197" y="70.4512" type="curve" smooth="yes"/>
      <point x="217.687" y="70.4502"/>
      <point x="231.073" y="57.0635"/>
    </contour>
  </outline>
</glyph>
<glyph name="a.init" format="2">
  <advance width="615"/>
  <unicode hex="E000"/>
  <outline>
    <contour>
      <point x="614.959" y="483.065" type="line"/>
      <point x="614.959" y="439.995" type="line"/>
      <point x="528.623" y="439.992" type="line"/>
      <point x="528.619" y="434.582"/>
      <point x="528.617" y="429.091"/>
      <point x="528.617" y="423.521" type="curve" smooth="yes"/>
      <point x="528.617" y="222.139"/>
      <point x="529.201" y="144.561"/>
      <point x="532.705" y="90.2539" type="curve"/>
      <point x="576.309" y="66.4443" type="line" smooth="yes"/>
      <point x="585.636" y="61.3516"/>
      <point x="588.839" y="54.5117"/>
      <point x="588.839" y="47.6934" type="curve" smooth="yes"/>
      <point x="588.839" y="17.8359"/>
      <point x="515.964" y="-18.0205"/>
      <point x="493.648" y="-24.002" type="curve"/>
      <point x="470.347" y="6.35362"/>
      <point x="448.974" y="38.9231"/>
      <point x="428.703" y="70.4944" type="curve"/>
      <point x="390.29" y="40.1821"/>
      <point x="348.8" y="9.46898"/>
      <point x="328.064" y="-4.54102" type="curve" smooth="yes"/>
      <point x="314.752" y="-13.5361"/>
      <point x="298.164" y="-22.584"/>
      <point x="254.537" y="-22.584" type="curve" smooth="yes"/>
      <point x="164.877" y="-22.584"/>
      <point x="33.876" y="22.085"/>
      <point x="33.876" y="235.445" type="curve" smooth="yes"/>
      <point x="33.876" y="397.451"/>
      <point x="118.429" y="430.199"/>
      <point x="231.742" y="463.477" type="curve" smooth="yes"/>
      <point x="281.218" y="478.008"/>
      <point x="331.762" y="483.06"/>
      <point x="429.686" y="483.062" type="curve" smooth="yes"/>
      <point x="430.157" y="483.062"/>
      <point x="430.629" y="483.062"/>
      <point x="431.101" y="483.062" type="curve"/>
      <point x="431.101" y="541.974"/>
      <point x="431.1" y="600.886"/>
      <point x="431.1" y="659.798" type="curve"/>
      <point x="388.748" y="675.49"/>
      <point x="369.717" y="681.579"/>
      <point x="369.717" y="697.499" type="curve" smooth="yes"/>
      <point x="369.717" y="711.479"/>
      <point x="369.717" y="731.487"/>
      <point x="534.63" y="738.968" type="curve"/>
      <point x="531.019" y="704.398"/>
      <point x="529.095" y="625.29"/>
      <point x="528.696" y="483.064" type="curve"/>
    </contour>
    <contour>
      <point x="431.101" y="439.989" type="line"/>
      <point x="237.207" y="439.989"/>
      <point x="133.142" y="439.989"/>
      <point x="133.142" y="271.037" type="curve" smooth="yes"/>
      <point x="133.142" y="89.8174"/>
      <point x="222.84" y="58.5479"/>
      <point x="291.112" y="58.5479" type="curve" smooth="yes"/>
      <point x="353.154" y="58.5479"/>
      <point x="391.675" y="83.7785"/>
      <point x="429.822" y="129.385" type="curve"/>
      <point x="430.89" y="208.154"/>
      <point x="431.102" y="322.76"/>
      <point x="431.102" y="411.996" type="curve" smooth="yes"/>
    </contour>
  </outline>
</glyph>
<glyph name="a.fina" format="2">
  <advance width="530"/>
  <unicode hex="E002"/>
  <outline>
    <contour>
      <point x="280.085" y="256.146" type="curve"/>
      <point x="284.758" y="256.445"/>
      <point x="289.288" y="256.597"/>
      <point x="293.668" y="256.597" type="curve" smooth="yes"/>
      <point x="343.717" y="256.597"/>
      <point x="374.243" y="236.939"/>
      <point x="374.243" y="194.232" type="curve" smooth="yes"/>
      <point x="374.243" y="128.536"/>
      <point x="317.42" y="87.4658"/>
      <point x="268.923" y="69.2871" type="curve" smooth="yes"/>
      <point x="224.688" y="52.707"/>
      <point x="207.286" y="47.1787"/>
      <point x="191.242" y="44.9277" type="curve"/>
      <point x="191.242" y="-52.0957" type="line"/>
      <point x="180.376" y="-57.9629"/>
      <point x="164.154" y="-63.7363"/>
      <point x="150.611" y="-66.6143" type="curve"/>
      <point x="150.611" y="233.24" type="line"/>
      <point x="119.558" y="233.24" type="line"/>
      <point x="119.558" y="251.187" type="line"/>
      <point x="142.012" y="251.187" type="line"/>
      <point x="160.184" y="257.636"/>
      <point x="175.188" y="262.117"/>
      <point x="193.308" y="266.254" type="curve"/>
      <point x="192.512" y="259.629"/>
      <point x="191.717" y="244.373"/>
      <point x="191.394" y="229.15" type="curve"/>
      <point x="235.162" y="244.251"/>
      <point x="266.909" y="252.867"/>
    </contour>
    <contour>
      <point x="191.242" y="68.8428" type="line"/>
      <point x="192.395" y="68.8066"/>
      <point x="193.555" y="68.7891"/>
      <point x="194.72" y="68.7891" type="curve" smooth="yes"/>
      <point x="255.488" y="68.7891"/>
      <point x="332.15" y="116.817"/>
      <point x="332.15" y="185.96" type="curve" smooth="yes"/>
      <point x="332.15" y="225.718"/>
      <point x="305.632" y="235.201"/>
      <point x="274.245" y="235.201" type="curve" smooth="yes"/>
      <point x="243.641" y="235.201"/>
      <point x="203.274" y="214.379"/>
      <point x="191.242" y="202.443" type="curve"/>
    </contour>
  </outline>
</glyph>
<glyph name="b.medi" format="2">
  <advance width="626"/>
  <unicode hex="E004"/>
  <outline>
    <contour>
      <point x="180.373" y="543.949" type="curve"/>
      <point x="172.94" y="483.252"/>
      <point x="167.145" y="396.105"/>
      <point x="167.145" y="324.49" type="curve" smooth="yes"/>
      <point x="167.145" y="188.345"/>
      <point x="176.845" y="132.494"/>
      <point x="200.392" y="100.252" type="curve" smooth="yes"/>
      <point x="225.774" y="65.4971"/>
      <point x="269.866" y="54.4336"/>
      <point x="310.134" y="54.4336" type="curve" smooth="yes"/>
      <point x="352.128" y="54.4336"/>
      <point x="404.763" y="85.6264"/>
      <point x="440.661" y="116.596" type="curve"/>
      <point x="441.765" y="164.537"/>
      <point x="441.981" y="209.923"/>
      <point x="441.981" y="300.357" type="curve" smooth="yes"/>
      <point x="441.981" y="342.742"/>
      <point x="441.797" y="379.966"/>
      <point x="441.047" y="408.497" type="curve"/>
      <point x="410.098" y="425.138"/>
      <point x="394.326" y="437.996"/>
      <point x="394.326" y="450.412" type="curve" smooth="yes"/>
      <point x="394.326" y="465.094"/>
      <point x="422.224" y="485.999"/>
      <point x="500.18" y="534.761" type="curve"/>
      <point x="542.921" y="483.058" type="line"/>
      <point x="625.837" y="483.063" type="line"/>
      <point x="625.837" y="439.992" type="line"/>
      <point x="541.768" y="439.992" type="line"/>
      <point x="540.6" y="418.678"/>
      <point x="539.496" y="380.926"/>
      <point x="539.496" y="306.99" type="curve" smooth="yes"/>
      <point x="539.496" y="184.988"/>
      <point x="540.08" y="135.216"/>
      <point x="543.583" y="80.9092" type="curve"/>
      <point x="588.621" y="66.4443" type="line" smooth="yes"/>
      <point x="598.742" y="63.1943"/>
      <point x="601.153" y="54.5127"/>
      <point x="601.153" y="47.6934" type="curve" smooth="yes"/>
      <point x="601.153" y="17.8359"/>
      <point x="532.532" y="-18.0234"/>
      <point x="510.217" y="-24.0039" type="curve"/>
      <point x="490.148" y="0.737699"/>
      <point x="462.766" y="38.0879"/>
      <point x="447.492" y="61.8083" type="curve"/>
      <point x="398.463" y="37.2598"/>
      <point x="320.332" y="-2.84787"/>
      <point x="293.323" y="-16.3242" type="curve" smooth="yes"/>
      <point x="283.85" y="-21.0508"/>
      <point x="276.267" y="-22.5811"/>
      <point x="250.585" y="-22.5811" type="curve" smooth="yes"/>
      <point x="197.777" y="-22.5811"/>
      <point x="150.196" y="-1.90137"/>
      <point x="121.95" y="34.1807" type="curve" smooth="yes"/>
      <point x="81.9785" y="85.2412"/>
      <point x="70.2148" y="134.531"/>
      <point x="70.2148" y="309.919" type="curve" smooth="yes"/>
      <point x="70.2148" y="337.586"/>
      <point x="70.2333" y="357.914"/>
      <point x="70.2333" y="374.544" type="curve" smooth="yes"/>
      <point x="70.2333" y="400.808"/>
      <point x="70.1872" y="417.847"/>
      <point x="69.9492" y="439.996" type="curve"/>
      <point x="-0.000976562" y="439.996" type="line"/>
      <point x="-9.34375" y="461.534" type="line"/>
      <point x="-0.000976562" y="483.071" type="line"/>
      <point x="55.123" y="483.066" type="line"/>
      <point x="67.5488" y="497.825"/>
      <point x="132.788" y="531.383"/>
    </contour>
    <contour>
      <point x="373.678" y="662.947" type="curve" smooth="yes"/>
      <point x="373.678" y="626.55"/>
      <point x="344.127" y="597"/>
      <point x="307.729" y="596.999" type="curve" smooth="yes"/>
      <point x="271.332" y="596.999"/>
      <point x="241.781" y="626.55"/>
      <point x="241.781" y="662.947" type="curve" smooth="yes"/>
      <point x="241.781" y="699.345"/>
      <point x="271.332" y="728.896"/>
      <point x="307.729" y="728.896" type="curve" smooth="yes"/>
      <point x="344.128" y="728.896"/>
      <point x="373.678" y="699.345"/>
    </contour>
  </outline>
</glyph>
<glyph name="b.fina" format="2">
  <advance width="557"/>
  <unicode hex="E005"/>
  <outline>
    <contour>
      <point x="334.327" y="662.96" type="curve" smooth="yes"/>
      <point x="334.327" y="626.537"/>
      <point x="304" y="597"/>
      <point x="268" y="597" type="curve" smooth="yes"/>
      <point x="232" y="597"/>
      <point x="202.431" y="626.536"/>
      <point x="202.431" y="662.958" type="curve" smooth="yes"/>
      <point x="202.431" y="699.39"/>
      <point x="232" y="729"/>
      <point x="268" y="729" type="curve" smooth="yes"/>
      <point x="304" y="729"/>
      <point x="334.327" y="699.382"/>
    </contour>
    <contour>
      <point x="486.232" y="32.7371" type="curve" smooth="yes"/>
      <point x="486.232" y="16.6605"/>
      <point x="396.915" y="-22.5742"/>
      <point x="319.976" y="-22.5742" type="curve" smooth="yes"/>
      <point x="154.98" y="-22.5742"/>
      <point x="29.5293" y="92.2031"/>
      <point x="29.5293" y="249.101" type="curve" smooth="yes"/>
      <point x="29.5293" y="384.507"/>
      <point x="118.336" y="421.981"/>
      <point x="181.436" y="437.258" type="curve"/>
      <point x="181.436" y="439.995" type="line"/>
      <point x="0.00292969" y="439.995" type="line"/>
      <point x="-9.33984" y="461.532" type="line"/>
      <point x="0.00292969" y="483.064" type="line"/>
      <point x="286.637" y="483.064" type="line" smooth="yes"/>
      <point x="405.601" y="483.064"/>
      <point x="516.29" y="494.511"/>
      <point x="524.675" y="495.46" type="curve"/>
      <point x="515.458" y="453.743"/>
      <point x="489.284" y="418.207"/>
      <point x="467.255" y="418.207" type="curve" smooth="yes"/>
      <point x="464.312" y="418.207"/>
      <point x="458.607" y="420.013"/>
      <point x="450.249" y="422.658" type="curve" smooth="yes"/>
      <point x="427.368" y="429.9"/>
      <point x="384.607" y="443.435"/>
      <point x="324.215" y="443.435" type="curve" smooth="yes"/>
      <point x="215.935" y="443.435"/>
      <point x="129.138" y="392.554"/>
      <point x="129.138" y="274.188" type="curve" smooth="yes"/>
      <point x="129.138" y="126.536"/>
      <point x="246.315" y="29.9541"/>
      <point x="385.215" y="29.9541" type="curve" smooth="yes"/>
      <point x="421.468" y="29.9541"/>
      <point x="441.277" y="33.7963"/>
      <point x="455.637" y="36.5814" type="curve" smooth="yes"/>
      <point x="463.8" y="38.1646"/>
      <point x="470.202" y="39.4062"/>
      <point x="476.861" y="39.4062" type="curve" smooth="yes"/>
      <point x="483.302" y="39.4062"/>
      <point x="486.232" y="36.4866"/>
    </contour>
  </outline>
</glyph>
<glyph name="c.init" format="2">
  <advance width="424"/>
  <unicode hex="E006"/>
  <outline>
    <contour>
      <point x="178.644" y="236.664" type="line"/>
      <point x="178.644" y="-48.6748" type="line"/>
      <point x="167.776" y="-54.541"/>
      <point x="151.557" y="-60.3135"/>
      <point x="138.013" y="-63.1924" type="curve"/>
      <point x="138.013" y="230.247" type="line"/>
      <point x="117.148" y="252.628" type="line"/>
      <point x="128.642" y="259.095"/>
      <point x="153.917" y="271.553"/>
      <point x="167.515" y="276.53" type="curve"/>
      <point x="180.768" y="254.61" type="line"/>
      <point x="326.26" y="254.61" type="line"/>
      <point x="326.26" y="236.664" type="line"/>
      <point x="295.204" y="236.664" type="line"/>
      <point x="295.204" y="57.3135" type="line"/>
      <point x="284.339" y="51.4473"/>
      <point x="268.117" y="45.6738"/>
      <point x="254.573" y="42.7949" type="curve"/>
      <point x="254.573" y="236.664" type="line"/>
    </contour>
  </outline>
</glyph>
<glyph name="c.medi" format="2">
  <advance width="423"/>
  <unicode hex="E007"/>
  <outline>
    <contour>
      <point x="101.865" y="243.651" type="line"/>
      <point x="321.166" y="243.651" type="line"/>
      <point x="321.166" y="225.705" type="line"/>
      <point x="290.11" y="225.705" type="line"/>
      <point x="290.11" y="46.3545" type="line"/>
      <point x="279.244" y="40.4873"/>
      <point x="263.023" y="34.7139"/>
      <point x="249.479" y="31.8359" type="curve"/>
      <point x="249.479" y="225.705" type="line"/>
      <point x="173.549" y="225.705" type="line"/>
      <point x="173.549" y="-59.6338" type="line"/>
      <point x="162.682" y="-65.501"/>
      <point x="146.462" y="-71.2734"/>
      <point x="132.918" y="-74.1523" type="curve"/>
      <point x="132.918" y="225.705" type="line"/>
      <point x="101.865" y="225.705" type="line"/>
    </contour>
  </outline>
</glyph>
<glyph name="c.fina" format="2">
  <advance width="424"/>
  <unicode hex="E008"/>
  <outline>
    <contour>
      <point x="277.679" y="266.042" type="curve"/>
      <point x="276.646" y="257.439"/>
      <point x="275.614" y="234.292"/>
      <point x="275.614" y="215.554" type="curve" smooth="yes"/>
      <point x="275.614" y="53.8174" type="line"/>
      <point x="264.747" y="47.9512"/>
      <point x="248.527" y="42.1777"/>
      <point x="234.983" y="39.2988" type="curve"/>
      <point x="234.983" y="233.024" type="line"/>
      <point x="159.054" y="233.099" type="line"/>
      <point x="159.054" y="-52.1709" type="line"/>
      <point x="148.187" y="-58.0371"/>
      <point x="131.966" y="-63.8096"/>
      <point x="118.423" y="-66.6885" type="curve"/>
      <point x="118.423" y="233.139" type="line"/>
      <point x="87.3691" y="233.169" type="line"/>
      <point x="87.3691" y="251.114" type="line"/>
      <point x="226.384" y="250.974" type="line"/>
      <point x="244.555" y="257.423"/>
      <point x="259.56" y="261.904"/>
    </contour>
  </outline>
</glyph>
<glyph name="d.init" format="2">
  <advance width="540"/>
  <unicode hex="E009"/>
  <outline>
    <contour>
      <point x="68.6176" y="452.161" type="curve" smooth="yes"/>
      <point x="49.5285" y="452.161"/>
      <point x="45.1638" y="457.199"/>
      <point x="45.1638" y="464.703" type="curve" smooth="yes"/>
      <point x="45.1638" y="479.838"/>
      <point x="70.424" y="497.561"/>
      <point x="124.898" y="535.782" type="curve" smooth="yes"/>
      <point x="136.451" y="543.888"/>
      <point x="149.318" y="552.916"/>
      <point x="163.537" y="563.037" type="curve"/>
      <point x="210.094" y="503.595"/>
      <point x="325.513" y="419.509"/>
      <point x="430.048" y="372.546" type="curve"/>
      <point x="436.531" y="406.861"/>
      <point x="439.878" y="444.818"/>
      <point x="439.878" y="486.679" type="curve" smooth="yes"/>
      <point x="439.878" y="515.897"/>
      <point x="438.729" y="539.475"/>
      <point x="437.615" y="560.488" type="curve"/>
      <point x="389.792" y="575.098"/>
      <point x="373.496" y="583.357"/>
      <point x="373.496" y="596.155" type="curve" smooth="yes"/>
      <point x="373.496" y="612.269"/>
      <point x="401.907" y="625.339"/>
      <point x="494.575" y="653.847" type="curve"/>
      <point x="487.149" y="612.194"/>
      <point x="483.809" y="567.1"/>
      <point x="483.801" y="483.063" type="curve"/>
      <point x="553.658" y="483.066" type="line"/>
      <point x="553.658" y="439.996" type="line"/>
      <point x="482.865" y="439.993" type="line"/>
      <point x="470.674" y="167.349"/>
      <point x="340.318" y="36.1528"/>
      <point x="150.544" y="-22.3877" type="curve"/>
      <point x="126.935" y="12.793"/>
      <point x="85.4814" y="51.4512"/>
      <point x="21.7871" y="68.5176" type="curve" smooth="yes"/>
      <point x="15.5118" y="70.1993"/>
      <point x="12.5986" y="74.6888"/>
      <point x="12.5986" y="79.2375" type="curve" smooth="yes"/>
      <point x="12.5986" y="85.1462"/>
      <point x="17.5141" y="91.1548"/>
      <point x="26.3613" y="91.2393" type="curve" smooth="yes"/>
      <point x="233.225" y="93.2104"/>
      <point x="378.929" y="162.466"/>
      <point x="424.64" y="347.649" type="curve"/>
      <point x="315.559" y="375.799"/>
      <point x="209.343" y="408.244"/>
      <point x="112.754" y="456.924" type="curve"/>
      <point x="95.6596" y="454.102"/>
      <point x="80.3126" y="452.161"/>
    </contour>
  </outline>
</glyph>
<glyph name="d.medi" format="2">
  <advance width="228"/>
  <unicode hex="E00A"/>
  <outline>
    <contour>
      <point x="314.823" y="728.887" type="curve" smooth="yes"/>
      <point x="397.768" y="728.887"/>
      <point x="445.197" y="690.734"/>
      <point x="445.197" y="677.263" type="curve" smooth="yes"/>
      <point x="445.197" y="652.231"/>
      <point x="405.701" y="621.313"/>
      <point x="360.006" y="614.298" type="curve"/>
      <point x="339.844" y="656.233"/>
      <point x="307.023" y="683.302"/>
      <point x="263.573" y="683.302" type="curve" smooth="yes"/>
      <point x="208.578" y="683.302"/>
      <point x="162.89" y="643"/>
      <point x="162.701" y="483.079" type="curve"/>
      <point x="227.886" y="483.084" type="line"/>
      <point x="227.886" y="440.018" type="line"/>
      <point x="162.699" y="440.013" type="line"/>
      <point x="162.699" y="426.824"/>
      <point x="162.697" y="414.369"/>
      <point x="162.697" y="402.134" type="curve" smooth="yes"/>
      <point x="162.697" y="148.378"/>
      <point x="168.96" y="47.2061"/>
      <point x="168.96" y="10.627" type="curve" smooth="yes"/>
      <point x="168.96" y="-6.61035"/>
      <point x="119.891" y="-15.5254"/>
      <point x="98.4102" y="-15.5254" type="curve" smooth="yes"/>
      <point x="67.1992" y="-15.5254"/>
      <point x="59.8047" y="-12.1904"/>
      <point x="59.8047" y="-6.04883" type="curve" smooth="yes"/>
      <point x="59.8047" y="6.88965"/>
      <point x="65.1875" y="43.8076"/>
      <point x="65.1875" y="417.804" type="curve" smooth="yes"/>
      <point x="65.1875" y="424.957"/>
      <point x="65.1487" y="432.508"/>
      <point x="65.1178" y="440.005" type="curve"/>
      <point x="0" y="440" type="line"/>
      <point x="-9.34375" y="461.533" type="line"/>
      <point x="0" y="483.065" type="line"/>
      <point x="65.4926" y="483.071" type="line"/>
      <point x="72.0615" y="643.151"/>
      <point x="177.23" y="728.887"/>
    </contour>
  </outline>
</glyph>
<glyph name="d.fina" format="2">
  <advance width="190"/>
  <unicode hex="E00B"/>
  <outline>
    <contour>
      <point x="99.7402" y="403.593" type="curve"/>
      <point x="99.7402" y="-6.32031" type="line"/>
      <point x="88.873" y="-12.1865"/>
      <point x="72.6533" y="-17.96"/>
      <point x="59.1094" y="-20.8389" type="curve"/>
      <point x="59.1094" y="279.019" type="line"/>
      <point x="28.0557" y="279.019" type="line"/>
      <point x="28.0557" y="296.965" type="line"/>
      <point x="59.1094" y="296.965" type="line"/>
      <point x="59.1094" y="369.974" type="line"/>
      <point x="41.1035" y="390.126" type="line"/>
      <point x="56.6914" y="394.99"/>
      <point x="83.207" y="401.335"/>
    </contour>
  </outline>
</glyph>
<glyph name="e.init" format="2">
  <advance width="446"/>
  <unicode hex="E00C"/>
  <outline>
    <contour>
      <point x="48.5683" y="54.8865" type="curve" smooth="yes"/>
      <point x="48.5683" y="98.0363"/>
      <point x="36.4627" y="129.859"/>
      <point x="36.4627" y="135.595" type="curve" smooth="yes"/>
      <point x="36.4627" y="142.905"/>
      <point x="41.6468" y="147.125"/>
      <point x="47.1165" y="147.125" type="curve" smooth="yes"/>
      <point x="50.872" y="147.125"/>
      <point x="54.7621" y="145.135"/>
      <point x="57.2012" y="140.792" type="curve" smooth="yes"/>
      <point x="104.492" y="56.5879"/>
      <point x="163.444" y="33.2207"/>
      <point x="213.663" y="33.2207" type="curve" smooth="yes"/>
      <point x="279.563" y="33.2207"/>
      <point x="313.938" y="73.6816"/>
      <point x="313.938" y="131.188" type="curve" smooth="yes"/>
      <point x="313.938" y="176.518"/>
      <point x="291.364" y="195.314"/>
      <point x="243.967" y="207.206" type="curve" smooth="yes"/>
      <point x="151.729" y="230.347" type="line" smooth="yes"/>
      <point x="88.1943" y="246.286"/>
      <point x="51.5615" y="272.262"/>
      <point x="51.5615" y="331.242" type="curve" smooth="yes"/>
      <point x="51.5615" y="377.21"/>
      <point x="70.9544" y="411.604"/>
      <point x="119.386" y="441.314" type="curve"/>
      <point x="73.002" y="471.713"/>
      <point x="63.4804" y="481.191"/>
      <point x="63.4804" y="493.239" type="curve" smooth="yes"/>
      <point x="63.4804" y="509.504"/>
      <point x="105.997" y="530.359"/>
      <point x="206.931" y="544.043" type="curve"/>
      <point x="209.013" y="483.069" type="line"/>
      <point x="445.677" y="483.066" type="line"/>
      <point x="445.677" y="439.998" type="line"/>
      <point x="228.492" y="439.998" type="line" smooth="yes"/>
      <point x="157.721" y="439.998"/>
      <point x="133.617" y="406.721"/>
      <point x="133.617" y="376.721" type="curve" smooth="yes"/>
      <point x="133.617" y="338.646"/>
      <point x="154.221" y="321.477"/>
      <point x="203.707" y="310.561" type="curve" smooth="yes"/>
      <point x="302.131" y="288.851" type="line" smooth="yes"/>
      <point x="377.519" y="272.222"/>
      <point x="411.046" y="239.917"/>
      <point x="411.046" y="163.133" type="curve" smooth="yes"/>
      <point x="411.046" y="61.2529"/>
      <point x="315.494" y="-20.7344"/>
      <point x="181.601" y="-20.7344" type="curve" smooth="yes"/>
      <point x="138.497" y="-20.7344"/>
      <point x="70.2939" y="-10.5322"/>
      <point x="39.1377" y="2.52832" type="curve"/>
      <point x="45.6257" y="15.9345"/>
      <point x="48.5683" y="34.4311"/>
    </contour>
  </outline>
</glyph>
<glyph name="e.medi" format="2">
  <advance width="445"/>
  <unicode hex="E00D"/>
  <outline>
    <contour>
      <point x="107.318" y="297.834" type="line"/>
      <point x="337.526" y="297.834" type="line"/>
      <point x="337.526" y="279.888" type="line"/>
      <point x="306.474" y="279.888" type="line"/>
      <point x="306.474" y="172.112" type="line" smooth="yes"/>
      <point x="306.474" y="130.705"/>
      <point x="288.529" y="115.298"/>
      <point x="269.364" y="106.113" type="curve" smooth="yes"/>
      <point x="258.143" y="100.736"/>
      <point x="229.724" y="88.3955"/>
      <point x="205.321" y="88.3955" type="curve" smooth="yes"/>
      <point x="172.821" y="88.3955"/>
      <point x="138.372" y="105.143"/>
      <point x="138.372" y="156.462" type="curve" smooth="yes"/>
      <point x="138.372" y="279.888" type="line"/>
      <point x="107.318" y="279.888" type="line"/>
    </contour>
    <contour>
      <point x="179.002" y="279.888" type="line"/>
      <point x="179.002" y="168.239" type="line" smooth="yes"/>
      <point x="179.002" y="127.003"/>
      <point x="198.144" y="111.303"/>
      <point x="224.725" y="111.303" type="curve" smooth="yes"/>
      <point x="247.701" y="111.303"/>
      <point x="265.843" y="125.641"/>
      <point x="265.843" y="160.335" type="curve" smooth="yes"/>
      <point x="265.843" y="279.888" type="line"/>
    </contour>
  </outline>
</glyph>
<glyph name="e.fina" format="2">
  <advance width="344"/>
  <unicode hex="E00E"/>
  <outline>
    <contour>
      <point x="237.462" y="149.323" type="curve"/>
      <point x="228.323" y="122.861" type="line"/>
      <point x="218.171" y="125.614"/>
      <point x="194.223" y="128.214"/>
      <point x="183.681" y="128.214" type="curve" smooth="yes"/>
      <point x="145.647" y="128.214" type="line"/>
      <point x="145.647" y="-52.1006" type="line"/>
      <point x="134.781" y="-57.9668"/>
      <point x="118.561" y="-63.7402"/>
      <point x="105.018" y="-66.6191" type="curve"/>
      <point x="105.018" y="233.238" type="line"/>
      <point x="73.9639" y="233.238" type="line"/>
      <point x="73.9639" y="251.185" type="line"/>
      <point x="96.418" y="251.185" type="line"/>
      <point x="114.589" y="257.634"/>
      <point x="129.594" y="262.115"/>
      <point x="147.712" y="266.253" type="curve"/>
      <point x="146.681" y="257.65"/>
      <point x="145.647" y="234.503"/>
      <point x="145.647" y="215.765" type="curve" smooth="yes"/>
      <point x="145.647" y="146.16" type="line"/>
      <point x="183.925" y="146.16" type="line" smooth="yes"/>
      <point x="195.646" y="146.16"/>
      <point x="229.433" y="148.715"/>
    </contour>
  </outline>
</glyph>
<glyph name="f.init" format="2">
  <advance width="675"/>
  <unicode hex="E00F"/>
  <outline>
    <contour>
      <point x="242.931" y="238.402" type="line"/>
      <point x="268.824" y="246.913"/>
      <point x="291.777" y="253.554"/>
      <point x="307.036" y="257.328" type="curve" smooth="yes"/>
      <point x="314.569" y="258.271"/>
      <point x="322.056" y="258.723"/>
      <point x="329.423" y="258.723" type="curve" smooth="yes"/>
      <point x="359.195" y="258.723"/>
      <point x="387.026" y="251.344"/>
      <point x="408.213" y="239.136" type="curve"/>
      <point x="408.213" y="229.936" type="line"/>
      <point x="365.811" y="210.05"/>
      <point x="334.56" y="172.502"/>
      <point x="334.56" y="130.711" type="curve" smooth="yes"/>
      <point x="334.56" y="86.8076"/>
      <point x="370.702" y="63.873"/>
      <point x="398.756" y="63.873" type="curve" smooth="yes"/>
      <point x="420.511" y="63.873"/>
      <point x="444.581" y="82.3896"/>
      <point x="444.581" y="119.146" type="curve" smooth="yes"/>
      <point x="444.581" y="230.248" type="line"/>
      <point x="423.718" y="252.628" type="line"/>
      <point x="435.21" y="259.095"/>
      <point x="460.484" y="271.555"/>
      <point x="474.082" y="276.531" type="curve"/>
      <point x="487.335" y="254.611" type="line"/>
      <point x="516.265" y="254.611" type="line"/>
      <point x="516.265" y="236.665" type="line"/>
      <point x="485.212" y="236.665" type="line"/>
      <point x="485.212" y="128.604" type="line" smooth="yes"/>
      <point x="485.212" y="82.6689"/>
      <point x="455.979" y="55.415"/>
      <point x="428.423" y="50.4824" type="curve" smooth="yes"/>
      <point x="422.589" y="49.4385"/>
      <point x="390.904" y="43.7734"/>
      <point x="376.977" y="43.7734" type="curve" smooth="yes"/>
      <point x="340.917" y="43.7734"/>
      <point x="294.12" y="67.9795"/>
      <point x="294.12" y="121.549" type="curve" smooth="yes"/>
      <point x="294.12" y="168.273"/>
      <point x="319.95" y="204.121"/>
      <point x="365.199" y="227.883" type="curve"/>
      <point x="351.405" y="235.405"/>
      <point x="333.413" y="239.088"/>
      <point x="311.166" y="239.088" type="curve" smooth="yes"/>
      <point x="292.211" y="239.088"/>
      <point x="263.748" y="233.62"/>
      <point x="242.931" y="223.579" type="curve"/>
      <point x="242.931" y="-48.6738" type="line"/>
      <point x="232.063" y="-54.541"/>
      <point x="215.844" y="-60.3135"/>
      <point x="202.3" y="-63.1924" type="curve"/>
      <point x="202.3" y="236.062" type="line"/>
      <point x="184.293" y="256.212" type="line"/>
      <point x="199.882" y="261.077"/>
      <point x="226.396" y="267.421"/>
      <point x="242.931" y="269.68" type="curve"/>
    </contour>
  </outline>
</glyph>
<glyph name="f.medi" format="2">
  <advance width="230"/>
  <unicode hex="E010"/>
  <outline>
    <contour>
      <point x="0" y="483.066" type="line"/>
      <point x="230.494" y="483.066" type="line"/>
      <point x="230.494" y="440" type="line"/>
      <point x="166.056" y="440" type="line"/>
      <point x="164.855" y="383.909"/>
      <point x="164.392" y="303.21"/>
      <point x="164.392" y="238.981" type="curve" smooth="yes"/>
      <point x="164.392" y="98.1211"/>
      <point x="170.242" y="38.3652"/>
      <point x="170.242" y="8.55762" type="curve" smooth="yes"/>
      <point x="170.242" y="-9.40527"/>
      <point x="122.461" y="-15.2754"/>
      <point x="96.6074" y="-15.2754" type="curve" smooth="yes"/>
      <point x="70.2744" y="-15.2754"/>
      <point x="63.3643" y="-9.80469"/>
      <point x="63.3643" y="-2.20605" type="curve" smooth="yes"/>
      <point x="63.3643" y="33.7158"/>
      <point x="67.2109" y="63.7266"/>
      <point x="67.2109" y="283.542" type="curve" smooth="yes"/>
      <point x="67.2109" y="362.043"/>
      <point x="67.1143" y="388.787"/>
      <point x="66.8584" y="405.822" type="curve"/>
      <point x="44.06" y="418.081"/>
      <point x="29.496" y="429.744"/>
      <point x="23.4061" y="440" type="curve"/>
      <point x="0" y="440" type="line"/>
      <point x="-9.34277" y="461.888" type="line"/>
    </contour>
  </outline>
</glyph>
<glyph name="f.fina" format="2">
  <advance width="440"/>
  <unicode hex="E011"/>
  <outline>
    <contour>
      <point x="349.275" y="299.976" type="curve"/>
      <point x="364.598" y="305.458"/>
      <point x="368.151" y="306.424"/>
      <point x="372.997" y="306.424" type="curve" smooth="yes"/>
      <point x="380.238" y="306.424"/>
      <point x="383.827" y="302.838"/>
      <point x="383.827" y="297.957" type="curve" smooth="yes"/>
      <point x="383.827" y="292.191"/>
      <point x="378.818" y="284.618"/>
      <point x="368.903" y="279.014" type="curve" smooth="yes"/>
      <point x="284.273" y="231.175"/>
      <point x="180.665" y="129.162"/>
      <point x="138.36" y="23.335" type="curve" smooth="yes"/>
      <point x="126.077" y="-7.38867"/>
      <point x="109.727" y="-17.5264"/>
      <point x="90.1084" y="-17.5264" type="curve" smooth="yes"/>
      <point x="64.6016" y="-17.5264"/>
      <point x="42.4766" y="8.56934"/>
      <point x="42.4766" y="38.8467" type="curve" smooth="yes"/>
      <point x="42.4766" y="119.973"/>
      <point x="173.531" y="226.44"/>
      <point x="311.554" y="285.191" type="curve"/>
      <point x="232.685" y="319.414"/>
      <point x="128.042" y="380.759"/>
      <point x="64.7858" y="439.999" type="curve"/>
      <point x="53.988" y="439.999"/>
      <point x="43.1902" y="439.998"/>
      <point x="32.3924" y="439.997" type="curve" smooth="yes"/>
      <point x="21.5946" y="439.996"/>
      <point x="10.7968" y="439.995"/>
      <point x="-0.000976562" y="439.995" type="curve"/>
      <point x="-9.34375" y="461.53" type="line"/>
      <point x="-0.000976562" y="483.065" type="line"/>
      <point x="4.76436" y="483.065"/>
      <point x="9.52969" y="483.066"/>
      <point x="14.295" y="483.066" type="curve" smooth="yes"/>
      <point x="19.0604" y="483.067"/>
      <point x="23.8257" y="483.067"/>
      <point x="28.591" y="483.067" type="curve"/>
      <point x="52.9882" y="500.466"/>
      <point x="91.5337" y="522.283"/>
      <point x="122.031" y="534.093" type="curve"/>
      <point x="129.871" y="517.297"/>
      <point x="139" y="500"/>
      <point x="151" y="483" type="curve"/>
      <point x="257" y="483" type="line" smooth="yes"/>
      <point x="358" y="483"/>
      <point x="441.725" y="493.747"/>
      <point x="447.603" y="494.677" type="curve"/>
      <point x="433.776" y="453.262"/>
      <point x="416.457" y="423.525"/>
      <point x="399.621" y="423.525" type="curve" smooth="yes"/>
      <point x="399.459" y="423.525"/>
      <point x="398.16" y="423.811"/>
      <point x="395.904" y="424.307" type="curve" smooth="yes"/>
      <point x="381.013" y="427.579"/>
      <point x="324.441" y="440.013"/>
      <point x="278.054" y="440.013" type="curve" smooth="yes"/>
      <point x="183.768" y="440.007" type="line"/>
      <point x="226.467" y="389.32"/>
      <point x="283.292" y="340.307"/>
    </contour>
  </outline>
</glyph>
<glyph name="g.init" format="2">
  <advance width="511"/>
  <unicode hex="E012"/>
  <outline>
    <contour>
      <point x="323.925" y="662.945" type="curve" smooth="yes"/>
      <point x="323.925" y="626.548"/>
      <point x="294.375" y="596.998"/>
      <point x="257.978" y="596.997" type="curve" smooth="yes"/>
      <point x="221.58" y="596.997"/>
      <point x="192.029" y="626.548"/>
      <point x="192.029" y="662.945" type="curve" smooth="yes"/>
      <point x="192.029" y="699.343"/>
      <point x="221.58" y="728.894"/>
      <point x="257.978" y="728.894" type="curve" smooth="yes"/>
      <point x="294.375" y="728.894"/>
      <point x="323.925" y="699.343"/>
    </contour>
    <contour>
      <point x="116.992" y="534.771" type="curve"/>
      <point x="166.29" y="483.07" type="line"/>
      <point x="511.08" y="483.07" type="line"/>
      <point x="511.08" y="440" type="line"/>
      <point x="446.149" y="440" type="line"/>
      <point x="446.301" y="172.263"/>
      <point x="449.713" y="78.1242"/>
      <point x="451.253" y="35.6571" type="curve" smooth="yes"/>
      <point x="451.704" y="23.2074"/>
      <point x="451.994" y="15.1985"/>
      <point x="451.994" y="8.55859" type="curve" smooth="yes"/>
      <point x="451.994" y="-9.4043"/>
      <point x="404.213" y="-15.2744"/>
      <point x="378.359" y="-15.2744" type="curve" smooth="yes"/>
      <point x="352.026" y="-15.2744"/>
      <point x="345.116" y="-9.80469"/>
      <point x="345.116" y="-2.2041" type="curve" smooth="yes"/>
      <point x="345.116" y="8.13657"/>
      <point x="345.435" y="17.9875"/>
      <point x="345.889" y="32.0176" type="curve" smooth="yes"/>
      <point x="347.013" y="66.7247"/>
      <point x="348.964" y="127.007"/>
      <point x="348.964" y="283.543" type="curve" smooth="yes"/>
      <point x="348.964" y="362.044"/>
      <point x="348.866" y="388.788"/>
      <point x="348.61" y="405.824" type="curve"/>
      <point x="325.814" y="418.082"/>
      <point x="311.25" y="429.745"/>
      <point x="305.159" y="440" type="curve"/>
      <point x="162.831" y="440" type="line"/>
      <point x="160.862" y="390.399"/>
      <point x="160.5" y="319.186"/>
      <point x="160.5" y="243.909" type="curve" smooth="yes"/>
      <point x="160.5" y="39.1182"/>
      <point x="176.623" y="-41.1689"/>
      <point x="220.227" y="-103.915" type="curve" smooth="yes"/>
      <point x="276.553" y="-184.968"/>
      <point x="366.519" y="-230.558"/>
      <point x="439.323" y="-245.713" type="curve" smooth="yes"/>
      <point x="448.824" y="-247.691"/>
      <point x="453.297" y="-253.159"/>
      <point x="453.297" y="-258.525" type="curve" smooth="yes"/>
      <point x="453.297" y="-264.931"/>
      <point x="446.923" y="-271.191"/>
      <point x="435.121" y="-271.191" type="curve" smooth="yes"/>
      <point x="334.927" y="-271.191"/>
      <point x="208.625" y="-216.66"/>
      <point x="145.505" y="-136.073" type="curve" smooth="yes"/>
      <point x="89.7383" y="-64.874"/>
      <point x="62.9912" y="6.62109"/>
      <point x="62.9912" y="270.086" type="curve" smooth="yes"/>
      <point x="62.9912" y="309.705"/>
      <point x="62.6729" y="381.906"/>
      <point x="61.8779" y="415.665" type="curve"/>
      <point x="30.8311" y="427.891"/>
      <point x="9.49219" y="436.793"/>
      <point x="9.49219" y="451.012" type="curve" smooth="yes"/>
      <point x="9.49219" y="468.742"/>
      <point x="59.374" y="503.357"/>
    </contour>
  </outline>
</glyph>
<glyph name="g.medi" format="2">
  <advance width="516"/>
  <unicode hex="E013"/>
  <outline>
    <contour>
      <point x="1459" y="875" type="move"/>
    </contour>
    <contour>
      <point x="328.597" y="662.943" type="curve" smooth="yes"/>
      <point x="328.597" y="626.546"/>
      <point x="299.046" y="596.995"/>
      <point x="262.648" y="596.995" type="curve" smooth="yes"/>
      <point x="226.251" y="596.996"/>
      <point x="196.701" y="626.546"/>
      <point x="196.7" y="662.943" type="curve" smooth="yes"/>
      <point x="196.7" y="699.341"/>
      <point x="226.251" y="728.892"/>
      <point x="262.648" y="728.892" type="curve" smooth="yes"/>
      <point x="299.046" y="728.892"/>
      <point x="328.597" y="699.341"/>
    </contour>
    <contour>
      <point x="-0.000976562" y="483.066" type="line"/>
      <point x="515.75" y="483.066" type="line"/>
      <point x="515.75" y="440" type="line"/>
      <point x="450.82" y="440" type="line"/>
      <point x="450.972" y="172.262"/>
      <point x="454.384" y="78.1224"/>
      <point x="455.923" y="35.6551" type="curve" smooth="yes"/>
      <point x="456.375" y="23.2054"/>
      <point x="456.665" y="15.1966"/>
      <point x="456.665" y="8.55664" type="curve" smooth="yes"/>
      <point x="456.665" y="-9.40625"/>
      <point x="408.884" y="-15.2764"/>
      <point x="383.03" y="-15.2764" type="curve" smooth="yes"/>
      <point x="356.697" y="-15.2764"/>
      <point x="349.787" y="-9.80664"/>
      <point x="349.787" y="-2.20605" type="curve" smooth="yes"/>
      <point x="349.787" y="8.135"/>
      <point x="350.106" y="17.9862"/>
      <point x="350.56" y="32.0167" type="curve" smooth="yes"/>
      <point x="351.683" y="66.7242"/>
      <point x="353.634" y="127.006"/>
      <point x="353.634" y="283.542" type="curve" smooth="yes"/>
      <point x="353.634" y="362.043"/>
      <point x="353.537" y="388.787"/>
      <point x="353.281" y="405.822" type="curve"/>
      <point x="330.483" y="418.081"/>
      <point x="315.919" y="429.744"/>
      <point x="309.829" y="440" type="curve"/>
      <point x="166.767" y="440" type="line"/>
      <point x="164.806" y="390.407"/>
      <point x="164.459" y="319.088"/>
      <point x="164.459" y="243.907" type="curve" smooth="yes"/>
      <point x="164.459" y="39.1162"/>
      <point x="180.581" y="-41.166"/>
      <point x="224.185" y="-103.913" type="curve" smooth="yes"/>
      <point x="280.51" y="-184.965"/>
      <point x="370.478" y="-230.558"/>
      <point x="443.281" y="-245.712" type="curve" smooth="yes"/>
      <point x="453.008" y="-247.737"/>
      <point x="457.826" y="-253.42"/>
      <point x="457.826" y="-258.906" type="curve" smooth="yes"/>
      <point x="457.826" y="-265.177"/>
      <point x="451.531" y="-271.191"/>
      <point x="439.079" y="-271.191" type="curve" smooth="yes"/>
      <point x="338.884" y="-271.191"/>
      <point x="212.582" y="-216.658"/>
      <point x="149.463" y="-136.071" type="curve" smooth="yes"/>
      <point x="93.6953" y="-64.8721"/>
      <point x="66.9492" y="6.61816"/>
      <point x="66.9492" y="270.083" type="curve" smooth="yes"/>
      <point x="66.9492" y="326.22"/>
      <point x="66.7529" y="367.38"/>
      <point x="65.9404" y="405.996" type="curve"/>
      <point x="42.457" y="415.244"/>
      <point x="26.3798" y="428.122"/>
      <point x="19.9403" y="440" type="curve"/>
      <point x="-0.000976562" y="440" type="line"/>
      <point x="-9.34375" y="461.534" type="line"/>
    </contour>
  </outline>
</glyph>
<glyph name="g.fina" format="2">
  <advance width="423"/>
  <unicode hex="E014"/>
  <outline>
    <contour>
      <point x="223.63" y="365.637" type="curve" smooth="yes"/>
      <point x="223.63" y="350.938"/>
      <point x="211.715" y="339.023"/>
      <point x="197.017" y="339.023" type="curve" smooth="yes"/>
      <point x="182.318" y="339.023"/>
      <point x="170.403" y="350.938"/>
      <point x="170.403" y="365.637" type="curve" smooth="yes"/>
      <point x="170.403" y="380.335"/>
      <point x="182.318" y="392.25"/>
      <point x="197.017" y="392.25" type="curve" smooth="yes"/>
      <point x="211.715" y="392.25"/>
      <point x="223.63" y="380.335"/>
    </contour>
    <contour>
      <point x="277.678" y="308.111" type="curve"/>
      <point x="276.646" y="299.509"/>
      <point x="275.613" y="276.361"/>
      <point x="275.613" y="257.623" type="curve" smooth="yes"/>
      <point x="275.613" y="95.8867" type="line"/>
      <point x="264.746" y="90.0205"/>
      <point x="248.526" y="84.2471"/>
      <point x="234.982" y="81.3682" type="curve"/>
      <point x="234.982" y="275.094" type="line"/>
      <point x="159.053" y="275.168" type="line"/>
      <point x="159.053" y="-10.1016" type="line"/>
      <point x="148.186" y="-15.9678"/>
      <point x="131.966" y="-21.7402"/>
      <point x="118.422" y="-24.6191" type="curve"/>
      <point x="118.422" y="275.208" type="line"/>
      <point x="87.3682" y="275.238" type="line"/>
      <point x="87.3682" y="293.184" type="line"/>
      <point x="226.383" y="293.043" type="line"/>
      <point x="244.554" y="299.492"/>
      <point x="259.559" y="303.974"/>
    </contour>
  </outline>
</glyph>
<glyph name="h.init" format="2">
  <advance width="228"/>
  <unicode hex="E015"/>
  <outline>
    <contour>
      <point x="162.952" y="439.998" type="line"/>
      <point x="162.696" y="376.775" type="line"/>
      <point x="162.696" y="167.111"/>
      <point x="168.959" y="47.2051"/>
      <point x="168.959" y="10.626" type="curve" smooth="yes"/>
      <point x="168.959" y="-6.61035"/>
      <point x="119.89" y="-15.5264"/>
      <point x="98.4092" y="-15.5264" type="curve" smooth="yes"/>
      <point x="67.1982" y="-15.5264"/>
      <point x="59.8037" y="-12.1914"/>
      <point x="59.8037" y="-6.0498" type="curve" smooth="yes"/>
      <point x="59.8037" y="6.88867"/>
      <point x="65.1865" y="102.139"/>
      <point x="65.1865" y="352.166" type="curve" smooth="yes"/>
      <point x="65.1865" y="516.921"/>
      <point x="64.6396" y="560.605"/>
      <point x="64.3477" y="575.376" type="curve"/>
      <point x="21.9893" y="591.071"/>
      <point x="3.99219" y="597.163"/>
      <point x="3.99219" y="613.083" type="curve" smooth="yes"/>
      <point x="3.99219" y="627.059"/>
      <point x="3.99219" y="647.07"/>
      <point x="168.903" y="654.551" type="curve"/>
      <point x="166.168" y="628.375"/>
      <point x="164.315" y="556.955"/>
      <point x="163.387" y="483.064" type="curve"/>
      <point x="227.885" y="483.065" type="line"/>
      <point x="227.885" y="440" type="line"/>
    </contour>
  </outline>
</glyph>
<glyph name="h.medi" format="2">
  <advance width="190"/>
  <unicode hex="E016"/>
  <outline>
    <contour>
      <point x="115.269" y="332.012" type="line"/>
      <point x="115.269" y="152.661" type="line"/>
      <point x="104.402" y="146.795"/>
      <point x="88.1816" y="141.021"/>
      <point x="74.6367" y="138.143" type="curve"/>
      <point x="74.6367" y="332.012" type="line"/>
      <point x="43.584" y="332.013" type="line"/>
      <point x="43.584" y="349.958" type="line"/>
      <point x="74.6367" y="349.958" type="line"/>
      <point x="74.6367" y="422.968" type="line"/>
      <point x="56.6318" y="443.118" type="line"/>
      <point x="72.2207" y="447.984"/>
      <point x="98.7344" y="454.328"/>
      <point x="115.269" y="456.586" type="curve"/>
      <point x="115.269" y="349.958" type="line"/>
      <point x="146.322" y="349.958" type="line"/>
      <point x="146.322" y="332.012" type="line"/>
    </contour>
  </outline>
</glyph>
<glyph name="h.fina" format="2">
  <advance width="228"/>
  <unicode hex="E017"/>
  <outline>
    <contour>
      <point x="168.903" y="654.551" type="curve"/>
      <point x="164.815" y="615.427"/>
      <point x="162.696" y="475.226"/>
      <point x="162.696" y="376.775" type="curve" smooth="yes"/>
      <point x="162.696" y="228.884"/>
      <point x="165.812" y="125.652"/>
      <point x="167.648" y="64.8218" type="curve" smooth="yes"/>
      <point x="168.415" y="39.4136"/>
      <point x="168.959" y="21.4032"/>
      <point x="168.959" y="10.626" type="curve" smooth="yes"/>
      <point x="168.959" y="-6.61035"/>
      <point x="119.89" y="-15.5264"/>
      <point x="98.4092" y="-15.5264" type="curve" smooth="yes"/>
      <point x="67.1982" y="-15.5264"/>
      <point x="59.8047" y="-12.1914"/>
      <point x="59.8047" y="-6.0498" type="curve" smooth="yes"/>
      <point x="59.8047" y="-3.65199"/>
      <point x="59.9895" y="1.57282"/>
      <point x="60.2907" y="10.0859" type="curve" smooth="yes"/>
      <point x="61.6146" y="47.5088"/>
      <point x="65.1865" y="148.475"/>
      <point x="65.1865" y="352.166" type="curve" smooth="yes"/>
      <point x="65.1865" y="386.394"/>
      <point x="65.1629" y="415.397"/>
      <point x="65.1229" y="440" type="curve"/>
      <point x="0" y="440" type="line"/>
      <point x="-9.34277" y="461.533" type="line"/>
      <point x="0" y="483.065" type="line"/>
      <point x="65.0247" y="483.065" type="line"/>
      <point x="64.8401" y="543.579"/>
      <point x="64.5391" y="565.692"/>
      <point x="64.3477" y="575.376" type="curve"/>
      <point x="62.8881" y="575.917"/>
      <point x="61.4574" y="576.446"/>
      <point x="60.0554" y="576.965" type="curve" smooth="yes"/>
      <point x="20.7703" y="591.503"/>
      <point x="3.99219" y="597.712"/>
      <point x="3.99219" y="613.083" type="curve" smooth="yes"/>
      <point x="3.99219" y="627.059"/>
      <point x="3.99219" y="647.07"/>
    </contour>
  </outline>
</glyph>
<glyph name="i.init" format="2">
  <advance width="568"/>
  <unicode hex="E018"/>
  <outline>
    <contour>
      <point x="128.154" y="533.686" type="curve"/>
      <point x="173.65" y="483.336" type="line"/>
      <point x="567.85" y="483.062" type="line"/>
      <point x="567.85" y="439.992" type="line"/>
      <point x="499.783" y="439.992" type="line"/>
      <point x="499.86" y="431.896"/>
      <point x="499.975" y="424.866"/>
      <point x="500.089" y="417.953" type="curve" smooth="yes"/>
      <point x="500.275" y="406.56"/>
      <point x="500.456" y="395.488"/>
      <point x="500.456" y="380.491" type="curve" smooth="yes"/>
      <point x="500.456" y="197.4"/>
      <point x="487.477" y="119.248"/>
      <point x="450.048" y="65.4678" type="curve" smooth="yes"/>
      <point x="415.559" y="15.9121"/>
      <point x="357.455" y="-22.5811"/>
      <point x="276.611" y="-22.5811" type="curve" smooth="yes"/>
      <point x="210.593" y="-22.5811"/>
      <point x="149.355" y="7.58301"/>
      <point x="116.866" y="54.8115" type="curve" smooth="yes"/>
      <point x="74.0264" y="117.085"/>
      <point x="66.0527" y="196.421"/>
      <point x="66.0527" y="345.944" type="curve" smooth="yes"/>
      <point x="66.0527" y="378.829"/>
      <point x="65.7963" y="385.554"/>
      <point x="65.1898" y="401.463" type="curve" smooth="yes"/>
      <point x="65.134" y="402.924"/>
      <point x="65.0754" y="404.463"/>
      <point x="65.0137" y="406.106" type="curve"/>
      <point x="35.9707" y="423"/>
      <point x="20.834" y="435.073"/>
      <point x="20.834" y="445.098" type="curve" smooth="yes"/>
      <point x="20.834" y="463.353"/>
      <point x="50.543" y="485.732"/>
    </contour>
    <contour>
      <point x="354.41" y="439.992" type="curve"/>
      <point x="164.643" y="439.992" type="line"/>
      <point x="163.903" y="416.778"/>
      <point x="163.576" y="333.279"/>
      <point x="163.576" y="302.865" type="curve" smooth="yes"/>
      <point x="163.576" y="201.718"/>
      <point x="167.141" y="170.223"/>
      <point x="175.31" y="132.418" type="curve" smooth="yes"/>
      <point x="189.031" y="68.9131"/>
      <point x="233.177" y="23.0479"/>
      <point x="287.594" y="23.0479" type="curve" smooth="yes"/>
      <point x="345.54" y="23.0479"/>
      <point x="382.778" y="73.2959"/>
      <point x="393.433" y="129.67" type="curve" smooth="yes"/>
      <point x="400.529" y="167.22"/>
      <point x="403.425" y="190.509"/>
      <point x="403.425" y="311.104" type="curve" smooth="yes"/>
      <point x="403.425" y="345.434"/>
      <point x="400.847" y="384.717"/>
      <point x="397.657" y="406.506" type="curve"/>
      <point x="374.906" y="416.886"/>
      <point x="361.529" y="430.265"/>
    </contour>
  </outline>
</glyph>
<glyph name="i.medi" format="2">
  <advance width="233"/>
  <unicode hex="E019"/>
  <outline>
    <contour>
      <point x="173.378" y="363.819" type="curve"/>
      <point x="169.288" y="324.695"/>
      <point x="167.367" y="249.534"/>
      <point x="167.367" y="186.533" type="curve" smooth="yes"/>
      <point x="167.367" y="127.876"/>
      <point x="169.753" y="88.5534"/>
      <point x="171.58" y="58.4435" type="curve" smooth="yes"/>
      <point x="172.714" y="39.7642"/>
      <point x="173.632" y="24.6305"/>
      <point x="173.632" y="10.626" type="curve" smooth="yes"/>
      <point x="173.632" y="-6.61133"/>
      <point x="124.561" y="-15.5244"/>
      <point x="103.08" y="-15.5244" type="curve" smooth="yes"/>
      <point x="71.8691" y="-15.5244"/>
      <point x="64.4756" y="-12.1895"/>
      <point x="64.4756" y="-6.04785" type="curve" smooth="yes"/>
      <point x="64.4756" y="-2.66073"/>
      <point x="64.8445" y="7.78643"/>
      <point x="65.3891" y="23.2109" type="curve" smooth="yes"/>
      <point x="66.925" y="66.7064"/>
      <point x="69.8584" y="149.781"/>
      <point x="69.8584" y="225.731" type="curve" smooth="yes"/>
      <point x="69.8584" y="276.016"/>
      <point x="69.7793" y="282.944"/>
      <point x="69.6729" y="284.641" type="curve" smooth="yes"/>
      <point x="67.4824" y="285.452"/>
      <point x="65.3549" y="286.238"/>
      <point x="63.2895" y="287.001" type="curve" smooth="yes"/>
      <point x="25.4158" y="300.992"/>
      <point x="8.46875" y="307.253"/>
      <point x="8.46875" y="322.351" type="curve" smooth="yes"/>
      <point x="8.46875" y="336.314"/>
      <point x="8.46875" y="356.339"/>
    </contour>
    <contour>
      <point x="173.573" y="654.547" type="curve"/>
      <point x="169.486" y="615.422"/>
      <point x="167.56" y="584.092"/>
      <point x="167.56" y="561.054" type="curve" smooth="yes"/>
      <point x="167.56" y="526.853"/>
      <point x="168.879" y="502.397"/>
      <point x="170.589" y="483.066" type="curve"/>
      <point x="180.917" y="483.066"/>
      <point x="191.245" y="483.066"/>
      <point x="201.573" y="483.066" type="curve" smooth="yes"/>
      <point x="211.901" y="483.066"/>
      <point x="222.229" y="483.066"/>
      <point x="232.557" y="483.066" type="curve"/>
      <point x="232.557" y="440" type="line"/>
      <point x="0" y="439.998" type="line"/>
      <point x="-9.34277" y="461.531" type="line"/>
      <point x="0" y="483.063" type="line"/>
      <point x="11.2497" y="483.063"/>
      <point x="22.4994" y="483.064"/>
      <point x="33.7491" y="483.064" type="curve" smooth="yes"/>
      <point x="44.9988" y="483.064"/>
      <point x="56.2485" y="483.064"/>
      <point x="67.4981" y="483.064" type="curve"/>
      <point x="69.054" y="513.067"/>
      <point x="70.0508" y="546.986"/>
      <point x="70.0508" y="575.373" type="curve"/>
      <point x="67.7033" y="576.243"/>
      <point x="65.4274" y="577.083"/>
      <point x="63.2224" y="577.897" type="curve" smooth="yes"/>
      <point x="25.6412" y="591.774"/>
      <point x="8.65918" y="598.044"/>
      <point x="8.65918" y="613.083" type="curve" smooth="yes"/>
      <point x="8.65918" y="627.059"/>
      <point x="8.65918" y="647.066"/>
    </contour>
  </outline>
</glyph>
<glyph name="i.fina" format="2">
  <advance width="320"/>
  <unicode hex="E01A"/>
  <outline>
    <contour>
      <point x="125.295" y="198.403" type="curve"/>
      <point x="125.295" y="56.2783" type="line"/>
      <point x="117.318" y="51.9717"/>
      <point x="105.41" y="47.7334"/>
      <point x="95.4678" y="45.6201" type="curve"/>
      <point x="95.4678" y="173.724" type="line"/>
      <point x="82.25" y="188.517" type="line"/>
      <point x="93.6934" y="192.088"/>
      <point x="113.157" y="196.745"/>
    </contour>
    <contour>
      <point x="69.3945" y="-15.2021" type="line"/>
      <point x="103.287" y="-16.7021"/>
      <point x="135.621" y="-18.1338"/>
      <point x="144.493" y="-18.1338" type="curve" smooth="yes"/>
      <point x="154.214" y="-18.1338"/>
      <point x="157.701" y="-15.291"/>
      <point x="157.701" y="-7.13965" type="curve" smooth="yes"/>
      <point x="157.701" y="235.046" type="line"/>
      <point x="61.6074" y="235.044" type="line"/>
      <point x="61.6074" y="252.99" type="line"/>
      <point x="149.102" y="252.992" type="line"/>
      <point x="167.272" y="259.441"/>
      <point x="182.277" y="263.923"/>
      <point x="200.396" y="268.06" type="curve"/>
      <point x="199.363" y="259.458"/>
      <point x="198.332" y="236.31"/>
      <point x="198.332" y="217.571" type="curve" smooth="yes"/>
      <point x="198.332" y="-14.876" type="line" smooth="yes"/>
      <point x="198.332" y="-44.3906"/>
      <point x="191.387" y="-55.9092"/>
      <point x="142.036" y="-61.2051" type="curve"/>
      <point x="134.523" y="-33.9766"/>
      <point x="134.195" y="-32.7871"/>
      <point x="69.3945" y="-24.9346" type="curve"/>
    </contour>
  </outline>
</glyph>
